#N canvas 50 253 1981 526 10;
#X obj 69 224 r \$0-hearticon-r;
#X obj 69 273 s \$0-hearticon-s;
#X obj 12 45 r \$0-poweronicon-r;
#X obj 39 45 r \$0-powerofficon-r;
#X obj 12 87 s \$0-poweronicon-s;
#X obj 39 87 s \$0-powerofficon-s;
#X obj -1 -1 ggee/image ui-images/neonshiplicious.png 0 0 1970 526
empty empty empty 1970 526 1 0 10 #000000 0 -8 544 145.5 0 1 1;
#X symbolatom 19 250 7 0 0 2 - #0-numdisp null 0, f 7;
#X obj 129 251 bng 15 250 50 0 \$0-openfullchat \$0-openfullchat-r
Open\ Chat -20 -9 0 10 #0080c0 #0000a0 #ffffff;
#N canvas 606 592 1175 544 logic-systems 0;
#N canvas 609 658 1287 605 connect-logic 0;
#X text 662 19 initiates connection;
#X obj 858 178 r \$0-hostname-s;
#X obj 799 101 t b b b;
#X obj 747 48 gate 1 1;
#X obj 747 73 t b b 0;
#X msg 647 70 1;
#X obj 647 49 delay 1000;
#X text 815 47 avoid spamming connect request (only 1 per second).
also addresses weird timing issues during init if the spam is allowed.
, f 45;
#X obj 818 156 delay 250;
#X obj 818 222 lister;
#X obj 858 200 s2l :;
#X msg 818 332 connect \$1 \$2;
#X obj 875 285 sel 0;
#X obj 818 243 unpack s 0;
#X obj 818 178 t b b;
#X obj 818 310 pack s 0;
#X obj 1092 69 loadbang;
#X obj 1092 111 tosymbol;
#X obj 1092 174 s \$0-hostname-r;
#X text 1093 47 default hostname setting;
#X msg 887 243 1337;
#X obj 29 131 keyname;
#X obj 68 156 sel ShiftCtrlF12;
#X obj 29 156 sel 1;
#X obj 29 204 f;
#X msg 68 177 1;
#X msg 161 177 0;
#X obj 29 225 sel 1;
#X obj 29 246 bng 15 250 50 0 empty empty empty 17 7 0 10 #fcfcfc #000000
#000000;
#X text 57 204 use Shift+Ctrl+F12 to disconnect;
#X obj 792 20 r \$0-reconnect;
#X obj 838 123 s \$0-disconnect;
#X obj 388 109 r \$0-disconnect;
#X msg 343 443 disconnect;
#X obj 29 273 s \$0-disconnect;
#X obj 343 170 t b b;
#X symbolatom 457 261 18 0 0 0 - - - 0, f 18;
#X obj 370 196 bng 15 250 50 0 empty empty empty 17 7 0 10 #fcfcfc
#000000 #000000;
#X obj 343 144 gate 1 0;
#X obj 343 57 r \$0-connected;
#X obj 343 93 tgl 35 0 empty empty empty 17 7 0 10 #fcfcfc #000000
#000000 0 1;
#X obj 412 407 s \$0-toserver;
#X msg 412 384 send disconnect \$1;
#X obj 412 360 gate 1 0;
#X obj 397 263 delay 10;
#X obj 365 318 tgl 34 0 empty empty empty 17 7 0 10 #fcfcfc #000000
#000000 0 1;
#X msg 365 263 1;
#X msg 397 291 0;
#X obj 370 219 t b b;
#X obj 457 237 r \$0-username-r;
#X obj 818 368 s \$0-connect-to-server;
#X obj 343 473 s \$0-connect-to-server;
#X text 388 87 Connect/disconnect message logic, f 35;
#X text 467 282 Default Username to avoid weird chat things,
f 37;
#X text 923 243 default port. allows for ip to be entered without specifying port.
, f 34;
#X msg 1092 90 localhost;
#X text 896 200 splits name into ip and port if specified,
f 32;
#X connect 1 0 10 0;
#X connect 2 1 8 0;
#X connect 2 2 31 0;
#X connect 3 0 4 0;
#X connect 4 0 6 0;
#X connect 4 1 2 0;
#X connect 4 2 3 0;
#X connect 5 0 3 0;
#X connect 6 0 5 0;
#X connect 8 0 14 0;
#X connect 9 0 13 0;
#X connect 10 0 9 1;
#X connect 11 0 50 0;
#X connect 12 1 15 1;
#X connect 13 0 15 0;
#X connect 13 1 12 0;
#X connect 14 0 9 0;
#X connect 14 1 20 0;
#X connect 15 0 11 0;
#X connect 16 0 55 0;
#X connect 17 0 18 0;
#X connect 20 0 12 0;
#X connect 21 0 23 0;
#X connect 21 1 22 0;
#X connect 22 0 25 0;
#X connect 22 1 26 0;
#X connect 23 0 24 0;
#X connect 24 0 27 0;
#X connect 25 0 24 1;
#X connect 26 0 24 1;
#X connect 27 0 28 0;
#X connect 28 0 34 0;
#X connect 30 0 3 1;
#X connect 32 0 38 1;
#X connect 33 0 51 0;
#X connect 35 0 33 0;
#X connect 35 1 37 0;
#X connect 36 0 43 1;
#X connect 37 0 48 0;
#X connect 38 0 35 0;
#X connect 39 0 40 0;
#X connect 40 0 38 0;
#X connect 42 0 41 0;
#X connect 43 0 42 0;
#X connect 44 0 47 0;
#X connect 45 0 43 0;
#X connect 46 0 45 0;
#X connect 47 0 45 0;
#X connect 48 0 36 0;
#X connect 48 1 46 0;
#X connect 48 1 44 0;
#X connect 49 0 36 0;
#X connect 55 0 17 0;
#X restore 15 40 pd connect-logic;
#N canvas 265 503 1211 790 chat-logic 0;
#X obj 23 40 loadbang;
#X obj 23 206 s \$0-chat-r;
#X obj 23 110 tosymbol;
#X obj 23 132 list prepend set;
#X obj 23 154 list trim;
#X msg 23 62 Click here to chat while online. Press return to send.
, f 32;
#X obj 313 41 r \$0-chat-s;
#X obj 19 236 loadbang;
#X obj 19 306 tosymbol;
#X obj 19 328 list prepend set;
#X obj 19 350 list trim;
#X obj 1074 16 loadbang;
#X obj 978 95 tosymbol;
#X msg 1074 69 separator _;
#X symbolatom 978 120 0 0 0 0 - - - 0;
#X obj 978 50 s2l;
#X text 976 145 Replace spaces with _ for usernames \; (No longer
needed);
#X msg 19 258 Type Your Username Here, f 32;
#X obj 313 101 route;
#X symbolatom 340 175 30 0 0 0 - - - 0, f 30;
#X obj 593 98 route;
#X symbolatom 620 172 30 0 0 0 - - - 0, f 30;
#X obj 582 139 bng 15 250 50 0 empty empty empty 17 7 0 10 #fcfcfc
#000000 #000000;
#X obj 596 22 loadbang;
#X msg 679 115 symbol Default-Username;
#X msg 402 119 symbol Default-Message;
#X obj 596 48 t b b;
#X obj 408 42 r \$0-username;
#X obj 620 237 s \$0-username-r;
#X obj 340 389 s \$0-chat-out;
#X obj 19 402 s \$0-username-r;
#X obj 978 15 r \$0-username;
#X obj 19 589 s \$0-tochat;
#X obj 19 442 loadbang;
#X obj 19 512 tosymbol;
#X obj 19 534 list prepend set;
#X obj 19 556 list trim;
#X msg 19 464 This is the chat box! Messages will appear here when
you are connected to a server., f 32;
#X obj 18 617 loadbang;
#X obj 18 666 tosymbol;
#X obj 18 690 list trim;
#X obj 18 717 s \$0-numlikes;
#X obj 992 332 r \$0-like;
#X obj 992 369 t b b;
#X obj 974 431 gate 1 0;
#X msg 1041 400 0;
#X obj 1108 432 tgl 32 0 empty empty empty 17 7 0 10 #fcfcfc #000000
#000000 0 1;
#X msg 1108 400 1;
#X obj 552 565 text define -k chat-history;
#A set;
#X obj 1108 343 r \$0-likeallow;
#X msg 974 460 send like 1;
#X obj 974 515 s \$0-toserver;
#X obj 1041 366 loadbang;
#X obj 865 374 r \$0-numlikes;
#X obj 865 396 list prepend +;
#X obj 865 420 list trim;
#X obj 865 441 tosymbol;
#X obj 865 466 s \$0-numdisp;
#X obj 555 486 text insert chat-history;
#X msg 652 440 1e+09;
#X obj 652 416 loadbang;
#X obj 496 217 sprintf %s:;
#X obj 340 239 list prepend;
#X obj 340 264 list prepend chat;
#X obj 340 289 list prepend send;
#X obj 340 314 list trim;
#X text 556 395 Chat history;
#X text 312 10 Chat-sending logic;
#X text 24 10 Default Messages;
#X text 866 329 Like / +1 system;
#X obj 352 340 tosymbol;
#X symbolatom 352 364 50 0 0 0 - - - 0, f 50;
#X obj 551 645 text delete chat-history;
#X obj 551 593 loadbang;
#X msg 551 618 -1;
#X obj 555 440 r \$0-tohistory;
#X obj 468 259 tosymbol;
#X symbolatom 468 283 50 0 0 0 - - - 0, f 50;
#X msg 620 207 set \$1;
#X obj 552 514 r \$0-openfullchat;
#X msg 552 539 click;
#X msg 18 639 0, f 32;
#X connect 0 0 5 0;
#X connect 2 0 3 0;
#X connect 3 0 4 0;
#X connect 4 0 1 0;
#X connect 5 0 2 0;
#X connect 6 0 18 0;
#X connect 6 0 22 0;
#X connect 7 0 17 0;
#X connect 8 0 9 0;
#X connect 9 0 10 0;
#X connect 10 0 30 0;
#X connect 11 0 13 0;
#X connect 12 0 14 0;
#X connect 13 0 12 0;
#X connect 15 0 12 0;
#X connect 17 0 8 0;
#X connect 18 1 19 0;
#X connect 18 1 62 0;
#X connect 20 1 21 0;
#X connect 21 0 61 0;
#X connect 21 0 78 0;
#X connect 22 0 21 0;
#X connect 23 0 26 0;
#X connect 24 0 21 0;
#X connect 25 0 19 0;
#X connect 25 0 62 0;
#X connect 26 0 25 0;
#X connect 26 1 24 0;
#X connect 27 0 20 0;
#X connect 31 0 15 0;
#X connect 33 0 37 0;
#X connect 34 0 35 0;
#X connect 35 0 36 0;
#X connect 36 0 32 0;
#X connect 37 0 34 0;
#X connect 38 0 81 0;
#X connect 39 0 40 0;
#X connect 40 0 41 0;
#X connect 42 0 43 0;
#X connect 43 0 45 0;
#X connect 43 1 44 1;
#X connect 44 0 50 0;
#X connect 45 0 44 0;
#X connect 45 0 46 0;
#X connect 47 0 44 0;
#X connect 47 0 46 0;
#X connect 49 0 47 0;
#X connect 50 0 51 0;
#X connect 52 0 45 0;
#X connect 53 0 54 0;
#X connect 54 0 55 0;
#X connect 55 0 56 0;
#X connect 56 0 57 0;
#X connect 59 0 58 1;
#X connect 60 0 59 0;
#X connect 61 0 62 1;
#X connect 62 0 63 0;
#X connect 62 0 76 0;
#X connect 63 0 64 0;
#X connect 64 0 65 0;
#X connect 65 0 70 0;
#X connect 65 0 29 0;
#X connect 70 0 71 0;
#X connect 73 0 74 0;
#X connect 74 0 72 0;
#X connect 75 0 58 0;
#X connect 76 0 77 0;
#X connect 78 0 28 0;
#X connect 79 0 80 0;
#X connect 80 0 48 0;
#X connect 81 0 39 0;
#X restore 15 15 pd chat-logic;
#N canvas 888 842 566 432 client 0;
#X obj 16 90 netclient;
#X floatatom 83 116 5 0 0 0 - - - 0, f 5;
#X floatatom 16 221 5 0 0 0 - - - 0, f 5;
#X obj 62 211 print list;
#X obj 16 170 route float list;
#X obj 297 335 tosymbol;
#N canvas 290 597 1116 588 auth 0;
#X obj 221 132 bng 40 250 50 0 empty empty empty 17 7 0 10 #fcfcfc
#000000 #000000;
#X msg 221 185 send auth 2.3488e+06;
#X obj 423 72 bng 40 250 50 0 empty empty empty 17 7 0 10 #80ff80 #000000
#000000;
#X obj 595 70 bng 40 250 50 0 empty empty empty 17 7 0 10 #ff8080 #000000
#000000;
#X obj 595 150 print CONSOLE;
#X msg 595 123 Invalid authentication ... diconnecting;
#X obj 684 149 s \$0-disconnect;
#X msg 221 42 0;
#X msg 221 66 1;
#X obj 180 105 tgl 32 0 empty empty empty 17 7 0 10 #fcfcfc #000000
#000000 1 1;
#X obj 221 105 gate 0 1;
#X obj 37 32 r \$0-disconnect;
#X msg 423 123 Authenticated... welcome!;
#X obj 266 31 inlet;
#X obj 423 21 inlet;
#X obj 595 24 inlet;
#X obj 423 158 s \$0-authok;
#X obj 221 216 s \$0-sendauth;
#X obj 284 280 r \$0-chat-out;
#X obj 36 339 gate 1 0;
#X obj 169 339 gate 1 0;
#X obj 169 256 r \$0-disconnect;
#X msg 169 309 0;
#X msg 205 309 1;
#X obj 205 280 r \$0-authok;
#X obj 81 280 r \$0-sendauth;
#X obj 36 255 r \$0-connected;
#X obj 236 340 tgl 55 0 empty empty empty 17 7 0 10 #fcfcfc #000000
#000000 0 1;
#X obj 97 319 tgl 35 0 empty empty empty 17 7 0 10 #fcfcfc #000000
#000000 0 1;
#X obj 856 159 gate 1 0;
#X obj 856 108 tgl 35 0 empty empty empty 17 7 0 10 #fcfcfc #000000
#000000 0 1;
#X obj 856 10 r \$0-disconnect;
#X msg 856 63 0;
#X msg 892 63 1;
#X obj 266 60 s \$0-authproc;
#X obj 221 8 r \$0-authok;
#X obj 266 81 r \$0-authproc;
#X obj 892 37 r \$0-authproc;
#X obj 940 126 r \$0-authok;
#X msg 908 384 send connect \$1;
#X symbolatom 953 256 10 0 0 0 - - - 0, f 10;
#X obj 856 183 bng 15 250 50 0 empty empty empty 17 7 0 10 #fcfcfc
#000000 #000000;
#X obj 908 355 gate 1 0;
#X obj 851 313 tgl 34 0 empty empty empty 17 7 0 10 #fcfcfc #000000
#000000 0 1;
#X msg 851 258 1;
#X msg 883 286 0;
#X obj 883 258 delay 10;
#X obj 856 207 t b b;
#X obj 385 281 r \$0-authok;
#X obj 385 345 gate 1 0;
#X obj 480 308 tgl 37 0 empty empty empty 17 7 0 10 #fcfcfc #000000
#000000 0 1;
#X obj 385 386 s \$0-openfullchat-r;
#X obj 480 276 r \$0-ococ;
#X obj 953 229 r \$0-username-r;
#X obj 908 408 s \$0-connect-to-server;
#X obj 36 372 s \$0-connect-to-server;
#X connect 0 0 1 0;
#X connect 1 0 17 0;
#X connect 2 0 12 0;
#X connect 2 0 16 0;
#X connect 3 0 5 0;
#X connect 3 0 6 0;
#X connect 5 0 4 0;
#X connect 7 0 9 0;
#X connect 7 0 10 0;
#X connect 8 0 9 0;
#X connect 8 0 10 0;
#X connect 10 0 0 0;
#X connect 11 0 8 0;
#X connect 12 0 4 0;
#X connect 13 0 34 0;
#X connect 14 0 2 0;
#X connect 15 0 3 0;
#X connect 18 0 20 1;
#X connect 19 0 55 0;
#X connect 20 0 55 0;
#X connect 21 0 22 0;
#X connect 22 0 20 0;
#X connect 22 0 27 0;
#X connect 23 0 20 0;
#X connect 23 0 27 0;
#X connect 24 0 23 0;
#X connect 25 0 19 1;
#X connect 26 0 19 0;
#X connect 26 0 28 0;
#X connect 29 0 41 0;
#X connect 30 0 29 0;
#X connect 31 0 32 0;
#X connect 32 0 30 0;
#X connect 33 0 30 0;
#X connect 35 0 7 0;
#X connect 36 0 10 1;
#X connect 37 0 33 0;
#X connect 38 0 29 1;
#X connect 38 0 32 0;
#X connect 39 0 54 0;
#X connect 40 0 42 1;
#X connect 41 0 47 0;
#X connect 42 0 39 0;
#X connect 43 0 42 0;
#X connect 44 0 43 0;
#X connect 45 0 43 0;
#X connect 46 0 45 0;
#X connect 47 0 40 0;
#X connect 47 1 44 0;
#X connect 47 1 46 0;
#X connect 48 0 49 0;
#X connect 49 0 51 0;
#X connect 50 0 49 1;
#X connect 52 0 50 0;
#X connect 53 0 40 0;
#X restore 157 224 pd auth;
#X obj 83 140 s \$0-connected;
#X obj 61 36 r \$0-toserver;
#X obj 297 385 s \$0-tochat;
#X obj 373 358 bng 15 250 50 0 empty empty empty 17 7 0 10 #fcfcfc
#000000 #000000;
#X obj 373 385 s \$0-likeallow;
#X floatatom 342 265 5 0 0 0 - - - 0, f 5;
#X obj 342 306 s \$0-numlikes;
#X obj 342 215 loadbang;
#X msg 342 237 0;
#X obj 203 385 s \$0-tohistory;
#X obj 390 275 s \$0-pointincrement;
#X obj 157 187 route auth authok autherr chat like point %instruments%
;
#X obj 437 245 s \$0-instruments;
#X obj 16 61 gate 1 0;
#X obj 16 10 r \$0-connected;
#X obj 80 61 r \$0-connect-to-server;
#X connect 0 0 4 0;
#X connect 0 1 1 0;
#X connect 1 0 7 0;
#X connect 4 0 2 0;
#X connect 4 1 3 0;
#X connect 4 2 18 0;
#X connect 5 0 9 0;
#X connect 5 0 10 0;
#X connect 5 0 16 0;
#X connect 8 0 20 1;
#X connect 10 0 11 0;
#X connect 12 0 13 0;
#X connect 14 0 15 0;
#X connect 15 0 12 0;
#X connect 18 0 6 0;
#X connect 18 1 6 1;
#X connect 18 2 6 2;
#X connect 18 3 5 0;
#X connect 18 4 12 0;
#X connect 18 5 17 0;
#X connect 18 6 19 0;
#X connect 20 0 0 0;
#X connect 21 0 20 0;
#X connect 22 0 0 0;
#X restore 15 65 pd client;
#N canvas 55 499 1676 769 points-system 0;
#X obj 122 102 + 1;
#X floatatom 122 76 5 0 0 0 - - - 0, f 5;
#X floatatom 352 43 5 0 0 0 - - - 0, f 5;
#X msg 352 70 set \$1;
#X obj 122 102 + 1;
#X floatatom 122 76 5 0 0 0 - - - 0, f 5;
#X floatatom 352 43 5 0 0 0 - - - 0, f 5;
#X msg 352 70 set \$1;
#X obj 122 48 bng 15 250 50 0 empty empty empty 17 7 0 10 #fcfcfc #000000
#000000;
#X obj 122 20 r \$0-pointincrement;
#X text 390 46 # points;
#X obj 352 96 s \$0-setpoint;
#X obj 352 18 r \$0-numpoints;
#X obj 122 125 s \$0-numpoints;
#X obj 26 47 r \$0-setpoint;
#X obj 41 250 + 1;
#X floatatom 41 224 5 0 0 0 - - - 0, f 5;
#X floatatom 41 224 5 0 0 0 - - - 0, f 5;
#X obj 41 273 s \$0-numpoints;
#X obj 41 195 r \$0-setpoint;
#X text 158 47 Point incrementing \; +1 point per like;
#X obj 41 250 - 0;
#X msg 201 230 20;
#X obj 174 187 t b b;
#X obj 172 159 bng 15 250 50 0 empty empty empty 17 7 0 10 #fcfcfc
#000000 #000000;
#X text 665 20 Shop Items;
#X text 43 172 Money spender;
#X obj 741 21 text define -k itemcosts;
#A set randomtext 5 \; announcement 10 \; scramble 5 \; censor 5 \;
;
#X obj 574 297 bng 15 250 50 0 empty empty empty 17 7 0 10 #fcfcfc
#000000 #000000;
#X obj 558 206 text search itemcosts 0;
#X obj 558 272 text get itemcosts 1;
#X floatatom 558 318 5 0 0 0 - - - 0, f 5;
#X msg 748 87 symbol randomtext;
#X msg 981 87 symbol announcement;
#X msg 585 249 1;
#X obj 558 227 t f b;
#X msg 616 87 symbol doesntexist;
#X obj 558 342 s \$0-spend;
#X obj 558 183 r \$0-cost;
#X obj 748 178 s \$0-cost;
#X obj 366 179 r \$0-spend;
#X floatatom 351 155 5 0 0 0 - - - 0, f 5;
#X floatatom 351 155 5 0 0 0 - - - 0, f 5;
#X obj 351 129 r \$0-setpoint;
#X obj 332 196 bng 15 250 50 0 empty empty empty 17 7 0 10 #fcfcfc
#000000 #000000;
#X floatatom 351 262 5 0 0 0 - - - 0, f 5;
#X obj 322 339 -;
#X obj 366 285 r \$0-spend;
#X obj 351 308 *;
#X obj 322 361 s \$0-numpoints;
#X obj 351 239 >=;
#X floatatom 257 307 5 0 0 0 - - - 0, f 5;
#X floatatom 257 307 5 0 0 0 - - - 0, f 5;
#X obj 257 281 r \$0-setpoint;
#X obj 308 307 bng 15 250 50 0 empty empty empty 17 7 0 10 #fcfcfc
#000000 #000000;
#X obj 439 285 s \$0-allowbuy;
#X obj 821 208 spigot;
#X obj 867 227 bng 16 250 50 0 empty empty empty 17 7 0 10 #fcfcfc
#000000 #000000;
#X obj 1067 208 spigot;
#X obj 1113 227 bng 16 250 50 0 empty empty empty 17 7 0 10 #fcfcfc
#000000 #000000;
#X obj 1283 208 spigot;
#X obj 1329 227 bng 16 250 50 0 empty empty empty 17 7 0 10 #fcfcfc
#000000 #000000;
#X msg 1197 87 symbol scramble;
#X obj 748 57 r \$0-selrt;
#X obj 981 57 r \$0-selan;
#X obj 1197 59 r \$0-selsc;
#X obj 821 290 s \$0-toserver;
#X msg 821 266 send purchase \$1;
#X obj 1541 62 r \$0-allowbuy;
#X obj 1508 168 spigot;
#X obj 1554 187 bng 16 250 50 0 empty empty empty 17 7 0 10 #fcfcfc
#000000 #000000;
#X obj 1422 49 r \$0-selce;
#X msg 1422 77 symbol censor;
#X obj 749 595 s \$0-rtbng;
#X msg 867 550 color 13;
#X msg 810 549 color 16;
#X text 816 527 green;
#X text 869 527 red;
#X text 698 550 default;
#X obj 750 524 del 1000;
#X obj 868 508 spigot;
#X msg 1097 550 color 13;
#X msg 1040 549 color 16;
#X text 1046 527 green;
#X text 1099 527 red;
#X text 928 550 default;
#X obj 980 524 del 1000;
#X obj 1098 508 spigot;
#X obj 979 595 s \$0-anbng;
#X msg 1317 550 color 13;
#X msg 1260 549 color 16;
#X text 1266 527 green;
#X text 1319 527 red;
#X text 1148 550 default;
#X obj 1200 524 del 1000;
#X obj 1318 508 spigot;
#X msg 1537 550 color 13;
#X msg 1480 549 color 16;
#X text 1486 527 green;
#X text 1539 527 red;
#X text 1368 550 default;
#X obj 1420 524 del 1000;
#X obj 1537 386 r \$0-allowbuy;
#X obj 1537 508 spigot;
#X obj 1537 407 == 0;
#X text 1568 407 Invert gate;
#X obj 1199 594 s \$0-scbng;
#X obj 1419 595 s \$0-cebng;
#X obj 288 18 loadbang;
#X msg 288 43 0;
#X obj 439 179 loadbang;
#X floatatom 1541 115 5 0 0 0 - - - 0, f 5;
#X msg 1448 138 symbol censor;
#X obj 1541 140 t b f;
#X msg 1002 187 symbol censor;
#X msg 814 185 symbol censor;
#X msg 1224 185 symbol scramble;
#X msg 1002 187 symbol announcement;
#X msg 815 185 symbol randomtext;
#X msg 1541 90 set \$1;
#X obj 1537 480 t b f;
#X floatatom 1537 456 5 0 0 0 - - - 0, f 5;
#X msg 1537 431 set \$1;
#X obj 1318 378 r \$0-allowbuy;
#X obj 1318 399 == 0;
#X text 1349 399 Invert gate;
#X obj 1318 472 t b f;
#X floatatom 1318 448 5 0 0 0 - - - 0, f 5;
#X msg 1318 423 set \$1;
#X obj 1098 378 r \$0-allowbuy;
#X obj 1098 399 == 0;
#X text 1129 399 Invert gate;
#X obj 1098 472 t b f;
#X floatatom 1098 448 5 0 0 0 - - - 0, f 5;
#X msg 1098 423 set \$1;
#X obj 928 378 r \$0-allowbuy;
#X obj 928 399 == 0;
#X text 959 399 Invert gate;
#X obj 928 472 t b f;
#X floatatom 928 448 5 0 0 0 - - - 0, f 5;
#X msg 928 423 set \$1;
#X obj 1331 90 r \$0-allowbuy;
#X floatatom 1331 143 5 0 0 0 - - - 0, f 5;
#X obj 1331 168 t b f;
#X msg 1331 118 set \$1;
#X obj 1131 110 r \$0-allowbuy;
#X floatatom 1131 163 5 0 0 0 - - - 0, f 5;
#X obj 1131 188 t b f;
#X msg 1131 138 set \$1;
#X obj 931 110 r \$0-allowbuy;
#X floatatom 931 163 5 0 0 0 - - - 0, f 5;
#X obj 931 188 t b f;
#X msg 931 138 set \$1;
#X obj 366 201 t b f;
#X msg 1420 550 color 17;
#X msg 1200 550 color 17;
#X msg 980 550 color 17;
#X msg 750 550 color 17;
#X connect 1 0 0 0;
#X connect 2 0 3 0;
#X connect 4 0 13 0;
#X connect 5 0 4 0;
#X connect 6 0 7 0;
#X connect 7 0 11 0;
#X connect 8 0 5 0;
#X connect 9 0 8 0;
#X connect 12 0 6 0;
#X connect 14 0 5 0;
#X connect 16 0 15 0;
#X connect 17 0 21 0;
#X connect 19 0 17 0;
#X connect 21 0 18 0;
#X connect 22 0 21 1;
#X connect 23 0 17 0;
#X connect 23 1 22 0;
#X connect 24 0 23 0;
#X connect 29 0 35 0;
#X connect 30 0 28 0;
#X connect 30 0 31 0;
#X connect 31 0 37 0;
#X connect 32 0 39 0;
#X connect 33 0 39 0;
#X connect 34 0 30 1;
#X connect 35 0 30 0;
#X connect 35 1 34 0;
#X connect 36 0 39 0;
#X connect 38 0 29 0;
#X connect 40 0 153 0;
#X connect 42 0 50 0;
#X connect 43 0 42 0;
#X connect 44 0 42 0;
#X connect 45 0 48 0;
#X connect 45 0 55 0;
#X connect 46 0 49 0;
#X connect 47 0 48 1;
#X connect 48 0 46 1;
#X connect 48 0 54 0;
#X connect 50 0 45 0;
#X connect 52 0 46 0;
#X connect 53 0 52 0;
#X connect 54 0 52 0;
#X connect 56 0 57 0;
#X connect 56 0 67 0;
#X connect 57 0 75 0;
#X connect 58 0 59 0;
#X connect 58 0 67 0;
#X connect 59 0 82 0;
#X connect 60 0 61 0;
#X connect 60 0 67 0;
#X connect 61 0 90 0;
#X connect 62 0 39 0;
#X connect 63 0 32 0;
#X connect 63 0 79 0;
#X connect 63 0 139 0;
#X connect 63 0 150 0;
#X connect 64 0 33 0;
#X connect 64 0 86 0;
#X connect 64 0 133 0;
#X connect 64 0 146 0;
#X connect 65 0 62 0;
#X connect 65 0 94 0;
#X connect 65 0 127 0;
#X connect 65 0 142 0;
#X connect 67 0 66 0;
#X connect 68 0 119 0;
#X connect 69 0 70 0;
#X connect 69 0 67 0;
#X connect 70 0 97 0;
#X connect 71 0 101 0;
#X connect 71 0 72 0;
#X connect 71 0 111 0;
#X connect 71 0 121 0;
#X connect 72 0 39 0;
#X connect 74 0 73 0;
#X connect 75 0 73 0;
#X connect 79 0 157 0;
#X connect 80 0 74 0;
#X connect 81 0 88 0;
#X connect 82 0 88 0;
#X connect 86 0 156 0;
#X connect 87 0 81 0;
#X connect 89 0 106 0;
#X connect 90 0 106 0;
#X connect 94 0 155 0;
#X connect 95 0 89 0;
#X connect 96 0 107 0;
#X connect 97 0 107 0;
#X connect 101 0 154 0;
#X connect 102 0 104 0;
#X connect 103 0 96 0;
#X connect 104 0 122 0;
#X connect 108 0 109 0;
#X connect 109 0 6 0;
#X connect 110 0 45 0;
#X connect 111 0 113 0;
#X connect 112 0 69 0;
#X connect 113 0 112 0;
#X connect 113 1 69 1;
#X connect 116 0 60 0;
#X connect 117 0 58 0;
#X connect 118 0 56 0;
#X connect 119 0 111 0;
#X connect 120 0 103 0;
#X connect 120 1 103 1;
#X connect 121 0 120 0;
#X connect 122 0 121 0;
#X connect 123 0 124 0;
#X connect 124 0 128 0;
#X connect 126 0 95 0;
#X connect 126 1 95 1;
#X connect 127 0 126 0;
#X connect 128 0 127 0;
#X connect 129 0 130 0;
#X connect 130 0 134 0;
#X connect 132 0 87 0;
#X connect 132 1 87 1;
#X connect 133 0 132 0;
#X connect 134 0 133 0;
#X connect 135 0 136 0;
#X connect 136 0 140 0;
#X connect 138 0 80 0;
#X connect 138 1 80 1;
#X connect 139 0 138 0;
#X connect 140 0 139 0;
#X connect 141 0 144 0;
#X connect 142 0 143 0;
#X connect 143 0 116 0;
#X connect 143 1 60 1;
#X connect 144 0 142 0;
#X connect 145 0 148 0;
#X connect 146 0 147 0;
#X connect 147 0 117 0;
#X connect 147 1 58 1;
#X connect 148 0 146 0;
#X connect 149 0 152 0;
#X connect 150 0 151 0;
#X connect 151 0 118 0;
#X connect 151 1 56 1;
#X connect 152 0 150 0;
#X connect 153 0 44 0;
#X connect 153 1 50 1;
#X connect 154 0 107 0;
#X connect 155 0 106 0;
#X connect 156 0 88 0;
#X connect 157 0 73 0;
#X restore 15 91 pd points-system;
#N canvas 545 655 1617 472 hud-settings 0;
#X msg 20 40 click 1;
#X obj 20 20 loadbang;
#X obj 483 128 r \$0-powerofficon-s;
#X obj 20 70 s \$0-hearticon-r;
#X text 82 20 Makes the icon clickable;
#X obj 127 70 s \$0-poweronicon-r;
#X obj 246 70 s \$0-powerofficon-r;
#X obj 483 319 s \$0-powerofficon-r;
#X obj 698 232 del 500;
#X obj 530 205 bng 16 250 50 0 \$0-disconnect null-r DISCONNECT -20
-9 0 10 #ff8080 #0000a0 #000000;
#X obj 95 204 bng 16 250 50 0 \$0-reconnect null-r CONNECT -13 -9 0
10 #80ff80 #0000a0 #000000;
#X obj 911 207 bng 16 250 50 0 \$0-like null-r +1 0 -9 0 10 #0080ff
#0000a0 #000000;
#X obj 483 205 bng 15 250 50 0 empty empty empty 17 7 0 10 #fcfcfc
#000000 #000000;
#X obj 462 171 gate;
#X obj 505 171 tgl 15 0 empty empty empty 17 7 0 10 #fcfcfc #000000
#000000 1 1;
#X msg 562 170 1;
#X obj 592 169 loadbang;
#X msg 529 170 0;
#X obj 698 232 del 500;
#X obj 698 293 bng 15 250 50 0 empty empty empty 17 7 0 10 #fcfcfc
#000000 #000000;
#X obj 698 313 del 10;
#X obj 888 208 bng 15 250 50 0 empty empty empty 17 7 0 10 #fcfcfc
#000000 #000000;
#X obj 867 174 gate;
#X obj 910 174 tgl 15 0 empty empty empty 17 7 0 10 #fcfcfc #000000
#000000 1 1;
#X msg 967 173 1;
#X obj 997 172 loadbang;
#X msg 934 173 0;
#X obj 1143 296 bng 15 250 50 0 empty empty empty 17 7 0 10 #fcfcfc
#000000 #000000;
#X obj 1143 316 del 10;
#X obj 888 322 s \$0-hearticon-r;
#X obj 888 131 r \$0-hearticon-s;
#X obj 287 232 del 500;
#X obj 62 205 bng 15 250 50 0 empty empty empty 17 7 0 10 #fcfcfc #000000
#000000;
#X obj 41 171 gate;
#X obj 84 171 tgl 15 0 empty empty empty 17 7 0 10 #fcfcfc #000000
#000000 1 1;
#X msg 141 170 1;
#X obj 171 169 loadbang;
#X msg 108 170 0;
#X obj 287 232 del 500;
#X obj 287 293 bng 15 250 50 0 empty empty empty 17 7 0 10 #fcfcfc
#000000 #000000;
#X obj 287 313 del 10;
#X obj 62 319 s \$0-poweronicon-r;
#X obj 62 128 r \$0-poweronicon-s;
#X obj 1143 235 del 800;
#X obj 1376 340 s \$0-gear-r;
#X obj 1336 172 bng 15 250 50 0 empty empty empty 17 7 0 10 #fcfcfc
#000000 #000000;
#X obj 1315 138 gate;
#X obj 1358 138 tgl 15 0 empty empty empty 17 7 0 10 #fcfcfc #000000
#000000 1 1;
#X msg 1415 137 1;
#X obj 1445 136 loadbang;
#X msg 1382 137 0;
#X obj 1531 260 bng 15 250 50 0 empty empty empty 17 7 0 10 #fcfcfc
#000000 #000000;
#X obj 1531 280 del 10;
#X msg 1376 292 set \$1;
#X floatatom 1376 252 5 0 0 0 - - - 0, f 5;
#X obj 1336 212 tgl 15 0 empty empty empty 17 7 0 10 #fcfcfc #000000
#000000 0 1;
#X msg 1336 192 1;
#X msg 1531 235 0;
#X msg 1486 313 rotate 0 10 10;
#X obj 1356 111 bng 15 250 50 0 empty empty empty 17 7 0 10 #fcfcfc
#000000 #000000;
#X obj 1531 199 del 1000;
#X msg 1376 313 rotate \$1 16 16;
#X obj 1376 272 + 10;
#X obj 1266 84 r \$0-gear-s;
#X obj 1336 229 metro 60;
#X msg 62 232 open ./ui-images/poweronclick.png;
#X msg 287 268 open ./ui-images/poweron.png;
#X msg 1143 271 open ./ui-images/pixelheart1.png;
#X msg 888 235 open ./ui-images/pixelheart-animation.gif;
#X msg 698 268 open ./ui-images/poweroff.png;
#X msg 483 232 open ./ui-images/poweroffclick.png;
#X connect 1 0 0 0;
#X connect 2 0 13 1;
#X connect 2 0 17 0;
#X connect 8 0 69 0;
#X connect 12 0 70 0;
#X connect 12 0 8 0;
#X connect 13 0 12 0;
#X connect 13 0 9 0;
#X connect 14 0 13 0;
#X connect 15 0 14 0;
#X connect 16 0 15 0;
#X connect 17 0 14 0;
#X connect 19 0 20 0;
#X connect 20 0 15 0;
#X connect 21 0 68 0;
#X connect 21 0 43 0;
#X connect 22 0 21 0;
#X connect 22 0 11 0;
#X connect 23 0 22 0;
#X connect 24 0 23 0;
#X connect 25 0 24 0;
#X connect 26 0 23 0;
#X connect 27 0 28 0;
#X connect 28 0 24 0;
#X connect 30 0 22 1;
#X connect 30 0 26 0;
#X connect 31 0 66 0;
#X connect 32 0 65 0;
#X connect 32 0 31 0;
#X connect 33 0 32 0;
#X connect 33 0 10 0;
#X connect 34 0 33 0;
#X connect 35 0 34 0;
#X connect 36 0 35 0;
#X connect 37 0 34 0;
#X connect 39 0 40 0;
#X connect 40 0 35 0;
#X connect 42 0 33 1;
#X connect 42 0 37 0;
#X connect 43 0 67 0;
#X connect 45 0 56 0;
#X connect 45 0 60 0;
#X connect 46 0 45 0;
#X connect 47 0 46 0;
#X connect 48 0 47 0;
#X connect 49 0 48 0;
#X connect 50 0 47 0;
#X connect 51 0 52 0;
#X connect 51 0 58 0;
#X connect 52 0 48 0;
#X connect 53 0 54 0;
#X connect 54 0 61 0;
#X connect 54 0 62 0;
#X connect 55 0 64 0;
#X connect 56 0 55 0;
#X connect 57 0 51 0;
#X connect 57 0 55 0;
#X connect 57 0 54 0;
#X connect 58 0 44 0;
#X connect 60 0 57 0;
#X connect 61 0 44 0;
#X connect 62 0 53 0;
#X connect 63 0 59 0;
#X connect 63 0 46 1;
#X connect 64 0 54 0;
#X connect 65 0 41 0;
#X connect 66 0 39 0;
#X connect 66 0 41 0;
#X connect 67 0 27 0;
#X connect 67 0 29 0;
#X connect 68 0 29 0;
#X connect 69 0 7 0;
#X connect 69 0 19 0;
#X connect 70 0 7 0;
#X restore 15 116 pd hud-settings;
#X obj 19 147 ggee/image ./ui-images/pixeljams.gif 0 0 32 32 empty
empty empty 32 32 1 0 10 #000000 0 -8 16 16 0 1 1;
#N canvas 92 478 1519 771 audio-engine 0;
#X obj 124 428 cnv 15 8 8 empty empty Select\ Channel 24 6 0 10 #ffffff
#00ffff 0;
#X obj 30 17 r \$0-instruments;
#X obj 30 324 s \$0-writei1wt;
#X obj 130 324 s \$0-writei1env;
#X obj 334 324 s \$0-instr1notes;
#X obj 230 324 s \$0-instr1nd-r;
#X obj 395 18 tosymbol;
#X symbolatom 395 43 31 0 0 0 - - - 0, f 31;
#X obj 9 390 tgl 15 0 empty empty empty 17 7 0 10 #fcfcfc #000000 #000000
1 1;
#X text 29 389 Channel 1;
#X obj 9 362 r \$0-ch1toggle;
#X obj 30 42 route %instr1% %instr2% %instr3% %instr4% %instr5% %instr6%
;
#X obj 189 390 tgl 15 0 empty empty empty 17 7 0 10 #fcfcfc #000000
#000000 0 1;
#X text 209 389 Channel 2;
#X obj 189 362 r \$0-ch2toggle;
#X obj 88 278 s \$0-writei2wt;
#X obj 188 278 s \$0-writei2env;
#X obj 288 278 s \$0-instr2nd-r;
#X obj 392 278 s \$0-instr2notes;
#X obj 147 231 s \$0-writei3wt;
#X obj 247 231 s \$0-writei3env;
#X obj 347 231 s \$0-instr3nd-r;
#X obj 451 231 s \$0-instr3notes;
#X obj 205 184 s \$0-writei4wt;
#X obj 305 184 s \$0-writei4env;
#X obj 405 184 s \$0-instr4nd-r;
#X obj 509 184 s \$0-instr4notes;
#X obj 264 138 s \$0-writei5wt;
#X obj 364 138 s \$0-writei5env;
#X obj 464 138 s \$0-instr5nd-r;
#X obj 568 138 s \$0-instr5notes;
#X obj 322 94 s \$0-writei6wt;
#X obj 422 94 s \$0-writei6env;
#X obj 522 94 s \$0-instr6nd-r;
#X obj 626 94 s \$0-instr6notes;
#X obj 369 390 tgl 15 0 empty empty empty 17 7 0 10 #fcfcfc #000000
#000000 0 1;
#X obj 549 390 tgl 15 0 empty empty empty 17 7 0 10 #fcfcfc #000000
#000000 0 1;
#X obj 729 390 tgl 15 0 empty empty empty 17 7 0 10 #fcfcfc #000000
#000000 0 1;
#X obj 908 390 tgl 15 0 empty empty empty 17 7 0 10 #fcfcfc #000000
#000000 0 1;
#X text 389 389 Channel 3;
#X text 569 389 Channel 4;
#X text 749 389 Channel 5;
#X text 928 389 Channel 6;
#X obj 908 362 r \$0-ch6toggle;
#X obj 729 362 r \$0-ch5toggle;
#X obj 549 362 r \$0-ch4toggle;
#X obj 369 362 r \$0-ch3toggle;
#X obj 455 18 text define -k midi-shortcuts;
#A set 122 60 \; 115 61 \; 120 62 \; 100 63 \; 99 64 \; 118 65 \; 103
66 \; 98 67 \; 104 68 \; 110 69 \; 106 70 \; 109 71 \; 44 72 \; 113
72 \; 50 73 \; 119 74 \; 51 75 \; 101 76 \; 114 77 \; 53 78 \; 116
79 \; 54 80 \; 121 81 \; 55 82 \; 117 83 \; 105 84 \;;
#X text 637 18 Key -> note translation for typing midi notes
;
#X obj 49 428 hradio 15 0 0 6 \$0-channeltoggle r-null empty 0 -8 0
10 #fcfcfc #000000 #000000 0;
#X obj 1106 71 r \$0-channeltoggle;
#X obj 1106 231 s \$0-ch1toggle;
#X obj 1120 201 s \$0-ch2toggle;
#X obj 1135 171 s \$0-ch3toggle;
#X obj 1206 231 s \$0-ch4toggle;
#X obj 1220 201 s \$0-ch5toggle;
#X obj 1230 171 s \$0-ch6toggle;
#X msg 1106 122 1;
#X msg 1136 122 0;
#X msg 1166 122 1;
#X msg 1196 122 0;
#X msg 1226 122 1;
#X msg 1256 122 0;
#X msg 1286 122 1;
#X msg 1316 122 0;
#X msg 1346 122 1;
#X msg 1376 122 0;
#X msg 1406 122 1;
#X msg 1436 122 0;
#X obj 1106 96 sel 0 1 2 3 4 5;
#X obj 1229 50 loadbang;
#X msg 1229 71 0;
#X text 1105 444 \$1 - instr note send   \;   \$2 - write to wavetable receive name  
\;   \$3 - write to envelope receive name   \;   \$4 - note duration recieve  
\;   \$5 - wavetable server channel   \;   \$6 - envelope server channel  
\;   \$7 - note duration server channel   \;   \$8 - note channel  
\;   \$9 - %instr#%   \,     instrument specific server channel  
\;   \$10 - \$0-toserver   \;   \$11 - fx channel  
\;    \$12 - \$0-tick   \;  ;
#X obj 441 324 s \$0-instr1fx;
#X text 1105 397 wavetablesynth \$0-instr1notes \$0-writei1wt \$0-writei1env \$0-instr1nd-r %instr1wt% %instr1env% %instr1nd% %instr1notes% %instr1% \$0-toserver \$0-instr1fx \$0-tick
;
#X obj 30 300 route %instr1wt% %instr1env% %instr1nd% %instr1notes%
%instr1fx%, f 64;
#X obj 88 254 route %instr2wt% %instr2env% %instr2nd% %instr2notes%
%instr2fx%, f 64;
#X obj 147 207 route %instr3wt% %instr3env% %instr3nd% %instr3notes%
%instr3fx%, f 64;
#X obj 205 160 route %instr4wt% %instr4env% %instr4nd% %instr4notes%
%instr4fx%, f 64;
#X obj 264 114 route %instr5wt% %instr5env% %instr5nd% %instr5notes%
%instr5fx%, f 64;
#X obj 322 70 route %instr6wt% %instr6env% %instr6nd% %instr6notes%
%instr6fx%, f 64;
#X obj 499 278 s \$0-instr2fx;
#X obj 558 231 s \$0-instr3fx;
#X obj 616 184 s \$0-instr4fx;
#X obj 676 138 s \$0-instr5fx;
#X obj 734 94 s \$0-instr6fx;
#N canvas 1609 787 450 300 tickmaster 0;
#X obj 26 136 s \$0-tick;
#X obj 26 25 bng 15 250 50 0 empty empty empty 17 7 0 10 #fcfcfc #000000
#000000;
#X text 45 24 Debug tick;
#X obj 126 46 metro 150;
#X obj 126 24 tgl 15 0 empty empty empty 17 7 0 10 #fcfcfc #000000
#000000 0 1;
#X connect 1 0 0 0;
#X connect 3 0 0 0;
#X connect 4 0 3 0;
#X restore 892 70 pd tickmaster;
#X obj 848 263 s \$0-instr1nd-r;
#X floatatom 841 221 5 0 0 0 - - - 0, f 5;
#X obj 9 457 ./pd-dependencies/wavetablesynth \$0-instr1notes \$0-writei1wt
\$0-writei1env \$0-instr1nd-r %instr1wt% %instr1env% %instr1nd% %instr1notes%
%instr1% \$0-toserver \$0-instr1fx \$0-tick;
#X obj 189 457 ./pd-dependencies/wavetablesynth \$0-instr2notes \$0-writei2wt
\$0-writei2env \$0-instr2nd-r %instr2wt% %instr2env% %instr2nd% %instr2notes%
%instr2% \$0-toserver \$0-instr2fx \$0-tick;
#X obj 369 457 ./pd-dependencies/wavetablesynth \$0-instr3notes \$0-writei3wt
\$0-writei3env \$0-instr3nd-r %instr3wt% %instr3env% %instr3nd% %instr3notes%
%instr3% \$0-toserver \$0-instr3fx \$0-tick;
#X obj 549 457 ./pd-dependencies/wavetablesynth \$0-instr4notes \$0-writei4wt
\$0-writei4env \$0-instr4nd-r %instr4wt% %instr4env% %instr4nd% %instr4notes%
%instr4% \$0-toserver \$0-instr4fx \$0-tick;
#X obj 729 457 ./pd-dependencies/wavetablesynth \$0-instr5notes \$0-writei5wt
\$0-writei5env \$0-instr5nd-r %instr5wt% %instr5env% %instr5nd% %instr5notes%
%instr5% \$0-toserver \$0-instr5fx \$0-tick;
#X obj 908 457 ./pd-dependencies/wavetablesynth \$0-instr6notes \$0-writei6wt
\$0-writei6env \$0-instr6nd-r %instr6wt% %instr6env% %instr6nd% %instr6notes%
%instr6% \$0-toserver \$0-instr6fx \$0-tick;
#X connect 1 0 6 0;
#X connect 1 0 11 0;
#X connect 6 0 7 0;
#X connect 8 0 89 0;
#X connect 10 0 8 0;
#X connect 11 0 75 0;
#X connect 11 1 76 0;
#X connect 11 2 77 0;
#X connect 11 3 78 0;
#X connect 11 4 79 0;
#X connect 11 5 80 0;
#X connect 12 0 90 0;
#X connect 14 0 12 0;
#X connect 35 0 91 0;
#X connect 36 0 92 0;
#X connect 37 0 93 0;
#X connect 38 0 94 0;
#X connect 43 0 38 0;
#X connect 44 0 37 0;
#X connect 45 0 36 0;
#X connect 46 0 35 0;
#X connect 50 0 69 0;
#X connect 57 0 51 0;
#X connect 58 0 52 0;
#X connect 58 0 54 0;
#X connect 58 0 56 0;
#X connect 58 0 55 0;
#X connect 58 0 53 0;
#X connect 59 0 52 0;
#X connect 60 0 53 0;
#X connect 60 0 51 0;
#X connect 60 0 55 0;
#X connect 60 0 54 0;
#X connect 60 0 56 0;
#X connect 61 0 53 0;
#X connect 62 0 56 0;
#X connect 62 0 52 0;
#X connect 62 0 51 0;
#X connect 62 0 55 0;
#X connect 62 0 54 0;
#X connect 63 0 54 0;
#X connect 64 0 56 0;
#X connect 64 0 55 0;
#X connect 64 0 53 0;
#X connect 64 0 52 0;
#X connect 64 0 51 0;
#X connect 65 0 55 0;
#X connect 66 0 56 0;
#X connect 66 0 54 0;
#X connect 66 0 53 0;
#X connect 66 0 52 0;
#X connect 66 0 51 0;
#X connect 67 0 56 0;
#X connect 68 0 55 0;
#X connect 68 0 54 0;
#X connect 68 0 53 0;
#X connect 68 0 52 0;
#X connect 68 0 51 0;
#X connect 69 0 57 0;
#X connect 69 0 58 0;
#X connect 69 1 59 0;
#X connect 69 1 60 0;
#X connect 69 2 61 0;
#X connect 69 2 62 0;
#X connect 69 3 63 0;
#X connect 69 3 64 0;
#X connect 69 4 65 0;
#X connect 69 4 66 0;
#X connect 69 5 67 0;
#X connect 69 5 68 0;
#X connect 70 0 71 0;
#X connect 71 0 69 0;
#X connect 75 0 2 0;
#X connect 75 1 3 0;
#X connect 75 2 5 0;
#X connect 75 3 4 0;
#X connect 75 4 73 0;
#X connect 76 0 15 0;
#X connect 76 1 16 0;
#X connect 76 2 17 0;
#X connect 76 3 18 0;
#X connect 76 4 81 0;
#X connect 77 0 19 0;
#X connect 77 1 20 0;
#X connect 77 2 21 0;
#X connect 77 3 22 0;
#X connect 77 4 82 0;
#X connect 78 0 23 0;
#X connect 78 1 24 0;
#X connect 78 2 25 0;
#X connect 78 3 26 0;
#X connect 78 4 83 0;
#X connect 79 0 27 0;
#X connect 79 1 28 0;
#X connect 79 2 29 0;
#X connect 79 3 30 0;
#X connect 79 4 84 0;
#X connect 80 0 31 0;
#X connect 80 1 32 0;
#X connect 80 2 33 0;
#X connect 80 3 34 0;
#X connect 80 4 85 0;
#X connect 88 0 87 0;
#X coords 0 -1 1 1 1079 334 2 5 413;
#X restore 15 141 pd audio-engine;
#N canvas 1048 615 464 558 storefront 0;
#X obj -15 -1 ggee/image ./ui-images/neonstoreportrait.gif 0 0 465
558 empty empty empty 465 558 1 0 10 #000000 0 -8 100 120 0 1 1;
#X obj 268 15 cnv 15 8 8 empty empty Current\ points 43 6 0 10 #e0e0e0
#ffffff 0;
#X obj 268 15 cnv 15 8 8 empty empty Buy\ weird\ chat\ stuff\ with\ likes!
-246 7 0 10 #e0e0e0 #ffffff 0;
#X obj 20 236 cnv 15 8 8 empty empty Cancel\ out\ other\ purchases\ by\ purchasing\ something\ else.
1 54 0 10 #e0e0e0 #ffffff 0;
#X obj 20 236 cnv 15 8 8 empty empty 5p\ -\ Censor\ the\ next\ 2\ messages
22 6 0 10 #e0e0e0 #ffffff 0;
#X obj 20 176 cnv 15 8 8 empty empty 5p\ -\ Turn\ the\ next\ 3\ messages\ into\ a\ drunken\ stupor
22 6 0 10 #e0e0e0 #ffffff 0;
#X obj 20 117 cnv 15 8 8 empty empty 10p\ -\ Make\ the\ next\ message\ an\ announcement
22 6 0 10 #e0e0e0 #ffffff 0;
#X obj 20 117 cnv 15 8 8 empty empty (unaffected\ by\ other\ effects)
55 17 0 10 #e0e0e0 #ffffff 0;
#X obj 20 58 cnv 15 8 8 empty empty 5p\ -\ Replace\ some\ words\ in\ the\ next\ 4\ messages\ randomly
22 6 0 10 #e0e0e0 #ffffff 0;
#X floatatom 267 15 5 0 0 0 - #0-setpoint null-setpoint 0, f 5;
#X obj 20 58 bng 15 250 50 0 \$0-selrt \$0-rtbng empty 17 7 0 10 #28f4f4
#000000 #000000;
#X obj 20 117 bng 15 250 50 0 \$0-selan \$0-anbng empty 17 7 0 10 #28f4f4
#000000 #000000;
#X obj 20 176 bng 15 250 50 0 \$0-selsc \$0-scbng empty 17 7 0 10 #28f4f4
#000000 #000000;
#X obj 20 236 bng 15 250 50 0 \$0-selce \$0-cebng empty 17 7 0 10 #28f4f4
#000000 #000000;
#X restore 105 15 pd storefront;
#N canvas 649 666 242 95 options 0;
#X obj 16 53 tgl 23 0 \$0-ococ null-ococ empty 17 7 0 10 #fcfcfc #000000
#000000 0 1;
#X text 51 21 User Options;
#X text 50 55 Open Chat History on Connect;
#X obj 12 14 ggee/image ./ui-images/gear.png 0 0 32 32 empty empty
empty 32 32 1 0 10 #000000 0 -8 16 16 0 1 1;
#X coords 0 0 1 1 32 32 0;
#X scroll 1;
#X restore 122 40 pd options;
#X coords 0 -1 1 1 1079 334 2 15 141;
#X restore 881 22 pd logic-systems;
#X obj 69 241 ggee/image ./ui-images/pixelheart1.png 1 1 32 32 empty
empty empty 32 32 1 0 10 #000000 0 -8 16 16 0 1 1;
#X obj 12 62 ggee/image ./ui-images/poweron.png 0 1 25 25 empty empty
empty 25 25 1 0 10 #000000 0 -8 12.5 12.5 0 1 1;
#X obj 39 62 ggee/image ./ui-images/poweroff.png 0 1 25 25 empty empty
empty 25 25 1 0 10 #000000 0 -8 12.5 12.5 0 1 1;
#X obj 19 218 cnv 15 8 8 empty empty Most\ Recent\ Message -3 -11 0
14 #e0e0e0 #ffffff 0;
#X obj 19 128 cnv 15 8 8 empty empty Username -3 -11 0 14 #e0e0e0 #ffffff
0;
#X obj 19 165 cnv 15 8 8 empty empty Chat -3 -11 0 14 #e0e0e0 #ffffff
0;
#X symbolatom 19 218 115 0 0 2 - #0-tochat null 0, f 115;
#X symbolatom 19 165 115 0 0 2 - #0-chat-r #0-chat-s 1, f 115;
#X obj 15 35 cnv 15 8 8 empty empty Hostname -3 -11 0 14 #e0e0e0 #ffffff
0;
#X symbolatom 19 128 115 0 0 2 - #0-username-r #0-username 1, f 115
;
#N canvas 45 350 441 244 gear 0;
#X obj 10 31 ggee/image ./ui-images/gear.png 0 1 32 32 1003-gear-s
1003-gear-r empty 32 32 1 0 10 #000000 0 -8 16 16 0 1 1;
#X obj 10 71 s \$0-gear-s;
#X obj 10 5 r \$0-gear-r;
#X msg 91 199 \; pd-options vis \$1;
#X obj 85 71 bng 15 250 50 0 empty empty empty 17 7 0 10 #fcfcfc #000000
#000000;
#X obj 91 177 gate;
#X text 121 178 Prevents menu from repeatedly opening and closing
;
#X msg 112 124 1;
#X obj 85 94 t b b;
#X msg 67 153 1;
#X msg 37 153 0;
#X obj 37 130 del 1000;
#X text 104 71 Opens options menu when double-clicked;
#X connect 0 0 1 0;
#X connect 0 0 4 0;
#X connect 2 0 0 0;
#X connect 4 0 8 0;
#X connect 5 0 3 0;
#X connect 7 0 5 1;
#X connect 8 0 9 0;
#X connect 8 1 7 0;
#X connect 8 1 11 0;
#X connect 9 0 5 0;
#X connect 10 0 5 0;
#X connect 11 0 10 0;
#X coords 0 -1 1 1 32 32 2 10 31;
#X restore 65 59 pd gear;
#X obj 45 391 cnv 15 8 8 empty empty Double-click\ to\ open\ the\ shop!
-29 -16 0 10 #ffffff #00ffff 0;
#X obj 15 35 cnv 15 8 8 empty empty Double-click\ to\ open\ options
83 25 0 10 #ffffff #00ffff 0;
#N canvas 1047 518 450 325 shop-icon 0;
#X obj 61 154 bng 15 250 50 0 empty empty empty 17 7 0 10 #fcfcfc #000000
#000000;
#X obj 67 260 gate;
#X msg 88 207 1;
#X obj 61 177 t b b;
#X msg 43 236 1;
#X msg 13 236 0;
#X obj 13 213 del 1000;
#X obj 61 13 ggee/image ./ui-images/spacestore.gif 0 1 128 128 empty
empty empty 128 128 1 0 10 #000000 0 -8 64 64 0 1 1;
#X text 97 261 Prevents shop from repeatedly opening and closing
;
#X text 80 154 Opens shop when double-clicked;
#X msg 67 282 \; pd-storefront vis \$1;
#X connect 0 0 3 0;
#X connect 1 0 10 0;
#X connect 2 0 1 1;
#X connect 3 0 4 0;
#X connect 3 1 2 0;
#X connect 3 1 6 0;
#X connect 4 0 1 0;
#X connect 5 0 1 0;
#X connect 6 0 5 0;
#X connect 7 0 0 0;
#X coords 0 -1 1 1 128 128 2 61 13;
#X restore 16 384 pd shop-icon;
#X symbolatom 15 35 37 0 0 2 - #0-hostname-r #0-hostname-s 0, f 37
;
#X connect 0 0 10 0;
#X connect 2 0 11 0;
#X connect 3 0 12 0;
#X connect 10 0 1 0;
#X connect 11 0 4 0;
#X connect 12 0 5 0;
