#N canvas 0 23 1440 757 10;
#X obj 69 224 r \$0-hearticon-r;
#X obj 69 273 s \$0-hearticon-s;
#X obj 12 45 r \$0-poweronicon-r;
#X obj 39 45 r \$0-powerofficon-r;
#X obj 12 87 s \$0-poweronicon-s;
#X obj 39 87 s \$0-powerofficon-s;
#X obj 0 -1 ggee/image ui-images/neonshiplicious.png 0 0 1970 526 empty
empty empty 1970 526 1 0 10 #000000 0 -8 544 145.5 0 1 1;
#X symbolatom 19 250 7 0 0 2 - #0-numdisp null 0 0, f 7;
#X obj 129 251 bng 15 250 50 0 \$0-openfullchat \$0-openfullchat-r
Open\ Chat -20 -9 0 10 #0080c0 #0000a0 #ffffff;
#N canvas 199 693 1115 495 logic-systems 0;
#N canvas 609 658 1287 605 connect-logic 0;
#X text 662 19 initiates connection;
#X obj 858 178 r \$0-hostname-s;
#X obj 799 101 t b b b;
#X obj 747 48 gate 1 1;
#X obj 747 73 t b b 0;
#X msg 647 70 1;
#X obj 647 49 delay 1000;
#X text 815 47 avoid spamming connect request (only 1 per second).
also addresses weird timing issues during init if the spam is allowed.
, f 45;
#X obj 818 156 delay 250;
#X obj 818 222 lister;
#X obj 858 200 s2l :;
#X msg 818 332 connect \$1 \$2;
#X obj 875 285 sel 0;
#X obj 818 243 unpack s 0;
#X obj 818 178 t b b;
#X obj 818 310 pack s 0;
#X obj 1092 69 loadbang;
#X obj 1092 111 tosymbol;
#X obj 1092 174 s \$0-hostname-r;
#X text 1093 47 default hostname setting;
#X obj 29 131 keyname;
#X obj 68 156 sel ShiftCtrlF12;
#X obj 29 156 sel 1;
#X obj 29 204 f;
#X msg 68 177 1;
#X msg 161 177 0;
#X obj 29 225 sel 1;
#X obj 29 246 bng 15 250 50 0 empty empty empty 17 7 0 10 #fcfcfc #000000
#000000;
#X text 57 204 use Shift+Ctrl+F12 to disconnect;
#X obj 792 20 r \$0-reconnect;
#X obj 838 123 s \$0-disconnect;
#X obj 388 109 r \$0-disconnect;
#X msg 343 443 disconnect;
#X obj 29 273 s \$0-disconnect;
#X obj 343 170 t b b;
#X symbolatom 457 261 18 0 0 0 - - - 0 0, f 18;
#X obj 370 196 bng 15 250 50 0 empty empty empty 17 7 0 10 #fcfcfc
#000000 #000000;
#X obj 343 144 gate 1 0;
#X obj 343 57 r \$0-connected;
#X obj 343 93 tgl 35 0 empty empty empty 17 7 0 10 #fcfcfc #000000
#000000 0 1;
#X obj 412 407 s \$0-toserver;
#X msg 412 384 send disconnect \$1;
#X obj 412 360 gate 1 0;
#X obj 397 263 delay 10;
#X obj 365 318 tgl 34 0 empty empty empty 17 7 0 10 #fcfcfc #000000
#000000 0 1;
#X msg 365 263 1;
#X msg 397 291 0;
#X obj 370 219 t b b;
#X obj 457 237 r \$0-username-r;
#X obj 818 368 s \$0-connect-to-server;
#X obj 343 473 s \$0-connect-to-server;
#X text 388 87 Connect/disconnect message logic, f 35;
#X text 467 282 Default Username to avoid weird chat things, f 37
;
#X text 923 243 default port. allows for ip to be entered without specifying
port., f 34;
#X msg 1092 90 localhost;
#X text 896 200 splits name into ip and port if specified, f 32;
#X msg 887 243 3001;
#X connect 1 0 10 0;
#X connect 2 1 8 0;
#X connect 2 2 30 0;
#X connect 3 0 4 0;
#X connect 4 0 6 0;
#X connect 4 1 2 0;
#X connect 4 2 3 0;
#X connect 5 0 3 0;
#X connect 6 0 5 0;
#X connect 8 0 14 0;
#X connect 9 0 13 0;
#X connect 10 0 9 1;
#X connect 11 0 49 0;
#X connect 12 1 15 1;
#X connect 13 0 15 0;
#X connect 13 1 12 0;
#X connect 14 0 9 0;
#X connect 14 1 56 0;
#X connect 15 0 11 0;
#X connect 16 0 54 0;
#X connect 17 0 18 0;
#X connect 20 0 22 0;
#X connect 20 1 21 0;
#X connect 21 0 24 0;
#X connect 21 1 25 0;
#X connect 22 0 23 0;
#X connect 23 0 26 0;
#X connect 24 0 23 1;
#X connect 25 0 23 1;
#X connect 26 0 27 0;
#X connect 27 0 33 0;
#X connect 29 0 3 1;
#X connect 31 0 37 1;
#X connect 32 0 50 0;
#X connect 34 0 32 0;
#X connect 34 1 36 0;
#X connect 35 0 42 1;
#X connect 36 0 47 0;
#X connect 37 0 34 0;
#X connect 38 0 39 0;
#X connect 39 0 37 0;
#X connect 41 0 40 0;
#X connect 42 0 41 0;
#X connect 43 0 46 0;
#X connect 44 0 42 0;
#X connect 45 0 44 0;
#X connect 46 0 44 0;
#X connect 47 0 35 0;
#X connect 47 1 45 0;
#X connect 47 1 43 0;
#X connect 48 0 35 0;
#X connect 54 0 17 0;
#X connect 56 0 12 0;
#X restore 15 40 pd connect-logic;
#N canvas 265 503 1211 790 chat-logic 0;
#X obj 23 40 loadbang;
#X obj 23 206 s \$0-chat-r;
#X obj 23 110 tosymbol;
#X obj 23 132 list prepend set;
#X obj 23 154 list trim;
#X msg 23 62 Click here to chat while online. Press return to send.
, f 32;
#X obj 313 41 r \$0-chat-s;
#X obj 19 236 loadbang;
#X obj 19 306 tosymbol;
#X obj 19 328 list prepend set;
#X obj 19 350 list trim;
#X obj 1074 16 loadbang;
#X obj 978 95 tosymbol;
#X msg 1074 69 separator _;
#X symbolatom 978 120 0 0 0 0 - - - 0 0;
#X obj 978 50 s2l;
#X text 976 145 Replace spaces with _ for usernames \; (No longer
needed);
#X msg 19 258 Type Your Username Here, f 32;
#X obj 313 101 route;
#X symbolatom 340 175 30 0 0 0 - - - 0 0, f 30;
#X obj 593 98 route;
#X symbolatom 620 172 30 0 0 0 - - - 0 0, f 30;
#X obj 582 139 bng 15 250 50 0 empty empty empty 17 7 0 10 #fcfcfc
#000000 #000000;
#X obj 596 22 loadbang;
#X msg 679 115 symbol Default-Username;
#X msg 402 119 symbol Default-Message;
#X obj 596 48 t b b;
#X obj 408 42 r \$0-username;
#X obj 620 237 s \$0-username-r;
#X obj 340 389 s \$0-chat-out;
#X obj 19 402 s \$0-username-r;
#X obj 978 15 r \$0-username;
#X obj 19 589 s \$0-tochat;
#X obj 19 442 loadbang;
#X obj 19 512 tosymbol;
#X obj 19 534 list prepend set;
#X obj 19 556 list trim;
#X msg 19 464 This is the chat box! Messages will appear here when
you are connected to a server., f 32;
#X obj 18 617 loadbang;
#X obj 18 666 tosymbol;
#X obj 18 690 list trim;
#X obj 18 717 s \$0-numlikes;
#X obj 992 332 r \$0-like;
#X obj 992 369 t b b;
#X obj 974 431 gate 1 0;
#X msg 1041 400 0;
#X obj 1108 432 tgl 32 0 empty empty empty 17 7 0 10 #fcfcfc #000000
#000000 0 1;
#X msg 1108 400 1;
#X obj 552 565 text define -k chat-history;
#A set;
#X obj 1108 343 r \$0-likeallow;
#X msg 974 460 send like 1;
#X obj 974 515 s \$0-toserver;
#X obj 1041 366 loadbang;
#X obj 865 374 r \$0-numlikes;
#X obj 865 396 list prepend +;
#X obj 865 420 list trim;
#X obj 865 441 tosymbol;
#X obj 865 466 s \$0-numdisp;
#X obj 555 486 text insert chat-history;
#X msg 652 440 1e+09;
#X obj 652 416 loadbang;
#X obj 496 217 sprintf %s:;
#X obj 340 239 list prepend;
#X obj 340 264 list prepend chat;
#X obj 340 289 list prepend send;
#X obj 340 314 list trim;
#X text 556 395 Chat history;
#X text 312 10 Chat-sending logic;
#X text 24 10 Default Messages;
#X text 866 329 Like / +1 system;
#X obj 352 340 tosymbol;
#X symbolatom 352 364 50 0 0 0 - - - 0 0, f 50;
#X obj 551 645 text delete chat-history;
#X obj 551 593 loadbang;
#X msg 551 618 -1;
#X obj 555 440 r \$0-tohistory;
#X obj 468 259 tosymbol;
#X symbolatom 468 283 50 0 0 0 - - - 0 0, f 50;
#X msg 620 207 set \$1;
#X obj 552 514 r \$0-openfullchat;
#X msg 552 539 click;
#X msg 18 639 0, f 32;
#X connect 0 0 5 0;
#X connect 2 0 3 0;
#X connect 3 0 4 0;
#X connect 4 0 1 0;
#X connect 5 0 2 0;
#X connect 6 0 18 0;
#X connect 6 0 22 0;
#X connect 7 0 17 0;
#X connect 8 0 9 0;
#X connect 9 0 10 0;
#X connect 10 0 30 0;
#X connect 11 0 13 0;
#X connect 12 0 14 0;
#X connect 13 0 12 0;
#X connect 15 0 12 0;
#X connect 17 0 8 0;
#X connect 18 1 19 0;
#X connect 18 1 62 0;
#X connect 20 1 21 0;
#X connect 21 0 61 0;
#X connect 21 0 78 0;
#X connect 22 0 21 0;
#X connect 23 0 26 0;
#X connect 24 0 21 0;
#X connect 25 0 19 0;
#X connect 25 0 62 0;
#X connect 26 0 25 0;
#X connect 26 1 24 0;
#X connect 27 0 20 0;
#X connect 31 0 15 0;
#X connect 33 0 37 0;
#X connect 34 0 35 0;
#X connect 35 0 36 0;
#X connect 36 0 32 0;
#X connect 37 0 34 0;
#X connect 38 0 81 0;
#X connect 39 0 40 0;
#X connect 40 0 41 0;
#X connect 42 0 43 0;
#X connect 43 0 45 0;
#X connect 43 1 44 1;
#X connect 44 0 50 0;
#X connect 45 0 44 0;
#X connect 45 0 46 0;
#X connect 47 0 44 0;
#X connect 47 0 46 0;
#X connect 49 0 47 0;
#X connect 50 0 51 0;
#X connect 52 0 45 0;
#X connect 53 0 54 0;
#X connect 54 0 55 0;
#X connect 55 0 56 0;
#X connect 56 0 57 0;
#X connect 59 0 58 1;
#X connect 60 0 59 0;
#X connect 61 0 62 1;
#X connect 62 0 63 0;
#X connect 62 0 76 0;
#X connect 63 0 64 0;
#X connect 64 0 65 0;
#X connect 65 0 70 0;
#X connect 65 0 29 0;
#X connect 70 0 71 0;
#X connect 73 0 74 0;
#X connect 74 0 72 0;
#X connect 75 0 58 0;
#X connect 76 0 77 0;
#X connect 78 0 28 0;
#X connect 79 0 80 0;
#X connect 80 0 48 0;
#X connect 81 0 39 0;
#X restore 15 15 pd chat-logic;
#N canvas 191 403 606 432 client 0;
#X obj 16 90 netclient;
#X floatatom 83 116 5 0 0 0 - - - 0 0, f 5;
#X floatatom 16 221 5 0 0 0 - - - 0 0, f 5;
#X obj 62 211 print list;
#X obj 16 170 route float list;
#X obj 311 335 tosymbol;
#N canvas 290 597 1116 588 auth 0;
#X obj 221 132 bng 40 250 50 0 empty empty empty 17 7 0 10 #fcfcfc
#000000 #000000;
#X msg 221 185 send auth 2.3488e+06;
#X obj 423 72 bng 40 250 50 0 empty empty empty 17 7 0 10 #80ff80 #000000
#000000;
#X obj 595 70 bng 40 250 50 0 empty empty empty 17 7 0 10 #ff8080 #000000
#000000;
#X obj 595 150 print CONSOLE;
#X msg 595 123 Invalid authentication ... diconnecting;
#X obj 684 149 s \$0-disconnect;
#X msg 221 42 0;
#X msg 221 66 1;
#X obj 180 105 tgl 32 0 empty empty empty 17 7 0 10 #fcfcfc #000000
#000000 1 1;
#X obj 221 105 gate 0 1;
#X obj 37 32 r \$0-disconnect;
#X msg 423 123 Authenticated... welcome!;
#X obj 266 31 inlet;
#X obj 423 21 inlet;
#X obj 595 24 inlet;
#X obj 423 158 s \$0-authok;
#X obj 221 216 s \$0-sendauth;
#X obj 284 280 r \$0-chat-out;
#X obj 36 339 gate 1 0;
#X obj 169 339 gate 1 0;
#X obj 169 256 r \$0-disconnect;
#X msg 169 309 0;
#X msg 205 309 1;
#X obj 205 280 r \$0-authok;
#X obj 81 280 r \$0-sendauth;
#X obj 36 255 r \$0-connected;
#X obj 236 340 tgl 55 0 empty empty empty 17 7 0 10 #fcfcfc #000000
#000000 0 1;
#X obj 97 319 tgl 35 0 empty empty empty 17 7 0 10 #fcfcfc #000000
#000000 0 1;
#X obj 856 159 gate 1 0;
#X obj 856 108 tgl 35 0 empty empty empty 17 7 0 10 #fcfcfc #000000
#000000 0 1;
#X obj 856 10 r \$0-disconnect;
#X msg 856 63 0;
#X msg 892 63 1;
#X obj 266 60 s \$0-authproc;
#X obj 221 8 r \$0-authok;
#X obj 266 81 r \$0-authproc;
#X obj 892 37 r \$0-authproc;
#X obj 940 126 r \$0-authok;
#X msg 908 384 send connect \$1;
#X symbolatom 953 256 10 0 0 0 - - - 0 0, f 10;
#X obj 856 183 bng 15 250 50 0 empty empty empty 17 7 0 10 #fcfcfc
#000000 #000000;
#X obj 908 355 gate 1 0;
#X obj 851 313 tgl 34 0 empty empty empty 17 7 0 10 #fcfcfc #000000
#000000 0 1;
#X msg 851 258 1;
#X msg 883 286 0;
#X obj 883 258 delay 10;
#X obj 856 207 t b b;
#X obj 385 281 r \$0-authok;
#X obj 385 345 gate 1 0;
#X obj 480 308 tgl 37 0 empty empty empty 17 7 0 10 #fcfcfc #000000
#000000 0 1;
#X obj 385 386 s \$0-openfullchat-r;
#X obj 480 276 r \$0-ococ;
#X obj 953 229 r \$0-username-r;
#X obj 908 408 s \$0-connect-to-server;
#X obj 36 372 s \$0-connect-to-server;
#X connect 0 0 1 0;
#X connect 1 0 17 0;
#X connect 2 0 12 0;
#X connect 2 0 16 0;
#X connect 3 0 5 0;
#X connect 3 0 6 0;
#X connect 5 0 4 0;
#X connect 7 0 9 0;
#X connect 7 0 10 0;
#X connect 8 0 9 0;
#X connect 8 0 10 0;
#X connect 10 0 0 0;
#X connect 11 0 8 0;
#X connect 12 0 4 0;
#X connect 13 0 34 0;
#X connect 14 0 2 0;
#X connect 15 0 3 0;
#X connect 18 0 20 1;
#X connect 19 0 55 0;
#X connect 20 0 55 0;
#X connect 21 0 22 0;
#X connect 22 0 20 0;
#X connect 22 0 27 0;
#X connect 23 0 20 0;
#X connect 23 0 27 0;
#X connect 24 0 23 0;
#X connect 25 0 19 1;
#X connect 26 0 19 0;
#X connect 26 0 28 0;
#X connect 29 0 41 0;
#X connect 30 0 29 0;
#X connect 31 0 32 0;
#X connect 32 0 30 0;
#X connect 33 0 30 0;
#X connect 35 0 7 0;
#X connect 36 0 10 1;
#X connect 37 0 33 0;
#X connect 38 0 29 1;
#X connect 38 0 32 0;
#X connect 39 0 54 0;
#X connect 40 0 42 1;
#X connect 41 0 47 0;
#X connect 42 0 39 0;
#X connect 43 0 42 0;
#X connect 44 0 43 0;
#X connect 45 0 43 0;
#X connect 46 0 45 0;
#X connect 47 0 40 0;
#X connect 47 1 44 0;
#X connect 47 1 46 0;
#X connect 48 0 49 0;
#X connect 49 0 51 0;
#X connect 50 0 49 1;
#X connect 52 0 50 0;
#X connect 53 0 40 0;
#X restore 157 224 pd auth;
#X obj 83 140 s \$0-connected;
#X obj 61 36 r \$0-toserver;
#X obj 311 385 s \$0-tochat;
#X obj 387 358 bng 15 250 50 0 empty empty empty 17 7 0 10 #fcfcfc
#000000 #000000;
#X obj 387 385 s \$0-likeallow;
#X floatatom 362 271 5 0 0 0 - - - 0 0, f 5;
#X obj 362 306 s \$0-numlikes;
#X obj 361 221 loadbang;
#X msg 362 243 0;
#X obj 217 385 s \$0-tohistory;
#X obj 413 275 s \$0-pointincrement;
#X obj 465 245 s \$0-instruments;
#X obj 16 61 gate 1 0;
#X obj 16 10 r \$0-connected;
#X obj 80 61 r \$0-connect-to-server;
#X obj 157 187 route auth authok autherr chat like point %instruments%
%pattern%, f 69;
#X obj 516 218 s \$0-pattern;
#X connect 0 0 4 0;
#X connect 0 1 1 0;
#X connect 1 0 7 0;
#X connect 4 0 2 0;
#X connect 4 1 3 0;
#X connect 4 2 22 0;
#X connect 5 0 9 0;
#X connect 5 0 10 0;
#X connect 5 0 16 0;
#X connect 8 0 19 1;
#X connect 10 0 11 0;
#X connect 12 0 13 0;
#X connect 14 0 15 0;
#X connect 15 0 12 0;
#X connect 19 0 0 0;
#X connect 20 0 19 0;
#X connect 21 0 0 0;
#X connect 22 0 6 0;
#X connect 22 1 6 1;
#X connect 22 2 6 2;
#X connect 22 3 5 0;
#X connect 22 4 12 0;
#X connect 22 5 17 0;
#X connect 22 6 18 0;
#X connect 22 7 23 0;
#X restore 15 65 pd client;
#N canvas 55 499 1676 769 points-system 0;
#X obj 122 102 + 1;
#X floatatom 122 76 5 0 0 0 - - - 0 0, f 5;
#X floatatom 352 43 5 0 0 0 - - - 0 0, f 5;
#X msg 352 70 set \$1;
#X obj 122 102 + 1;
#X floatatom 122 76 5 0 0 0 - - - 0 0, f 5;
#X floatatom 352 43 5 0 0 0 - - - 0 0, f 5;
#X msg 352 70 set \$1;
#X obj 122 48 bng 15 250 50 0 empty empty empty 17 7 0 10 #fcfcfc #000000
#000000;
#X obj 122 20 r \$0-pointincrement;
#X text 390 46 # points;
#X obj 352 96 s \$0-setpoint;
#X obj 352 18 r \$0-numpoints;
#X obj 122 125 s \$0-numpoints;
#X obj 26 47 r \$0-setpoint;
#X obj 41 250 + 1;
#X floatatom 41 224 5 0 0 0 - - - 0 0, f 5;
#X floatatom 41 224 5 0 0 0 - - - 0 0, f 5;
#X obj 41 273 s \$0-numpoints;
#X obj 41 195 r \$0-setpoint;
#X text 158 47 Point incrementing \; +1 point per like;
#X obj 41 250 - 0;
#X msg 201 230 20;
#X obj 174 187 t b b;
#X obj 172 159 bng 15 250 50 0 empty empty empty 17 7 0 10 #fcfcfc
#000000 #000000;
#X text 665 20 Shop Items;
#X text 43 172 Money spender;
#X obj 741 21 text define -k itemcosts;
#A set randomtext 5 \; announcement 10 \; scramble 5 \; censor 5 \;
;
#X obj 574 297 bng 15 250 50 0 empty empty empty 17 7 0 10 #fcfcfc
#000000 #000000;
#X obj 558 206 text search itemcosts 0;
#X obj 558 272 text get itemcosts 1;
#X floatatom 558 318 5 0 0 0 - - - 0 0, f 5;
#X msg 748 87 symbol randomtext;
#X msg 981 87 symbol announcement;
#X msg 585 249 1;
#X obj 558 227 t f b;
#X msg 616 87 symbol doesntexist;
#X obj 558 342 s \$0-spend;
#X obj 558 183 r \$0-cost;
#X obj 748 178 s \$0-cost;
#X obj 366 179 r \$0-spend;
#X floatatom 351 155 5 0 0 0 - - - 0 0, f 5;
#X floatatom 351 155 5 0 0 0 - - - 0 0, f 5;
#X obj 351 129 r \$0-setpoint;
#X obj 332 196 bng 15 250 50 0 empty empty empty 17 7 0 10 #fcfcfc
#000000 #000000;
#X floatatom 351 262 5 0 0 0 - - - 0 0, f 5;
#X obj 322 339 -;
#X obj 366 285 r \$0-spend;
#X obj 351 308 *;
#X obj 322 361 s \$0-numpoints;
#X obj 351 239 >=;
#X floatatom 257 307 5 0 0 0 - - - 0 0, f 5;
#X floatatom 257 307 5 0 0 0 - - - 0 0, f 5;
#X obj 257 281 r \$0-setpoint;
#X obj 308 307 bng 15 250 50 0 empty empty empty 17 7 0 10 #fcfcfc
#000000 #000000;
#X obj 439 285 s \$0-allowbuy;
#X obj 821 208 spigot;
#X obj 867 227 bng 16 250 50 0 empty empty empty 17 7 0 10 #fcfcfc
#000000 #000000;
#X obj 1067 208 spigot;
#X obj 1113 227 bng 16 250 50 0 empty empty empty 17 7 0 10 #fcfcfc
#000000 #000000;
#X obj 1283 208 spigot;
#X obj 1329 227 bng 16 250 50 0 empty empty empty 17 7 0 10 #fcfcfc
#000000 #000000;
#X msg 1197 87 symbol scramble;
#X obj 748 57 r \$0-selrt;
#X obj 981 57 r \$0-selan;
#X obj 1197 59 r \$0-selsc;
#X obj 821 290 s \$0-toserver;
#X msg 821 266 send purchase \$1;
#X obj 1541 62 r \$0-allowbuy;
#X obj 1508 168 spigot;
#X obj 1554 187 bng 16 250 50 0 empty empty empty 17 7 0 10 #fcfcfc
#000000 #000000;
#X obj 1422 49 r \$0-selce;
#X msg 1422 77 symbol censor;
#X obj 749 595 s \$0-rtbng;
#X msg 867 550 color 13;
#X msg 810 549 color 16;
#X text 816 527 green;
#X text 869 527 red;
#X text 698 550 default;
#X obj 750 524 del 1000;
#X obj 868 508 spigot;
#X msg 1097 550 color 13;
#X msg 1040 549 color 16;
#X text 1046 527 green;
#X text 1099 527 red;
#X text 928 550 default;
#X obj 980 524 del 1000;
#X obj 1098 508 spigot;
#X obj 979 595 s \$0-anbng;
#X msg 1317 550 color 13;
#X msg 1260 549 color 16;
#X text 1266 527 green;
#X text 1319 527 red;
#X text 1148 550 default;
#X obj 1200 524 del 1000;
#X obj 1318 508 spigot;
#X msg 1537 550 color 13;
#X msg 1480 549 color 16;
#X text 1486 527 green;
#X text 1539 527 red;
#X text 1368 550 default;
#X obj 1420 524 del 1000;
#X obj 1537 386 r \$0-allowbuy;
#X obj 1537 508 spigot;
#X obj 1537 407 == 0;
#X text 1568 407 Invert gate;
#X obj 1199 594 s \$0-scbng;
#X obj 1419 595 s \$0-cebng;
#X obj 288 18 loadbang;
#X msg 288 43 0;
#X obj 439 179 loadbang;
#X floatatom 1541 115 5 0 0 0 - - - 0 0, f 5;
#X msg 1448 138 symbol censor;
#X obj 1541 140 t b f;
#X msg 1002 187 symbol censor;
#X msg 814 185 symbol censor;
#X msg 1224 185 symbol scramble;
#X msg 1002 187 symbol announcement;
#X msg 815 185 symbol randomtext;
#X msg 1541 90 set \$1;
#X obj 1537 480 t b f;
#X floatatom 1537 456 5 0 0 0 - - - 0 0, f 5;
#X msg 1537 431 set \$1;
#X obj 1318 378 r \$0-allowbuy;
#X obj 1318 399 == 0;
#X text 1349 399 Invert gate;
#X obj 1318 472 t b f;
#X floatatom 1318 448 5 0 0 0 - - - 0 0, f 5;
#X msg 1318 423 set \$1;
#X obj 1098 378 r \$0-allowbuy;
#X obj 1098 399 == 0;
#X text 1129 399 Invert gate;
#X obj 1098 472 t b f;
#X floatatom 1098 448 5 0 0 0 - - - 0 0, f 5;
#X msg 1098 423 set \$1;
#X obj 928 378 r \$0-allowbuy;
#X obj 928 399 == 0;
#X text 959 399 Invert gate;
#X obj 928 472 t b f;
#X floatatom 928 448 5 0 0 0 - - - 0 0, f 5;
#X msg 928 423 set \$1;
#X obj 1331 90 r \$0-allowbuy;
#X floatatom 1331 143 5 0 0 0 - - - 0 0, f 5;
#X obj 1331 168 t b f;
#X msg 1331 118 set \$1;
#X obj 1131 110 r \$0-allowbuy;
#X floatatom 1131 163 5 0 0 0 - - - 0 0, f 5;
#X obj 1131 188 t b f;
#X msg 1131 138 set \$1;
#X obj 931 110 r \$0-allowbuy;
#X floatatom 931 163 5 0 0 0 - - - 0 0, f 5;
#X obj 931 188 t b f;
#X msg 931 138 set \$1;
#X obj 366 201 t b f;
#X msg 1420 550 color 17;
#X msg 1200 550 color 17;
#X msg 980 550 color 17;
#X msg 750 550 color 17;
#X connect 1 0 0 0;
#X connect 2 0 3 0;
#X connect 4 0 13 0;
#X connect 5 0 4 0;
#X connect 6 0 7 0;
#X connect 7 0 11 0;
#X connect 8 0 5 0;
#X connect 9 0 8 0;
#X connect 12 0 6 0;
#X connect 14 0 5 0;
#X connect 16 0 15 0;
#X connect 17 0 21 0;
#X connect 19 0 17 0;
#X connect 21 0 18 0;
#X connect 22 0 21 1;
#X connect 23 0 17 0;
#X connect 23 1 22 0;
#X connect 24 0 23 0;
#X connect 29 0 35 0;
#X connect 30 0 28 0;
#X connect 30 0 31 0;
#X connect 31 0 37 0;
#X connect 32 0 39 0;
#X connect 33 0 39 0;
#X connect 34 0 30 1;
#X connect 35 0 30 0;
#X connect 35 1 34 0;
#X connect 36 0 39 0;
#X connect 38 0 29 0;
#X connect 40 0 153 0;
#X connect 42 0 50 0;
#X connect 43 0 42 0;
#X connect 44 0 42 0;
#X connect 45 0 48 0;
#X connect 45 0 55 0;
#X connect 46 0 49 0;
#X connect 47 0 48 1;
#X connect 48 0 46 1;
#X connect 48 0 54 0;
#X connect 50 0 45 0;
#X connect 52 0 46 0;
#X connect 53 0 52 0;
#X connect 54 0 52 0;
#X connect 56 0 57 0;
#X connect 56 0 67 0;
#X connect 57 0 75 0;
#X connect 58 0 59 0;
#X connect 58 0 67 0;
#X connect 59 0 82 0;
#X connect 60 0 61 0;
#X connect 60 0 67 0;
#X connect 61 0 90 0;
#X connect 62 0 39 0;
#X connect 63 0 32 0;
#X connect 63 0 79 0;
#X connect 63 0 139 0;
#X connect 63 0 150 0;
#X connect 64 0 33 0;
#X connect 64 0 86 0;
#X connect 64 0 133 0;
#X connect 64 0 146 0;
#X connect 65 0 62 0;
#X connect 65 0 94 0;
#X connect 65 0 127 0;
#X connect 65 0 142 0;
#X connect 67 0 66 0;
#X connect 68 0 119 0;
#X connect 69 0 70 0;
#X connect 69 0 67 0;
#X connect 70 0 97 0;
#X connect 71 0 101 0;
#X connect 71 0 72 0;
#X connect 71 0 111 0;
#X connect 71 0 121 0;
#X connect 72 0 39 0;
#X connect 74 0 73 0;
#X connect 75 0 73 0;
#X connect 79 0 157 0;
#X connect 80 0 74 0;
#X connect 81 0 88 0;
#X connect 82 0 88 0;
#X connect 86 0 156 0;
#X connect 87 0 81 0;
#X connect 89 0 106 0;
#X connect 90 0 106 0;
#X connect 94 0 155 0;
#X connect 95 0 89 0;
#X connect 96 0 107 0;
#X connect 97 0 107 0;
#X connect 101 0 154 0;
#X connect 102 0 104 0;
#X connect 103 0 96 0;
#X connect 104 0 122 0;
#X connect 108 0 109 0;
#X connect 109 0 6 0;
#X connect 110 0 45 0;
#X connect 111 0 113 0;
#X connect 112 0 69 0;
#X connect 113 0 112 0;
#X connect 113 1 69 1;
#X connect 116 0 60 0;
#X connect 117 0 58 0;
#X connect 118 0 56 0;
#X connect 119 0 111 0;
#X connect 120 0 103 0;
#X connect 120 1 103 1;
#X connect 121 0 120 0;
#X connect 122 0 121 0;
#X connect 123 0 124 0;
#X connect 124 0 128 0;
#X connect 126 0 95 0;
#X connect 126 1 95 1;
#X connect 127 0 126 0;
#X connect 128 0 127 0;
#X connect 129 0 130 0;
#X connect 130 0 134 0;
#X connect 132 0 87 0;
#X connect 132 1 87 1;
#X connect 133 0 132 0;
#X connect 134 0 133 0;
#X connect 135 0 136 0;
#X connect 136 0 140 0;
#X connect 138 0 80 0;
#X connect 138 1 80 1;
#X connect 139 0 138 0;
#X connect 140 0 139 0;
#X connect 141 0 144 0;
#X connect 142 0 143 0;
#X connect 143 0 116 0;
#X connect 143 1 60 1;
#X connect 144 0 142 0;
#X connect 145 0 148 0;
#X connect 146 0 147 0;
#X connect 147 0 117 0;
#X connect 147 1 58 1;
#X connect 148 0 146 0;
#X connect 149 0 152 0;
#X connect 150 0 151 0;
#X connect 151 0 118 0;
#X connect 151 1 56 1;
#X connect 152 0 150 0;
#X connect 153 0 44 0;
#X connect 153 1 50 1;
#X connect 154 0 107 0;
#X connect 155 0 106 0;
#X connect 156 0 88 0;
#X connect 157 0 73 0;
#X restore 15 91 pd points-system;
#N canvas 545 655 1617 472 hud-settings 0;
#X msg 20 40 click 1;
#X obj 20 20 loadbang;
#X obj 483 128 r \$0-powerofficon-s;
#X obj 20 70 s \$0-hearticon-r;
#X text 82 20 Makes the icon clickable;
#X obj 127 70 s \$0-poweronicon-r;
#X obj 246 70 s \$0-powerofficon-r;
#X obj 483 319 s \$0-powerofficon-r;
#X obj 698 232 del 500;
#X obj 530 205 bng 16 250 50 0 \$0-disconnect null-r DISCONNECT -20
-9 0 10 #ff8080 #0000a0 #000000;
#X obj 95 204 bng 16 250 50 0 \$0-reconnect null-r CONNECT -13 -9 0
10 #80ff80 #0000a0 #000000;
#X obj 911 207 bng 16 250 50 0 \$0-like null-r +1 0 -9 0 10 #0080ff
#0000a0 #000000;
#X obj 483 205 bng 15 250 50 0 empty empty empty 17 7 0 10 #fcfcfc
#000000 #000000;
#X obj 462 171 gate;
#X obj 505 171 tgl 15 0 empty empty empty 17 7 0 10 #fcfcfc #000000
#000000 1 1;
#X msg 562 170 1;
#X obj 592 169 loadbang;
#X msg 529 170 0;
#X obj 698 232 del 500;
#X obj 698 293 bng 15 250 50 0 empty empty empty 17 7 0 10 #fcfcfc
#000000 #000000;
#X obj 698 313 del 10;
#X obj 888 208 bng 15 250 50 0 empty empty empty 17 7 0 10 #fcfcfc
#000000 #000000;
#X obj 867 174 gate;
#X obj 910 174 tgl 15 0 empty empty empty 17 7 0 10 #fcfcfc #000000
#000000 1 1;
#X msg 967 173 1;
#X obj 997 172 loadbang;
#X msg 934 173 0;
#X obj 1143 296 bng 15 250 50 0 empty empty empty 17 7 0 10 #fcfcfc
#000000 #000000;
#X obj 1143 316 del 10;
#X obj 888 322 s \$0-hearticon-r;
#X obj 888 131 r \$0-hearticon-s;
#X obj 287 232 del 500;
#X obj 62 205 bng 15 250 50 0 empty empty empty 17 7 0 10 #fcfcfc #000000
#000000;
#X obj 41 171 gate;
#X obj 84 171 tgl 15 0 empty empty empty 17 7 0 10 #fcfcfc #000000
#000000 1 1;
#X msg 141 170 1;
#X obj 171 169 loadbang;
#X msg 108 170 0;
#X obj 287 232 del 500;
#X obj 287 293 bng 15 250 50 0 empty empty empty 17 7 0 10 #fcfcfc
#000000 #000000;
#X obj 287 313 del 10;
#X obj 62 319 s \$0-poweronicon-r;
#X obj 62 128 r \$0-poweronicon-s;
#X obj 1143 235 del 800;
#X obj 1376 340 s \$0-gear-r;
#X obj 1336 172 bng 15 250 50 0 empty empty empty 17 7 0 10 #fcfcfc
#000000 #000000;
#X obj 1315 138 gate;
#X obj 1358 138 tgl 15 0 empty empty empty 17 7 0 10 #fcfcfc #000000
#000000 1 1;
#X msg 1415 137 1;
#X obj 1445 136 loadbang;
#X msg 1382 137 0;
#X obj 1531 260 bng 15 250 50 0 empty empty empty 17 7 0 10 #fcfcfc
#000000 #000000;
#X obj 1531 280 del 10;
#X msg 1376 292 set \$1;
#X floatatom 1376 252 5 0 0 0 - - - 0 0, f 5;
#X obj 1336 212 tgl 15 0 empty empty empty 17 7 0 10 #fcfcfc #000000
#000000 0 1;
#X msg 1336 192 1;
#X msg 1531 235 0;
#X msg 1486 313 rotate 0 10 10;
#X obj 1356 111 bng 15 250 50 0 empty empty empty 17 7 0 10 #fcfcfc
#000000 #000000;
#X obj 1531 199 del 1000;
#X msg 1376 313 rotate \$1 16 16;
#X obj 1376 272 + 10;
#X obj 1266 84 r \$0-gear-s;
#X obj 1336 229 metro 60;
#X msg 62 232 open ./ui-images/poweronclick.png;
#X msg 287 268 open ./ui-images/poweron.png;
#X msg 1143 271 open ./ui-images/pixelheart1.png;
#X msg 888 235 open ./ui-images/pixelheart-animation.gif;
#X msg 698 268 open ./ui-images/poweroff.png;
#X msg 483 232 open ./ui-images/poweroffclick.png;
#X connect 1 0 0 0;
#X connect 2 0 13 1;
#X connect 2 0 17 0;
#X connect 8 0 69 0;
#X connect 12 0 70 0;
#X connect 12 0 8 0;
#X connect 13 0 12 0;
#X connect 13 0 9 0;
#X connect 14 0 13 0;
#X connect 15 0 14 0;
#X connect 16 0 15 0;
#X connect 17 0 14 0;
#X connect 19 0 20 0;
#X connect 20 0 15 0;
#X connect 21 0 68 0;
#X connect 21 0 43 0;
#X connect 22 0 21 0;
#X connect 22 0 11 0;
#X connect 23 0 22 0;
#X connect 24 0 23 0;
#X connect 25 0 24 0;
#X connect 26 0 23 0;
#X connect 27 0 28 0;
#X connect 28 0 24 0;
#X connect 30 0 22 1;
#X connect 30 0 26 0;
#X connect 31 0 66 0;
#X connect 32 0 65 0;
#X connect 32 0 31 0;
#X connect 33 0 32 0;
#X connect 33 0 10 0;
#X connect 34 0 33 0;
#X connect 35 0 34 0;
#X connect 36 0 35 0;
#X connect 37 0 34 0;
#X connect 39 0 40 0;
#X connect 40 0 35 0;
#X connect 42 0 33 1;
#X connect 42 0 37 0;
#X connect 43 0 67 0;
#X connect 45 0 56 0;
#X connect 45 0 60 0;
#X connect 46 0 45 0;
#X connect 47 0 46 0;
#X connect 48 0 47 0;
#X connect 49 0 48 0;
#X connect 50 0 47 0;
#X connect 51 0 52 0;
#X connect 51 0 58 0;
#X connect 52 0 48 0;
#X connect 53 0 54 0;
#X connect 54 0 61 0;
#X connect 54 0 62 0;
#X connect 55 0 64 0;
#X connect 56 0 55 0;
#X connect 57 0 51 0;
#X connect 57 0 55 0;
#X connect 57 0 54 0;
#X connect 58 0 44 0;
#X connect 60 0 57 0;
#X connect 61 0 44 0;
#X connect 62 0 53 0;
#X connect 63 0 59 0;
#X connect 63 0 46 1;
#X connect 64 0 54 0;
#X connect 65 0 41 0;
#X connect 66 0 39 0;
#X connect 66 0 41 0;
#X connect 67 0 27 0;
#X connect 67 0 29 0;
#X connect 68 0 29 0;
#X connect 69 0 7 0;
#X connect 69 0 19 0;
#X connect 70 0 7 0;
#X restore 15 116 pd hud-settings;
#X obj 19 147 ggee/image ./ui-images/pixeljams.gif 0 0 32 32 empty
empty empty 32 32 1 0 10 #000000 0 -8 16 16 0 1 1;
#N canvas 323 299 1505 767 audio-engine 0;
#X obj 322 428 cnv 15 8 8 empty empty Speed 35 6 0 10 #ffffff #00ffff
0;
#X obj 252 428 cnv 15 8 8 empty empty BPM 35 6 0 10 #ffffff #00ffff
0;
#X obj 124 428 cnv 15 8 8 empty empty Select\ Channel 24 6 0 10 #ffffff
#00ffff 0;
#X obj 30 17 r \$0-instruments;
#X obj 30 324 s \$0-writei1wt;
#X obj 130 324 s \$0-writei1env;
#X obj 334 324 s \$0-instr1notes;
#X obj 230 324 s \$0-instr1nd-r;
#X obj 395 18 tosymbol;
#X symbolatom 395 43 31 0 0 0 - - - 0 0, f 31;
#X obj 9 390 tgl 15 0 empty empty empty 17 7 0 10 #fcfcfc #000000 #000000
1 1;
#X text 29 389 Channel 1;
#X obj 9 362 r \$0-ch1toggle;
#X obj 30 42 route %instr1% %instr2% %instr3% %instr4% %instr5% %instr6%
;
#X obj 189 390 tgl 15 0 empty empty empty 17 7 0 10 #fcfcfc #000000
#000000 0 1;
#X text 209 389 Channel 2;
#X obj 189 362 r \$0-ch2toggle;
#X obj 88 278 s \$0-writei2wt;
#X obj 188 278 s \$0-writei2env;
#X obj 288 278 s \$0-instr2nd-r;
#X obj 392 278 s \$0-instr2notes;
#X obj 147 231 s \$0-writei3wt;
#X obj 247 231 s \$0-writei3env;
#X obj 347 231 s \$0-instr3nd-r;
#X obj 451 231 s \$0-instr3notes;
#X obj 205 184 s \$0-writei4wt;
#X obj 305 184 s \$0-writei4env;
#X obj 405 184 s \$0-instr4nd-r;
#X obj 509 184 s \$0-instr4notes;
#X obj 264 138 s \$0-writei5wt;
#X obj 364 138 s \$0-writei5env;
#X obj 464 138 s \$0-instr5nd-r;
#X obj 568 138 s \$0-instr5notes;
#X obj 322 94 s \$0-writei6wt;
#X obj 422 94 s \$0-writei6env;
#X obj 522 94 s \$0-instr6nd-r;
#X obj 626 94 s \$0-instr6notes;
#X obj 369 390 tgl 15 0 empty empty empty 17 7 0 10 #fcfcfc #000000
#000000 0 1;
#X obj 549 390 tgl 15 0 empty empty empty 17 7 0 10 #fcfcfc #000000
#000000 0 1;
#X obj 729 390 tgl 15 0 empty empty empty 17 7 0 10 #fcfcfc #000000
#000000 0 1;
#X obj 908 390 tgl 15 0 empty empty empty 17 7 0 10 #fcfcfc #000000
#000000 0 1;
#X text 389 389 Channel 3;
#X text 569 389 Channel 4;
#X text 749 389 Channel 5;
#X text 928 389 Channel 6;
#X obj 908 362 r \$0-ch6toggle;
#X obj 729 362 r \$0-ch5toggle;
#X obj 549 362 r \$0-ch4toggle;
#X obj 369 362 r \$0-ch3toggle;
#X obj 455 18 text define -k midi-shortcuts;
#A set 122 60 \; 115 61 \; 120 62 \; 100 63 \; 99 64 \; 118 65 \; 103
66 \; 98 67 \; 104 68 \; 110 69 \; 106 70 \; 109 71 \; 44 72 \; 113
72 \; 50 73 \; 119 74 \; 51 75 \; 101 76 \; 114 77 \; 53 78 \; 116
79 \; 54 80 \; 121 81 \; 55 82 \; 117 83 \; 105 84 \;;
#X text 637 18 Key -> note translation for typing midi notes;
#X obj 49 428 hradio 15 0 0 6 \$0-channeltoggle r-null empty 0 -8 0
10 #fcfcfc #000000 #000000 0;
#X obj 846 71 r \$0-channeltoggle;
#X obj 846 231 s \$0-ch1toggle;
#X obj 860 201 s \$0-ch2toggle;
#X obj 875 171 s \$0-ch3toggle;
#X obj 946 231 s \$0-ch4toggle;
#X obj 960 201 s \$0-ch5toggle;
#X obj 970 171 s \$0-ch6toggle;
#X msg 846 122 1;
#X msg 876 122 0;
#X msg 906 122 1;
#X msg 936 122 0;
#X msg 966 122 1;
#X msg 996 122 0;
#X msg 1026 122 1;
#X msg 1056 122 0;
#X msg 1086 122 1;
#X msg 1116 122 0;
#X msg 1146 122 1;
#X msg 1176 122 0;
#X obj 846 96 sel 0 1 2 3 4 5;
#X obj 969 50 loadbang;
#X msg 969 71 0;
#X obj 441 324 s \$0-instr1fx;
#X obj 30 300 route %instr1wt% %instr1env% %instr1nd% %instr1notes%
%instr1fx%, f 64;
#X obj 88 254 route %instr2wt% %instr2env% %instr2nd% %instr2notes%
%instr2fx%, f 64;
#X obj 147 207 route %instr3wt% %instr3env% %instr3nd% %instr3notes%
%instr3fx%, f 64;
#X obj 205 160 route %instr4wt% %instr4env% %instr4nd% %instr4notes%
%instr4fx%, f 64;
#X obj 264 114 route %instr5wt% %instr5env% %instr5nd% %instr5notes%
%instr5fx%, f 64;
#X obj 322 70 route %instr6wt% %instr6env% %instr6nd% %instr6notes%
%instr6fx%, f 64;
#X obj 499 278 s \$0-instr2fx;
#X obj 558 231 s \$0-instr3fx;
#X obj 616 184 s \$0-instr4fx;
#X obj 676 138 s \$0-instr5fx;
#X obj 734 94 s \$0-instr6fx;
#X obj 848 333 s \$0-instr1nd-r;
#X floatatom 848 311 5 0 0 0 - - - 0 0, f 5;
#X obj 9 457 ./pd-dependencies/wavetablesynth \$0-instr1notes \$0-writei1wt
\$0-writei1env \$0-instr1nd-r %instr1wt% %instr1env% %instr1nd% %instr1notes%
%instr1% \$0-toserver \$0-instr1fx \$0-tick \$0-tickms \$0-tprspeed
\$0-tickms-change \$0-tprspeed-change %instr1fx%;
#X obj 189 457 ./pd-dependencies/wavetablesynth \$0-instr2notes \$0-writei2wt
\$0-writei2env \$0-instr2nd-r %instr2wt% %instr2env% %instr2nd% %instr2notes%
%instr2% \$0-toserver \$0-instr2fx \$0-tick \$0-tickms \$0-tprspeed
\$0-tickms-change \$0-tprspeed-change %instr2fx%;
#X obj 369 457 ./pd-dependencies/wavetablesynth \$0-instr3notes \$0-writei3wt
\$0-writei3env \$0-instr3nd-r %instr3wt% %instr3env% %instr3nd% %instr3notes%
%instr3% \$0-toserver \$0-instr3fx \$0-tick \$0-tickms \$0-tprspeed
\$0-tickms-change \$0-tprspeed-change %instr3fx%;
#X obj 549 457 ./pd-dependencies/wavetablesynth \$0-instr4notes \$0-writei4wt
\$0-writei4env \$0-instr4nd-r %instr4wt% %instr4env% %instr4nd% %instr4notes%
%instr4% \$0-toserver \$0-instr4fx \$0-tick \$0-tickms \$0-tprspeed
\$0-tickms-change \$0-tprspeed-change %instr4fx%;
#X obj 729 457 ./pd-dependencies/wavetablesynth \$0-instr5notes \$0-writei5wt
\$0-writei5env \$0-instr5nd-r %instr5wt% %instr5env% %instr5nd% %instr5notes%
%instr5% \$0-toserver \$0-instr5fx \$0-tick \$0-tickms \$0-tprspeed
\$0-tickms-change \$0-tprspeed-change %instr5fx%;
#X obj 908 457 ./pd-dependencies/wavetablesynth \$0-instr6notes \$0-writei6wt
\$0-writei6env \$0-instr6nd-r %instr6wt% %instr6env% %instr6nd% %instr6notes%
%instr6% \$0-toserver \$0-instr6fx \$0-tick \$0-tickms \$0-tprspeed
\$0-tickms-change \$0-tprspeed-change %instr6fx%;
#X text 1105 377 ./pd-dependencies/wavetablesynth \$0-instr1notes \$0-writei1wt
\$0-writei1env \$0-instr1nd-r %instr1wt% %instr1env% %instr1nd% %instr1notes%
%instr1% \$0-toserver \$0-instr1fx \$0-tick \$0-tickms \$0-tprspeed
\$0-tickms-change \$0-tprspeed-change %instr1fx%;
#X text 888 311 Debug;
#X floatatom 252 428 5 0 0 0 - #0-bpm #0-tickms-change 0 0, f 5;
#X floatatom 322 428 5 0 0 0 - #0-speed #0-tprspeed-change 0 0, f
5;
#X text 1105 444 \$1 - instr note send \$2 - write to wavetable receive
name \$3 - write to envelope receive name \$4 - note duration recieve
\$5 - wavetable server channel \$6 - envelope server channel \$7
- note duration server channel \$8 - note channel \$9 - %instr#%
\, instrument specific server channel \$10 - \$0-toserver \$11 -
fx server channel \$12 - \$0-tick \$13 - BPM (ms per tick) \$14
- Speed (ticks per row) \$15 - BPM change (tickms-change) \$16 -
Speed change (tprspeed-change) \$17 - instr FX inlet $xx - note sustain
point channel? (Future version);
#X connect 3 0 8 0;
#X connect 3 0 13 0;
#X connect 8 0 9 0;
#X connect 10 0 88 0;
#X connect 12 0 10 0;
#X connect 13 0 75 0;
#X connect 13 1 76 0;
#X connect 13 2 77 0;
#X connect 13 3 78 0;
#X connect 13 4 79 0;
#X connect 13 5 80 0;
#X connect 14 0 89 0;
#X connect 16 0 14 0;
#X connect 37 0 90 0;
#X connect 38 0 91 0;
#X connect 39 0 92 0;
#X connect 40 0 93 0;
#X connect 45 0 40 0;
#X connect 46 0 39 0;
#X connect 47 0 38 0;
#X connect 48 0 37 0;
#X connect 52 0 71 0;
#X connect 59 0 53 0;
#X connect 60 0 54 0;
#X connect 60 0 56 0;
#X connect 60 0 58 0;
#X connect 60 0 57 0;
#X connect 60 0 55 0;
#X connect 61 0 54 0;
#X connect 62 0 55 0;
#X connect 62 0 53 0;
#X connect 62 0 57 0;
#X connect 62 0 56 0;
#X connect 62 0 58 0;
#X connect 63 0 55 0;
#X connect 64 0 58 0;
#X connect 64 0 54 0;
#X connect 64 0 53 0;
#X connect 64 0 57 0;
#X connect 64 0 56 0;
#X connect 65 0 56 0;
#X connect 66 0 58 0;
#X connect 66 0 57 0;
#X connect 66 0 55 0;
#X connect 66 0 54 0;
#X connect 66 0 53 0;
#X connect 67 0 57 0;
#X connect 68 0 58 0;
#X connect 68 0 56 0;
#X connect 68 0 55 0;
#X connect 68 0 54 0;
#X connect 68 0 53 0;
#X connect 69 0 58 0;
#X connect 70 0 57 0;
#X connect 70 0 56 0;
#X connect 70 0 55 0;
#X connect 70 0 54 0;
#X connect 70 0 53 0;
#X connect 71 0 59 0;
#X connect 71 0 60 0;
#X connect 71 1 61 0;
#X connect 71 1 62 0;
#X connect 71 2 63 0;
#X connect 71 2 64 0;
#X connect 71 3 65 0;
#X connect 71 3 66 0;
#X connect 71 4 67 0;
#X connect 71 4 68 0;
#X connect 71 5 69 0;
#X connect 71 5 70 0;
#X connect 72 0 73 0;
#X connect 73 0 71 0;
#X connect 75 0 4 0;
#X connect 75 1 5 0;
#X connect 75 2 7 0;
#X connect 75 3 6 0;
#X connect 75 4 74 0;
#X connect 76 0 17 0;
#X connect 76 1 18 0;
#X connect 76 2 19 0;
#X connect 76 3 20 0;
#X connect 76 4 81 0;
#X connect 77 0 21 0;
#X connect 77 1 22 0;
#X connect 77 2 23 0;
#X connect 77 3 24 0;
#X connect 77 4 82 0;
#X connect 78 0 25 0;
#X connect 78 1 26 0;
#X connect 78 2 27 0;
#X connect 78 3 28 0;
#X connect 78 4 83 0;
#X connect 79 0 29 0;
#X connect 79 1 30 0;
#X connect 79 2 31 0;
#X connect 79 3 32 0;
#X connect 79 4 84 0;
#X connect 80 0 33 0;
#X connect 80 1 34 0;
#X connect 80 2 35 0;
#X connect 80 3 36 0;
#X connect 80 4 85 0;
#X connect 87 0 86 0;
#X coords 0 -1 1 1 1079 334 2 5 413;
#X restore 15 141 pd audio-engine;
#N canvas 976 266 464 558 storefront 0;
#X obj -15 -1 ggee/image ./ui-images/neonstoreportrait.gif 0 0 465
558 empty empty empty 465 558 1 0 10 #000000 0 -8 100 120 0 1 1;
#X obj 268 15 cnv 15 8 8 empty empty Current\ points 43 6 0 10 #e0e0e0
#ffffff 0;
#X obj 268 15 cnv 15 8 8 empty empty Buy\ weird\ chat\ stuff\ with\ likes!
-246 7 0 10 #e0e0e0 #ffffff 0;
#X obj 20 236 cnv 15 8 8 empty empty Cancel\ out\ other\ purchases\ by\ purchasing\ something\ else.
1 54 0 10 #e0e0e0 #ffffff 0;
#X obj 20 236 cnv 15 8 8 empty empty 5p\ -\ Censor\ the\ next\ 2\ messages
22 6 0 10 #e0e0e0 #ffffff 0;
#X obj 20 176 cnv 15 8 8 empty empty 5p\ -\ Turn\ the\ next\ 3\ messages\ into\ a\ drunken\ stupor
22 6 0 10 #e0e0e0 #ffffff 0;
#X obj 20 117 cnv 15 8 8 empty empty 10p\ -\ Make\ the\ next\ message\ an\ announcement
22 6 0 10 #e0e0e0 #ffffff 0;
#X obj 20 117 cnv 15 8 8 empty empty (unaffected\ by\ other\ effects)
55 17 0 10 #e0e0e0 #ffffff 0;
#X obj 20 58 cnv 15 8 8 empty empty 5p\ -\ Replace\ some\ words\ in\ the\ next\ 4\ messages\ randomly
22 6 0 10 #e0e0e0 #ffffff 0;
#X floatatom 267 15 5 0 0 0 - #0-setpoint null-setpoint 0 0, f 5;
#X obj 20 58 bng 15 250 50 0 \$0-selrt \$0-rtbng empty 17 7 0 10 #28f4f4
#000000 #000000;
#X obj 20 117 bng 15 250 50 0 \$0-selan \$0-anbng empty 17 7 0 10 #28f4f4
#000000 #000000;
#X obj 20 176 bng 15 250 50 0 \$0-selsc \$0-scbng empty 17 7 0 10 #28f4f4
#000000 #000000;
#X obj 20 236 bng 15 250 50 0 \$0-selce \$0-cebng empty 17 7 0 10 #28f4f4
#000000 #000000;
#X restore 105 15 pd storefront;
#N canvas 649 666 242 95 options 0;
#X obj 16 53 tgl 23 0 \$0-ococ null-ococ empty 17 7 0 10 #fcfcfc #000000
#000000 0 1;
#X text 51 21 User Options;
#X text 50 55 Open Chat History on Connect;
#X obj 12 14 ggee/image ./ui-images/gear.png 0 0 32 32 empty empty
empty 32 32 1 0 10 #000000 0 -8 16 16 0 1 1;
#X coords 0 0 1 1 32 32 0;
#X scroll 1;
#X restore 122 40 pd options;
#N canvas 560 45 450 325 pattern 0;
#N canvas 640 432 800 392 tickmaster 0;
#X obj 6 70 s \$0-tick;
#X obj 46 8 bng 15 250 50 0 empty empty empty 17 7 0 10 #fcfcfc #000000
#000000;
#X text 65 7 Debug tick;
#X floatatom 152 124 7 0 0 0 - - - 0 0, f 7;
#X obj 152 7 loadbang;
#X obj 152 148 s \$0-tickms;
#X msg 238 69 6;
#X floatatom 238 124 5 0 0 0 - - - 0 0, f 5;
#X obj 238 148 s \$0-tprspeed;
#X obj 211 8 bng 15 250 50 0 empty empty empty 17 7 0 10 #fcfcfc #000000
#000000;
#X obj 6 8 inlet;
#X obj 152 98 inlet;
#X obj 238 98 inlet;
#X text 229 7 Refresh Default;
#X obj 46 43 bng 15 250 50 0 empty empty empty 17 7 0 10 #fcfcfc #000000
#000000;
#X text 65 43 Tick Visual;
#X obj 372 7 r \$0-tickms-change;
#X obj 612 7 r \$0-tprspeed-change;
#X floatatom 372 32 5 0 0 0 - - - 0 0, f 5;
#X floatatom 612 82 5 0 0 0 - - - 0 0, f 5;
#X obj 372 337 list prepend %tickms-change%;
#X obj 612 191 list prepend %pattern%;
#X obj 612 216 list prepend send;
#X obj 612 241 list trim;
#X obj 612 266 s \$0-toserver;
#X obj 612 166 list prepend %tprspeed-change%;
#X obj 372 231 /;
#X text 407 32 BPM to 16th note duration in ms;
#X msg 372 208 60000;
#X obj 372 187 t b f;
#X obj 372 256 * 0.25;
#X obj 98 334 s \$0-bpm;
#X text 409 281 16th note = 1 row \, findtick speed based on tpr;
#X obj 372 311 /;
#X obj 372 281 t f b;
#X obj 98 169 *;
#X obj 98 140 t f b;
#X obj 98 194 * 4;
#X obj 98 262 /;
#X msg 98 239 60000;
#X obj 98 218 t b f;
#X floatatom 98 287 5 0 0 0 - - - 0 0, f 5;
#X msg 98 311 set \$1;
#X msg 238 178 set \$1;
#X obj 238 203 s \$0-speed;
#X msg 152 72 20.8333;
#X obj 211 31 t b b;
#X obj 612 32 moses 0;
#X msg 612 57 1;
#X obj 372 56 moses 60;
#X msg 372 81 60;
#X floatatom 372 106 5 0 0 0 - - - 0 0, f 5;
#X obj 372 130 moses 200;
#X msg 423 150 200;
#X floatatom 372 167 5 0 0 0 - - - 0 0, f 5;
#X obj 612 106 moses 10;
#X msg 657 127 10;
#X floatatom 612 144 5 0 0 0 - - - 0 0, f 5;
#X obj 346 140 bng 15 250 50 0 empty empty empty 17 7 0 10 #fcfcfc
#000000 #000000;
#X obj 146 218 loadbang;
#X msg 146 239 6;
#X obj 6 103 counter 1 6;
#X obj 6 158 sel 1;
#X obj 6 183 bng 15 250 50 0 empty empty empty 17 7 0 10 #fcfcfc #000000
#000000;
#X floatatom 16 128 5 0 0 0 - - - 0 0, f 5;
#X obj 6 206 s \$0-next-row;
#X connect 1 0 0 0;
#X connect 1 0 14 0;
#X connect 1 0 61 0;
#X connect 3 0 5 0;
#X connect 3 0 36 0;
#X connect 4 0 9 0;
#X connect 6 0 7 0;
#X connect 7 0 8 0;
#X connect 7 0 33 1;
#X connect 7 0 35 1;
#X connect 7 0 43 0;
#X connect 7 0 61 4;
#X connect 9 0 46 0;
#X connect 10 0 0 0;
#X connect 10 0 14 0;
#X connect 10 0 61 0;
#X connect 11 0 3 0;
#X connect 12 0 7 0;
#X connect 12 0 58 0;
#X connect 16 0 18 0;
#X connect 17 0 47 0;
#X connect 18 0 49 0;
#X connect 19 0 55 0;
#X connect 20 0 21 0;
#X connect 21 0 22 0;
#X connect 22 0 23 0;
#X connect 23 0 24 0;
#X connect 25 0 21 0;
#X connect 26 0 30 0;
#X connect 28 0 26 0;
#X connect 29 0 28 0;
#X connect 29 1 26 1;
#X connect 30 0 34 0;
#X connect 33 0 20 0;
#X connect 34 0 33 0;
#X connect 34 1 7 0;
#X connect 35 0 37 0;
#X connect 36 0 35 0;
#X connect 36 1 7 0;
#X connect 37 0 40 0;
#X connect 38 0 41 0;
#X connect 39 0 38 0;
#X connect 40 0 39 0;
#X connect 40 1 38 1;
#X connect 41 0 42 0;
#X connect 42 0 31 0;
#X connect 42 0 54 0;
#X connect 43 0 44 0;
#X connect 43 0 57 0;
#X connect 45 0 3 0;
#X connect 46 0 45 0;
#X connect 46 1 6 0;
#X connect 47 0 48 0;
#X connect 47 1 19 0;
#X connect 48 0 19 0;
#X connect 49 0 50 0;
#X connect 49 1 51 0;
#X connect 50 0 51 0;
#X connect 51 0 52 0;
#X connect 52 0 54 0;
#X connect 52 1 53 0;
#X connect 53 0 54 0;
#X connect 54 0 29 0;
#X connect 55 0 57 0;
#X connect 55 1 56 0;
#X connect 56 0 57 0;
#X connect 57 0 25 0;
#X connect 58 0 54 0;
#X connect 58 0 61 2;
#X connect 59 0 60 0;
#X connect 60 0 38 1;
#X connect 61 0 62 0;
#X connect 61 0 64 0;
#X connect 62 0 63 0;
#X connect 63 0 65 0;
#X restore 5 56 pd tickmaster;
#X obj 5 5 r \$0-pattern;
#X obj 5 30 route %tick% %tickms% %tprspeed%;
#X connect 1 0 2 0;
#X connect 2 0 0 0;
#X connect 2 1 0 1;
#X connect 2 2 0 2;
#X restore 80 65 pd pattern;
#X coords 0 -1 1 1 1079 334 2 15 141;
#X restore 874 22 pd logic-systems;
#X obj 69 241 ggee/image ./ui-images/pixelheart1.png 1 1 32 32 empty
empty empty 32 32 1 0 10 #000000 0 -8 16 16 0 1 1;
#X obj 12 62 ggee/image ./ui-images/poweron.png 0 1 25 25 empty empty
empty 25 25 1 0 10 #000000 0 -8 12.5 12.5 0 1 1;
#X obj 39 62 ggee/image ./ui-images/poweroff.png 0 1 25 25 empty empty
empty 25 25 1 0 10 #000000 0 -8 12.5 12.5 0 1 1;
#X obj 19 218 cnv 15 8 8 empty empty Most\ Recent\ Message -3 -11 0
14 #e0e0e0 #ffffff 0;
#X obj 19 128 cnv 15 8 8 empty empty Username -3 -11 0 14 #e0e0e0 #ffffff
0;
#X obj 19 165 cnv 15 8 8 empty empty Chat -3 -11 0 14 #e0e0e0 #ffffff
0;
#X symbolatom 19 218 115 0 0 2 - #0-tochat null 0 0, f 115;
#X symbolatom 19 165 115 0 0 2 - #0-chat-r #0-chat-s 1 0, f 115;
#X obj 15 35 cnv 15 8 8 empty empty Hostname -3 -11 0 14 #e0e0e0 #ffffff
0;
#X symbolatom 19 128 115 0 0 2 - #0-username-r #0-username 1 0, f
115;
#N canvas 45 350 441 244 gear 0;
#X obj 10 31 ggee/image ./ui-images/gear.png 0 1 32 32 1003-gear-s
1003-gear-r empty 32 32 1 0 10 #000000 0 -8 16 16 0 1 1;
#X obj 10 71 s \$0-gear-s;
#X obj 10 5 r \$0-gear-r;
#X msg 91 199 \; pd-options vis \$1;
#X obj 85 71 bng 15 250 50 0 empty empty empty 17 7 0 10 #fcfcfc #000000
#000000;
#X obj 91 177 gate;
#X text 121 178 Prevents menu from repeatedly opening and closing;
#X msg 112 124 1;
#X obj 85 94 t b b;
#X msg 67 153 1;
#X msg 37 153 0;
#X obj 37 130 del 1000;
#X text 104 71 Opens options menu when double-clicked;
#X connect 0 0 1 0;
#X connect 0 0 4 0;
#X connect 2 0 0 0;
#X connect 4 0 8 0;
#X connect 5 0 3 0;
#X connect 7 0 5 1;
#X connect 8 0 9 0;
#X connect 8 1 7 0;
#X connect 8 1 11 0;
#X connect 9 0 5 0;
#X connect 10 0 5 0;
#X connect 11 0 10 0;
#X coords 0 -1 1 1 32 32 2 10 31;
#X restore 65 59 pd gear;
#X obj 45 391 cnv 15 8 8 empty empty Double-click\ to\ open\ the\ shop!
-29 -16 0 10 #ffffff #00ffff 0;
#X obj 15 35 cnv 15 8 8 empty empty Double-click\ to\ open\ options
83 25 0 10 #ffffff #00ffff 0;
#N canvas 1047 518 450 325 shop-icon 0;
#X obj 61 154 bng 15 250 50 0 empty empty empty 17 7 0 10 #fcfcfc #000000
#000000;
#X obj 67 260 gate;
#X msg 88 207 1;
#X obj 61 177 t b b;
#X msg 43 236 1;
#X msg 13 236 0;
#X obj 13 213 del 1000;
#X obj 61 13 ggee/image ./ui-images/spacestore.gif 0 1 128 128 empty
empty empty 128 128 1 0 10 #000000 0 -8 64 64 0 1 1;
#X text 97 261 Prevents shop from repeatedly opening and closing;
#X text 80 154 Opens shop when double-clicked;
#X msg 67 282 \; pd-storefront vis \$1;
#X connect 0 0 3 0;
#X connect 1 0 10 0;
#X connect 2 0 1 1;
#X connect 3 0 4 0;
#X connect 3 1 2 0;
#X connect 3 1 6 0;
#X connect 4 0 1 0;
#X connect 5 0 1 0;
#X connect 6 0 5 0;
#X connect 7 0 0 0;
#X coords 0 -1 1 1 128 128 2 61 13;
#X restore 16 384 pd shop-icon;
#X symbolatom 15 35 37 0 0 2 - #0-hostname-r #0-hostname-s 0 0, f
37;
#N canvas 0 23 1440 801 key-commands 0;
#X obj 9 25 key;
#X msg 292 243 inc;
#X msg 197 243 dec;
#X floatatom 12 392 5 0 127 0 - - - 0 0, f 5;
#X floatatom 12 416 5 0 127 0 - - - 0 0, f 5;
#X floatatom 12 439 5 0 127 0 - - - 0 0, f 5;
#X floatatom 12 462 5 0 127 0 - - - 0 0, f 5;
#X floatatom 12 485 5 0 127 0 - - - 0 0, f 5;
#X text 223 190 Main movement logic;
#X msg 114 212 focus 1;
#X obj 138 149 t b b;
#X obj 188 149 t b b;
#X obj 238 149 t b b;
#X obj 287 149 t b b;
#X msg 35 145 commit;
#X floatatom 898 493 5 0 0 0 - - - 0 0, f 5;
#X msg 484 148 0;
#X msg 526 148 1;
#X obj 484 122 r \$0-stopSequence;
#X obj 597 122 r \$0-startSequence;
#X obj 484 173 list prepend %play%;
#X obj 484 198 list prepend %pattern%;
#X obj 484 223 list prepend send;
#X obj 484 248 list trim;
#X obj 484 273 s \$0-toserver;
#X obj 940 434 r \$0-next-row;
#X obj 196 211 t b b b b;
#X obj 291 211 t b b b b;
#X msg 781 37 css border fill rgba(255 \\\, 0 \\\, 255 \\\, 0.0) \,
css border stroke-width 0px \, css data font-size 15px \, css data
fill rgba(255 \\\, 0.5 \, 255 \\\, 0.5);
#X symbolatom 57 390 7 0 0 0 - - - 0 0, f 7;
#X symbolatom 57 413 7 0 0 0 - - - 0 0, f 7;
#X symbolatom 57 438 7 0 0 0 - - - 0 0, f 7;
#X symbolatom 57 461 7 0 0 0 - - - 0 0, f 7;
#X symbolatom 57 484 7 0 0 0 - - - 0 0, f 7;
#X symbolatom 112 391 7 0 0 0 - - - 0 0, f 7;
#X symbolatom 112 414 7 0 0 0 - - - 0 0, f 7;
#X symbolatom 112 439 7 0 0 0 - - - 0 0, f 7;
#X symbolatom 112 462 7 0 0 0 - - - 0 0, f 7;
#X symbolatom 112 485 7 0 0 0 - - - 0 0, f 7;
#X symbolatom 165 392 7 0 0 0 - - - 0 0, f 7;
#X symbolatom 165 415 7 0 0 0 - - - 0 0, f 7;
#X symbolatom 165 440 7 0 0 0 - - - 0 0, f 7;
#X symbolatom 165 463 7 0 0 0 - - - 0 0, f 7;
#X symbolatom 165 486 7 0 0 0 - - - 0 0, f 7;
#X obj 796 1222 pack s s s;
#X obj 940 492 t f f f;
#X obj 570 1257 gate 5;
#X obj 952 1284 gate 5;
#X obj 890 608 t b b b b;
#X obj 904 637 t b b b b;
#X obj 920 668 t b b b b;
#X obj 933 697 t b b b b;
#X obj 947 728 t b b b b;
#X obj 573 1399 list prepend send;
#X obj 573 1424 list trim;
#X text 709 1349 Send notes to server;
#X obj 666 1424 tosymbol;
#X symbolatom 666 1449 46 0 0 0 - - - 0 0, f 46;
#X obj 573 1374 list prepend %instruments%;
#X obj 573 1449 s \$0-toserver;
#X obj 573 1324 list prepend %instr1notes%;
#X obj 573 1349 list prepend %instr1%;
#X obj 953 1399 list prepend send;
#X obj 953 1424 list trim;
#X text 1089 1349 Send notes to server;
#X obj 1046 1424 tosymbol;
#X symbolatom 1046 1449 46 0 0 0 - - - 0 0, f 46;
#X obj 953 1374 list prepend %instruments%;
#X obj 953 1449 s \$0-toserver;
#X obj 953 1349 list prepend %instr1%;
#X obj 953 1324 list prepend %instr1fx%;
#X obj 573 1289 moses 1;
#X text 623 1289 Makes 0s a "don't retrigger" option;
#X obj 1031 456 bng 15 250 50 0 empty empty empty 17 7 0 10 #fcfcfc
#000000 #000000;
#X msg 668 1141 Z;
#X symbolatom 737 1187 10 0 0 0 - - - 0 0, f 10;
#X obj 737 1166 tosymbol;
#X symbolatom 871 1180 10 0 0 0 - - - 0 0, f 10;
#X obj 871 1159 tosymbol;
#X msg 802 1134 0;
#X symbolatom 951 1180 10 0 0 0 - - - 0 0, f 10;
#X obj 951 1159 tosymbol;
#X msg 882 1134 0;
#X text 1050 454 Debug row increment;
#X text 1030 434 Bangs every [speed] ticks;
#X obj 668 1096 route symbol;
#X obj 802 1096 route symbol;
#X obj 882 1096 route symbol;
#X obj 668 1054 list trim;
#X obj 802 1051 list trim;
#X obj 882 1051 list trim;
#X floatatom 13 509 5 0 127 0 - - - 0 0, f 5;
#X floatatom 13 533 5 0 127 0 - - - 0 0, f 5;
#X floatatom 13 556 5 0 127 0 - - - 0 0, f 5;
#X floatatom 13 579 5 0 127 0 - - - 0 0, f 5;
#X floatatom 13 602 5 0 127 0 - - - 0 0, f 5;
#X symbolatom 58 507 7 0 0 0 - - - 0 0, f 7;
#X symbolatom 58 530 7 0 0 0 - - - 0 0, f 7;
#X symbolatom 58 555 7 0 0 0 - - - 0 0, f 7;
#X symbolatom 58 578 7 0 0 0 - - - 0 0, f 7;
#X symbolatom 58 601 7 0 0 0 - - - 0 0, f 7;
#X symbolatom 113 508 7 0 0 0 - - - 0 0, f 7;
#X symbolatom 113 531 7 0 0 0 - - - 0 0, f 7;
#X symbolatom 113 556 7 0 0 0 - - - 0 0, f 7;
#X symbolatom 113 579 7 0 0 0 - - - 0 0, f 7;
#X symbolatom 113 602 7 0 0 0 - - - 0 0, f 7;
#X symbolatom 166 509 7 0 0 0 - - - 0 0, f 7;
#X symbolatom 166 532 7 0 0 0 - - - 0 0, f 7;
#X symbolatom 166 557 7 0 0 0 - - - 0 0, f 7;
#X symbolatom 166 580 7 0 0 0 - - - 0 0, f 7;
#X symbolatom 166 603 7 0 0 0 - - - 0 0, f 7;
#X floatatom 13 625 5 0 127 0 - - - 0 0, f 5;
#X floatatom 13 649 5 0 127 0 - - - 0 0, f 5;
#X floatatom 13 672 5 0 127 0 - - - 0 0, f 5;
#X floatatom 13 695 5 0 127 0 - - - 0 0, f 5;
#X floatatom 13 718 5 0 127 0 - - - 0 0, f 5;
#X symbolatom 58 623 7 0 0 0 - - - 0 0, f 7;
#X symbolatom 58 646 7 0 0 0 - - - 0 0, f 7;
#X symbolatom 58 671 7 0 0 0 - - - 0 0, f 7;
#X symbolatom 58 694 7 0 0 0 - - - 0 0, f 7;
#X symbolatom 58 717 7 0 0 0 - - - 0 0, f 7;
#X symbolatom 113 624 7 0 0 0 - - - 0 0, f 7;
#X symbolatom 113 647 7 0 0 0 - - - 0 0, f 7;
#X symbolatom 113 672 7 0 0 0 - - - 0 0, f 7;
#X symbolatom 113 695 7 0 0 0 - - - 0 0, f 7;
#X symbolatom 113 718 7 0 0 0 - - - 0 0, f 7;
#X symbolatom 166 625 7 0 0 0 - - - 0 0, f 7;
#X symbolatom 166 648 7 0 0 0 - - - 0 0, f 7;
#X symbolatom 166 673 7 0 0 0 - - - 0 0, f 7;
#X symbolatom 166 696 7 0 0 0 - - - 0 0, f 7;
#X symbolatom 166 719 7 0 0 0 - - - 0 0, f 7;
#X floatatom 13 741 5 0 127 0 - - - 0 0, f 5;
#X floatatom 13 765 5 0 127 0 - - - 0 0, f 5;
#X floatatom 13 788 5 0 127 0 - - - 0 0, f 5;
#X floatatom 13 811 5 0 127 0 - - - 0 0, f 5;
#X floatatom 13 834 5 0 127 0 - - - 0 0, f 5;
#X symbolatom 58 739 7 0 0 0 - - - 0 0, f 7;
#X symbolatom 58 762 7 0 0 0 - - - 0 0, f 7;
#X symbolatom 58 787 7 0 0 0 - - - 0 0, f 7;
#X symbolatom 58 810 7 0 0 0 - - - 0 0, f 7;
#X symbolatom 58 833 7 0 0 0 - - - 0 0, f 7;
#X symbolatom 113 740 7 0 0 0 - - - 0 0, f 7;
#X symbolatom 113 763 7 0 0 0 - - - 0 0, f 7;
#X symbolatom 113 788 7 0 0 0 - - - 0 0, f 7;
#X symbolatom 113 811 7 0 0 0 - - - 0 0, f 7;
#X symbolatom 113 834 7 0 0 0 - - - 0 0, f 7;
#X symbolatom 166 741 7 0 0 0 - - - 0 0, f 7;
#X symbolatom 166 764 7 0 0 0 - - - 0 0, f 7;
#X symbolatom 166 789 7 0 0 0 - - - 0 0, f 7;
#X symbolatom 166 812 7 0 0 0 - - - 0 0, f 7;
#X symbolatom 166 835 7 0 0 0 - - - 0 0, f 7;
#X floatatom 13 856 5 0 127 0 - - - 0 0, f 5;
#X floatatom 13 880 5 0 127 0 - - - 0 0, f 5;
#X floatatom 13 903 5 0 127 0 - - - 0 0, f 5;
#X floatatom 13 926 5 0 127 0 - - - 0 0, f 5;
#X floatatom 13 949 5 0 127 0 - - - 0 0, f 5;
#X symbolatom 58 854 7 0 0 0 - - - 0 0, f 7;
#X symbolatom 58 877 7 0 0 0 - - - 0 0, f 7;
#X symbolatom 58 902 7 0 0 0 - - - 0 0, f 7;
#X symbolatom 58 925 7 0 0 0 - - - 0 0, f 7;
#X symbolatom 58 948 7 0 0 0 - - - 0 0, f 7;
#X symbolatom 113 855 7 0 0 0 - - - 0 0, f 7;
#X symbolatom 113 878 7 0 0 0 - - - 0 0, f 7;
#X symbolatom 113 903 7 0 0 0 - - - 0 0, f 7;
#X symbolatom 113 926 7 0 0 0 - - - 0 0, f 7;
#X symbolatom 113 949 7 0 0 0 - - - 0 0, f 7;
#X symbolatom 166 856 7 0 0 0 - - - 0 0, f 7;
#X symbolatom 166 879 7 0 0 0 - - - 0 0, f 7;
#X symbolatom 166 904 7 0 0 0 - - - 0 0, f 7;
#X symbolatom 166 927 7 0 0 0 - - - 0 0, f 7;
#X symbolatom 166 950 7 0 0 0 - - - 0 0, f 7;
#X floatatom 14 971 5 0 127 0 - - - 0 0, f 5;
#X floatatom 14 995 5 0 127 0 - - - 0 0, f 5;
#X floatatom 14 1018 5 0 127 0 - - - 0 0, f 5;
#X floatatom 14 1041 5 0 127 0 - - - 0 0, f 5;
#X floatatom 14 1064 5 0 127 0 - - - 0 0, f 5;
#X symbolatom 59 969 7 0 0 0 - - - 0 0, f 7;
#X symbolatom 59 992 7 0 0 0 - - - 0 0, f 7;
#X symbolatom 59 1017 7 0 0 0 - - - 0 0, f 7;
#X symbolatom 59 1040 7 0 0 0 - - - 0 0, f 7;
#X symbolatom 59 1063 7 0 0 0 - - - 0 0, f 7;
#X symbolatom 114 970 7 0 0 0 - - - 0 0, f 7;
#X symbolatom 114 993 7 0 0 0 - - - 0 0, f 7;
#X symbolatom 114 1018 7 0 0 0 - - - 0 0, f 7;
#X symbolatom 114 1041 7 0 0 0 - - - 0 0, f 7;
#X symbolatom 114 1064 7 0 0 0 - - - 0 0, f 7;
#X symbolatom 167 971 7 0 0 0 - - - 0 0, f 7;
#X symbolatom 167 994 7 0 0 0 - - - 0 0, f 7;
#X symbolatom 167 1019 7 0 0 0 - - - 0 0, f 7;
#X symbolatom 167 1042 7 0 0 0 - - - 0 0, f 7;
#X symbolatom 167 1065 7 0 0 0 - - - 0 0, f 7;
#X floatatom 15 1086 5 0 127 0 - - - 0 0, f 5;
#X floatatom 15 1110 5 0 127 0 - - - 0 0, f 5;
#X symbolatom 60 1084 7 0 0 0 - - - 0 0, f 7;
#X symbolatom 60 1107 7 0 0 0 - - - 0 0, f 7;
#X symbolatom 115 1085 7 0 0 0 - - - 0 0, f 7;
#X symbolatom 115 1108 7 0 0 0 - - - 0 0, f 7;
#X symbolatom 168 1086 7 0 0 0 - - - 0 0, f 7;
#X symbolatom 168 1109 7 0 0 0 - - - 0 0, f 7;
#X text 83 360 1 - 32;
#X floatatom 288 391 5 0 127 0 - - - 0 0, f 5;
#X floatatom 288 415 5 0 127 0 - - - 0 0, f 5;
#X floatatom 288 438 5 0 127 0 - - - 0 0, f 5;
#X floatatom 288 461 5 0 127 0 - - - 0 0, f 5;
#X floatatom 288 484 5 0 127 0 - - - 0 0, f 5;
#X symbolatom 333 389 7 0 0 0 - - - 0 0, f 7;
#X symbolatom 333 412 7 0 0 0 - - - 0 0, f 7;
#X symbolatom 333 437 7 0 0 0 - - - 0 0, f 7;
#X symbolatom 333 460 7 0 0 0 - - - 0 0, f 7;
#X symbolatom 333 483 7 0 0 0 - - - 0 0, f 7;
#X symbolatom 388 390 7 0 0 0 - - - 0 0, f 7;
#X symbolatom 388 413 7 0 0 0 - - - 0 0, f 7;
#X symbolatom 388 438 7 0 0 0 - - - 0 0, f 7;
#X symbolatom 388 461 7 0 0 0 - - - 0 0, f 7;
#X symbolatom 388 484 7 0 0 0 - - - 0 0, f 7;
#X symbolatom 441 391 7 0 0 0 - - - 0 0, f 7;
#X symbolatom 441 414 7 0 0 0 - - - 0 0, f 7;
#X symbolatom 441 439 7 0 0 0 - - - 0 0, f 7;
#X symbolatom 441 462 7 0 0 0 - - - 0 0, f 7;
#X symbolatom 441 485 7 0 0 0 - - - 0 0, f 7;
#X floatatom 289 508 5 0 127 0 - - - 0 0, f 5;
#X floatatom 289 532 5 0 127 0 - - - 0 0, f 5;
#X floatatom 289 555 5 0 127 0 - - - 0 0, f 5;
#X floatatom 289 578 5 0 127 0 - - - 0 0, f 5;
#X floatatom 289 601 5 0 127 0 - - - 0 0, f 5;
#X symbolatom 334 506 7 0 0 0 - - - 0 0, f 7;
#X symbolatom 334 529 7 0 0 0 - - - 0 0, f 7;
#X symbolatom 334 554 7 0 0 0 - - - 0 0, f 7;
#X symbolatom 334 577 7 0 0 0 - - - 0 0, f 7;
#X symbolatom 334 600 7 0 0 0 - - - 0 0, f 7;
#X symbolatom 389 507 7 0 0 0 - - - 0 0, f 7;
#X symbolatom 389 530 7 0 0 0 - - - 0 0, f 7;
#X symbolatom 389 555 7 0 0 0 - - - 0 0, f 7;
#X symbolatom 389 578 7 0 0 0 - - - 0 0, f 7;
#X symbolatom 389 601 7 0 0 0 - - - 0 0, f 7;
#X symbolatom 442 508 7 0 0 0 - - - 0 0, f 7;
#X symbolatom 442 531 7 0 0 0 - - - 0 0, f 7;
#X symbolatom 442 556 7 0 0 0 - - - 0 0, f 7;
#X symbolatom 442 579 7 0 0 0 - - - 0 0, f 7;
#X symbolatom 442 602 7 0 0 0 - - - 0 0, f 7;
#X floatatom 289 624 5 0 127 0 - - - 0 0, f 5;
#X floatatom 289 648 5 0 127 0 - - - 0 0, f 5;
#X floatatom 289 671 5 0 127 0 - - - 0 0, f 5;
#X floatatom 289 694 5 0 127 0 - - - 0 0, f 5;
#X floatatom 289 717 5 0 127 0 - - - 0 0, f 5;
#X symbolatom 334 622 7 0 0 0 - - - 0 0, f 7;
#X symbolatom 334 645 7 0 0 0 - - - 0 0, f 7;
#X symbolatom 334 670 7 0 0 0 - - - 0 0, f 7;
#X symbolatom 334 693 7 0 0 0 - - - 0 0, f 7;
#X symbolatom 334 716 7 0 0 0 - - - 0 0, f 7;
#X symbolatom 389 623 7 0 0 0 - - - 0 0, f 7;
#X symbolatom 389 646 7 0 0 0 - - - 0 0, f 7;
#X symbolatom 389 671 7 0 0 0 - - - 0 0, f 7;
#X symbolatom 389 694 7 0 0 0 - - - 0 0, f 7;
#X symbolatom 389 717 7 0 0 0 - - - 0 0, f 7;
#X symbolatom 442 624 7 0 0 0 - - - 0 0, f 7;
#X symbolatom 442 647 7 0 0 0 - - - 0 0, f 7;
#X symbolatom 442 672 7 0 0 0 - - - 0 0, f 7;
#X symbolatom 442 695 7 0 0 0 - - - 0 0, f 7;
#X symbolatom 442 718 7 0 0 0 - - - 0 0, f 7;
#X floatatom 289 740 5 0 127 0 - - - 0 0, f 5;
#X floatatom 289 764 5 0 127 0 - - - 0 0, f 5;
#X floatatom 289 787 5 0 127 0 - - - 0 0, f 5;
#X floatatom 289 810 5 0 127 0 - - - 0 0, f 5;
#X floatatom 289 833 5 0 127 0 - - - 0 0, f 5;
#X symbolatom 334 738 7 0 0 0 - - - 0 0, f 7;
#X symbolatom 334 761 7 0 0 0 - - - 0 0, f 7;
#X symbolatom 334 786 7 0 0 0 - - - 0 0, f 7;
#X symbolatom 334 809 7 0 0 0 - - - 0 0, f 7;
#X symbolatom 334 832 7 0 0 0 - - - 0 0, f 7;
#X symbolatom 389 739 7 0 0 0 - - - 0 0, f 7;
#X symbolatom 389 762 7 0 0 0 - - - 0 0, f 7;
#X symbolatom 389 787 7 0 0 0 - - - 0 0, f 7;
#X symbolatom 389 810 7 0 0 0 - - - 0 0, f 7;
#X symbolatom 389 833 7 0 0 0 - - - 0 0, f 7;
#X symbolatom 442 740 7 0 0 0 - - - 0 0, f 7;
#X symbolatom 442 763 7 0 0 0 - - - 0 0, f 7;
#X symbolatom 442 788 7 0 0 0 - - - 0 0, f 7;
#X symbolatom 442 811 7 0 0 0 - - - 0 0, f 7;
#X symbolatom 442 834 7 0 0 0 - - - 0 0, f 7;
#X floatatom 289 855 5 0 127 0 - - - 0 0, f 5;
#X floatatom 289 879 5 0 127 0 - - - 0 0, f 5;
#X floatatom 289 902 5 0 127 0 - - - 0 0, f 5;
#X floatatom 289 925 5 0 127 0 - - - 0 0, f 5;
#X floatatom 289 948 5 0 127 0 - - - 0 0, f 5;
#X symbolatom 334 853 7 0 0 0 - - - 0 0, f 7;
#X symbolatom 334 876 7 0 0 0 - - - 0 0, f 7;
#X symbolatom 334 901 7 0 0 0 - - - 0 0, f 7;
#X symbolatom 334 924 7 0 0 0 - - - 0 0, f 7;
#X symbolatom 334 947 7 0 0 0 - - - 0 0, f 7;
#X symbolatom 389 854 7 0 0 0 - - - 0 0, f 7;
#X symbolatom 389 877 7 0 0 0 - - - 0 0, f 7;
#X symbolatom 389 902 7 0 0 0 - - - 0 0, f 7;
#X symbolatom 389 925 7 0 0 0 - - - 0 0, f 7;
#X symbolatom 389 948 7 0 0 0 - - - 0 0, f 7;
#X symbolatom 442 855 7 0 0 0 - - - 0 0, f 7;
#X symbolatom 442 878 7 0 0 0 - - - 0 0, f 7;
#X symbolatom 442 903 7 0 0 0 - - - 0 0, f 7;
#X symbolatom 442 926 7 0 0 0 - - - 0 0, f 7;
#X symbolatom 442 949 7 0 0 0 - - - 0 0, f 7;
#X floatatom 290 970 5 0 127 0 - - - 0 0, f 5;
#X floatatom 290 994 5 0 127 0 - - - 0 0, f 5;
#X floatatom 290 1017 5 0 127 0 - - - 0 0, f 5;
#X floatatom 290 1040 5 0 127 0 - - - 0 0, f 5;
#X floatatom 290 1063 5 0 127 0 - - - 0 0, f 5;
#X symbolatom 335 968 7 0 0 0 - - - 0 0, f 7;
#X symbolatom 335 991 7 0 0 0 - - - 0 0, f 7;
#X symbolatom 335 1016 7 0 0 0 - - - 0 0, f 7;
#X symbolatom 335 1039 7 0 0 0 - - - 0 0, f 7;
#X symbolatom 335 1062 7 0 0 0 - - - 0 0, f 7;
#X symbolatom 390 969 7 0 0 0 - - - 0 0, f 7;
#X symbolatom 390 992 7 0 0 0 - - - 0 0, f 7;
#X symbolatom 390 1017 7 0 0 0 - - - 0 0, f 7;
#X symbolatom 390 1040 7 0 0 0 - - - 0 0, f 7;
#X symbolatom 390 1063 7 0 0 0 - - - 0 0, f 7;
#X symbolatom 443 970 7 0 0 0 - - - 0 0, f 7;
#X symbolatom 443 993 7 0 0 0 - - - 0 0, f 7;
#X symbolatom 443 1018 7 0 0 0 - - - 0 0, f 7;
#X symbolatom 443 1041 7 0 0 0 - - - 0 0, f 7;
#X symbolatom 443 1064 7 0 0 0 - - - 0 0, f 7;
#X floatatom 291 1085 5 0 127 0 - - - 0 0, f 5;
#X floatatom 291 1109 5 0 127 0 - - - 0 0, f 5;
#X symbolatom 336 1083 7 0 0 0 - - - 0 0, f 7;
#X symbolatom 336 1106 7 0 0 0 - - - 0 0, f 7;
#X symbolatom 391 1084 7 0 0 0 - - - 0 0, f 7;
#X symbolatom 391 1107 7 0 0 0 - - - 0 0, f 7;
#X symbolatom 444 1085 7 0 0 0 - - - 0 0, f 7;
#X symbolatom 444 1108 7 0 0 0 - - - 0 0, f 7;
#X text 363 357 33 - 64;
#X obj 940 465 counter 1 64;
#X obj 888 532 select 1 2 3 4 5 6 7 8 9 10 11 12 13 14 15 16 17 18
19 20 21 22 23 24 25 26 27 28 29 30 31 32 33 34 35 36 37 38 39 40 41
42 43 44 45 46 47 48 49 50 51 52 53 54 55 56 57 58 59 60 61 62 63 64
;
#X obj 960 608 t b b b b;
#X obj 974 637 t b b b b;
#X obj 990 668 t b b b b;
#X obj 1003 697 t b b b b;
#X obj 1017 728 t b b b b;
#X obj 1028 607 t b b b b;
#X obj 1042 636 t b b b b;
#X obj 1058 667 t b b b b;
#X obj 1071 696 t b b b b;
#X obj 1085 727 t b b b b;
#X obj 1099 607 t b b b b;
#X obj 1113 636 t b b b b;
#X obj 1129 667 t b b b b;
#X obj 1142 696 t b b b b;
#X obj 1156 727 t b b b b;
#X obj 1170 608 t b b b b;
#X obj 1184 637 t b b b b;
#X obj 1200 668 t b b b b;
#X obj 1213 697 t b b b b;
#X obj 1227 728 t b b b b;
#X obj 1240 608 t b b b b;
#X obj 1254 637 t b b b b;
#X obj 1270 668 t b b b b;
#X obj 1283 697 t b b b b;
#X obj 1297 728 t b b b b;
#X obj 1308 609 t b b b b;
#X obj 1321 638 t b b b b;
#X obj 1337 669 t b b b b;
#X obj 1350 698 t b b b b;
#X obj 1364 729 t b b b b;
#X obj 1377 609 t b b b b;
#X obj 1391 638 t b b b b;
#X obj 1407 669 t b b b b;
#X obj 1420 698 t b b b b;
#X obj 1434 729 t b b b b;
#X obj 1445 608 t b b b b;
#X obj 1459 637 t b b b b;
#X obj 1475 668 t b b b b;
#X obj 1488 697 t b b b b;
#X obj 1502 728 t b b b b;
#X obj 1516 608 t b b b b;
#X obj 1530 637 t b b b b;
#X obj 1546 668 t b b b b;
#X obj 1559 697 t b b b b;
#X obj 1573 728 t b b b b;
#X obj 1587 609 t b b b b;
#X obj 1601 638 t b b b b;
#X obj 1617 669 t b b b b;
#X obj 1630 698 t b b b b;
#X obj 1644 729 t b b b b;
#X obj 1657 609 t b b b b;
#X obj 1671 638 t b b b b;
#X obj 1687 669 t b b b b;
#X obj 1700 698 t b b b b;
#X obj 1714 729 t b b b b;
#X obj 1728 609 t b b b b;
#X obj 1742 638 t b b b b;
#X obj 1758 669 t b b b b;
#X obj 1771 698 t b b b b;
#X obj 667 1024 s2l;
#X obj 800 1019 s2l;
#X obj 883 1020 s2l;
#X obj -1512 338 gate 256;
#X obj 196 281 counter 0 256;
#X obj 61 25 keyname;
#X obj 59 53 sel Up Left Down Right;
#X text 8 -23 Key Commands:- Space to commit- Arrow keys for main
movement;
#X obj 9 54 sel 32;
#X obj 60 82 counter 1 2;
#X obj 138 82 counter 1 2;
#X obj 218 83 counter 1 2;
#X obj 295 82 counter 1;
#X obj 60 107 sel 1;
#X obj 218 108 sel 1;
#X obj 138 107 sel 1;
#X obj 295 107 sel 1;
#X connect 0 0 398 0;
#X connect 1 0 394 0;
#X connect 2 0 394 0;
#X connect 3 0 46 1;
#X connect 4 0 46 1;
#X connect 5 0 46 1;
#X connect 6 0 46 1;
#X connect 7 0 46 1;
#X connect 9 0 393 1;
#X connect 10 0 9 0;
#X connect 10 1 26 0;
#X connect 11 0 9 0;
#X connect 11 1 2 0;
#X connect 12 0 9 0;
#X connect 12 1 27 0;
#X connect 13 0 9 0;
#X connect 13 1 1 0;
#X connect 14 0 393 1;
#X connect 16 0 20 0;
#X connect 17 0 20 0;
#X connect 18 0 16 0;
#X connect 19 0 17 0;
#X connect 20 0 21 0;
#X connect 21 0 22 0;
#X connect 22 0 23 0;
#X connect 23 0 24 0;
#X connect 25 0 329 0;
#X connect 26 0 2 0;
#X connect 26 1 2 0;
#X connect 26 2 2 0;
#X connect 26 3 2 0;
#X connect 27 0 1 0;
#X connect 27 1 1 0;
#X connect 27 2 1 0;
#X connect 27 3 1 0;
#X connect 29 0 390 0;
#X connect 30 0 390 0;
#X connect 31 0 390 0;
#X connect 32 0 390 0;
#X connect 33 0 390 0;
#X connect 34 0 391 0;
#X connect 35 0 391 0;
#X connect 36 0 391 0;
#X connect 37 0 391 0;
#X connect 38 0 391 0;
#X connect 39 0 392 0;
#X connect 40 0 392 0;
#X connect 41 0 392 0;
#X connect 42 0 392 0;
#X connect 43 0 392 0;
#X connect 44 0 47 1;
#X connect 45 0 15 0;
#X connect 45 0 330 0;
#X connect 45 1 46 0;
#X connect 45 2 47 0;
#X connect 46 0 71 0;
#X connect 46 1 71 0;
#X connect 46 2 71 0;
#X connect 46 3 71 0;
#X connect 46 4 71 0;
#X connect 47 0 70 0;
#X connect 47 1 70 0;
#X connect 47 2 70 0;
#X connect 47 3 70 0;
#X connect 47 4 70 0;
#X connect 48 0 3 0;
#X connect 48 1 29 0;
#X connect 48 2 34 0;
#X connect 48 3 39 0;
#X connect 49 0 4 0;
#X connect 49 1 30 0;
#X connect 49 2 35 0;
#X connect 49 3 40 0;
#X connect 50 0 5 0;
#X connect 50 1 31 0;
#X connect 50 2 36 0;
#X connect 50 3 41 0;
#X connect 51 0 6 0;
#X connect 51 1 32 0;
#X connect 51 2 37 0;
#X connect 51 3 42 0;
#X connect 52 0 7 0;
#X connect 52 1 33 0;
#X connect 52 2 38 0;
#X connect 52 3 43 0;
#X connect 53 0 54 0;
#X connect 53 0 56 0;
#X connect 54 0 59 0;
#X connect 56 0 57 0;
#X connect 58 0 53 0;
#X connect 60 0 61 0;
#X connect 61 0 58 0;
#X connect 62 0 63 0;
#X connect 62 0 65 0;
#X connect 63 0 68 0;
#X connect 65 0 66 0;
#X connect 67 0 62 0;
#X connect 69 0 67 0;
#X connect 70 0 69 0;
#X connect 71 1 60 0;
#X connect 73 0 329 0;
#X connect 74 0 76 0;
#X connect 75 0 44 0;
#X connect 76 0 75 0;
#X connect 77 0 44 1;
#X connect 78 0 77 0;
#X connect 79 0 78 0;
#X connect 80 0 44 2;
#X connect 81 0 80 0;
#X connect 82 0 81 0;
#X connect 85 0 74 0;
#X connect 85 1 76 0;
#X connect 86 0 79 0;
#X connect 86 1 78 0;
#X connect 87 0 82 0;
#X connect 87 1 81 0;
#X connect 88 0 85 0;
#X connect 89 0 86 0;
#X connect 90 0 87 0;
#X connect 91 0 46 1;
#X connect 92 0 46 1;
#X connect 93 0 46 1;
#X connect 94 0 46 1;
#X connect 95 0 46 1;
#X connect 96 0 390 0;
#X connect 97 0 390 0;
#X connect 98 0 390 0;
#X connect 99 0 390 0;
#X connect 100 0 390 0;
#X connect 101 0 391 0;
#X connect 102 0 391 0;
#X connect 103 0 391 0;
#X connect 104 0 391 0;
#X connect 105 0 391 0;
#X connect 106 0 392 0;
#X connect 107 0 392 0;
#X connect 108 0 392 0;
#X connect 109 0 392 0;
#X connect 110 0 392 0;
#X connect 111 0 46 1;
#X connect 112 0 46 1;
#X connect 113 0 46 1;
#X connect 114 0 46 1;
#X connect 115 0 46 1;
#X connect 116 0 390 0;
#X connect 117 0 390 0;
#X connect 118 0 390 0;
#X connect 119 0 390 0;
#X connect 120 0 390 0;
#X connect 121 0 391 0;
#X connect 122 0 391 0;
#X connect 123 0 391 0;
#X connect 124 0 391 0;
#X connect 125 0 391 0;
#X connect 126 0 392 0;
#X connect 127 0 392 0;
#X connect 128 0 392 0;
#X connect 129 0 392 0;
#X connect 130 0 392 0;
#X connect 131 0 46 1;
#X connect 132 0 46 1;
#X connect 133 0 46 1;
#X connect 134 0 46 1;
#X connect 135 0 46 1;
#X connect 136 0 390 0;
#X connect 137 0 390 0;
#X connect 138 0 390 0;
#X connect 139 0 390 0;
#X connect 140 0 390 0;
#X connect 141 0 391 0;
#X connect 142 0 391 0;
#X connect 143 0 391 0;
#X connect 144 0 391 0;
#X connect 145 0 391 0;
#X connect 146 0 392 0;
#X connect 147 0 392 0;
#X connect 148 0 392 0;
#X connect 149 0 392 0;
#X connect 150 0 392 0;
#X connect 151 0 46 1;
#X connect 152 0 46 1;
#X connect 153 0 46 1;
#X connect 154 0 46 1;
#X connect 155 0 46 1;
#X connect 156 0 390 0;
#X connect 157 0 390 0;
#X connect 158 0 390 0;
#X connect 159 0 390 0;
#X connect 160 0 390 0;
#X connect 161 0 391 0;
#X connect 162 0 391 0;
#X connect 163 0 391 0;
#X connect 164 0 391 0;
#X connect 165 0 391 0;
#X connect 166 0 392 0;
#X connect 167 0 392 0;
#X connect 168 0 392 0;
#X connect 169 0 392 0;
#X connect 170 0 392 0;
#X connect 171 0 46 1;
#X connect 172 0 46 1;
#X connect 173 0 46 1;
#X connect 174 0 46 1;
#X connect 175 0 46 1;
#X connect 176 0 390 0;
#X connect 177 0 390 0;
#X connect 178 0 390 0;
#X connect 179 0 390 0;
#X connect 180 0 390 0;
#X connect 181 0 391 0;
#X connect 182 0 391 0;
#X connect 183 0 391 0;
#X connect 184 0 391 0;
#X connect 185 0 391 0;
#X connect 186 0 392 0;
#X connect 187 0 392 0;
#X connect 188 0 392 0;
#X connect 189 0 392 0;
#X connect 190 0 392 0;
#X connect 191 0 46 1;
#X connect 192 0 46 1;
#X connect 193 0 390 0;
#X connect 194 0 390 0;
#X connect 195 0 391 0;
#X connect 196 0 391 0;
#X connect 197 0 392 0;
#X connect 198 0 392 0;
#X connect 200 0 46 1;
#X connect 201 0 46 1;
#X connect 202 0 46 1;
#X connect 203 0 46 1;
#X connect 204 0 46 1;
#X connect 205 0 390 0;
#X connect 206 0 390 0;
#X connect 207 0 390 0;
#X connect 208 0 390 0;
#X connect 209 0 390 0;
#X connect 210 0 391 0;
#X connect 211 0 391 0;
#X connect 212 0 391 0;
#X connect 213 0 391 0;
#X connect 214 0 391 0;
#X connect 215 0 392 0;
#X connect 216 0 392 0;
#X connect 217 0 392 0;
#X connect 218 0 392 0;
#X connect 219 0 392 0;
#X connect 220 0 46 1;
#X connect 221 0 46 1;
#X connect 222 0 46 1;
#X connect 223 0 46 1;
#X connect 224 0 46 1;
#X connect 225 0 390 0;
#X connect 226 0 390 0;
#X connect 227 0 390 0;
#X connect 228 0 390 0;
#X connect 229 0 390 0;
#X connect 230 0 391 0;
#X connect 231 0 391 0;
#X connect 232 0 391 0;
#X connect 233 0 391 0;
#X connect 234 0 391 0;
#X connect 235 0 392 0;
#X connect 236 0 392 0;
#X connect 237 0 392 0;
#X connect 238 0 392 0;
#X connect 239 0 392 0;
#X connect 240 0 46 1;
#X connect 241 0 46 1;
#X connect 242 0 46 1;
#X connect 243 0 46 1;
#X connect 244 0 46 1;
#X connect 245 0 390 0;
#X connect 246 0 390 0;
#X connect 247 0 390 0;
#X connect 248 0 390 0;
#X connect 249 0 390 0;
#X connect 250 0 391 0;
#X connect 251 0 391 0;
#X connect 252 0 391 0;
#X connect 253 0 391 0;
#X connect 254 0 391 0;
#X connect 255 0 392 0;
#X connect 256 0 392 0;
#X connect 257 0 392 0;
#X connect 258 0 392 0;
#X connect 259 0 392 0;
#X connect 260 0 46 1;
#X connect 261 0 46 1;
#X connect 262 0 46 1;
#X connect 263 0 46 1;
#X connect 264 0 46 1;
#X connect 265 0 390 0;
#X connect 266 0 390 0;
#X connect 267 0 390 0;
#X connect 268 0 390 0;
#X connect 269 0 390 0;
#X connect 270 0 391 0;
#X connect 271 0 391 0;
#X connect 272 0 391 0;
#X connect 273 0 391 0;
#X connect 274 0 391 0;
#X connect 275 0 392 0;
#X connect 276 0 392 0;
#X connect 277 0 392 0;
#X connect 278 0 392 0;
#X connect 279 0 392 0;
#X connect 280 0 46 1;
#X connect 281 0 46 1;
#X connect 282 0 46 1;
#X connect 283 0 46 1;
#X connect 284 0 46 1;
#X connect 285 0 390 0;
#X connect 286 0 390 0;
#X connect 287 0 390 0;
#X connect 288 0 390 0;
#X connect 289 0 390 0;
#X connect 290 0 391 0;
#X connect 291 0 391 0;
#X connect 292 0 391 0;
#X connect 293 0 391 0;
#X connect 294 0 391 0;
#X connect 295 0 392 0;
#X connect 296 0 392 0;
#X connect 297 0 392 0;
#X connect 298 0 392 0;
#X connect 299 0 392 0;
#X connect 300 0 46 1;
#X connect 301 0 46 1;
#X connect 302 0 46 1;
#X connect 303 0 46 1;
#X connect 304 0 46 1;
#X connect 305 0 390 0;
#X connect 306 0 390 0;
#X connect 307 0 390 0;
#X connect 308 0 390 0;
#X connect 309 0 390 0;
#X connect 310 0 391 0;
#X connect 311 0 391 0;
#X connect 312 0 391 0;
#X connect 313 0 391 0;
#X connect 314 0 391 0;
#X connect 315 0 392 0;
#X connect 316 0 392 0;
#X connect 317 0 392 0;
#X connect 318 0 392 0;
#X connect 319 0 392 0;
#X connect 320 0 46 1;
#X connect 321 0 46 1;
#X connect 322 0 390 0;
#X connect 323 0 390 0;
#X connect 324 0 391 0;
#X connect 325 0 391 0;
#X connect 326 0 392 0;
#X connect 327 0 392 0;
#X connect 329 0 45 0;
#X connect 330 0 48 0;
#X connect 330 1 49 0;
#X connect 330 2 50 0;
#X connect 330 3 51 0;
#X connect 330 4 52 0;
#X connect 330 5 331 0;
#X connect 330 6 332 0;
#X connect 330 7 333 0;
#X connect 330 8 334 0;
#X connect 330 9 335 0;
#X connect 330 10 336 0;
#X connect 330 11 337 0;
#X connect 330 12 338 0;
#X connect 330 13 339 0;
#X connect 330 14 340 0;
#X connect 330 15 341 0;
#X connect 330 16 342 0;
#X connect 330 17 343 0;
#X connect 330 18 344 0;
#X connect 330 19 345 0;
#X connect 330 20 346 0;
#X connect 330 21 347 0;
#X connect 330 22 348 0;
#X connect 330 23 349 0;
#X connect 330 24 350 0;
#X connect 330 25 351 0;
#X connect 330 26 352 0;
#X connect 330 27 353 0;
#X connect 330 28 354 0;
#X connect 330 29 355 0;
#X connect 330 30 356 0;
#X connect 330 31 357 0;
#X connect 330 32 358 0;
#X connect 330 33 359 0;
#X connect 330 34 360 0;
#X connect 330 35 361 0;
#X connect 330 36 362 0;
#X connect 330 37 363 0;
#X connect 330 38 364 0;
#X connect 330 39 365 0;
#X connect 330 40 366 0;
#X connect 330 41 367 0;
#X connect 330 42 368 0;
#X connect 330 43 369 0;
#X connect 330 44 370 0;
#X connect 330 45 371 0;
#X connect 330 46 372 0;
#X connect 330 47 373 0;
#X connect 330 48 374 0;
#X connect 330 49 375 0;
#X connect 330 50 376 0;
#X connect 330 51 377 0;
#X connect 330 52 378 0;
#X connect 330 53 379 0;
#X connect 330 54 380 0;
#X connect 330 55 381 0;
#X connect 330 56 382 0;
#X connect 330 57 383 0;
#X connect 330 58 384 0;
#X connect 330 59 385 0;
#X connect 330 60 386 0;
#X connect 330 61 387 0;
#X connect 330 62 388 0;
#X connect 330 63 389 0;
#X connect 331 0 91 0;
#X connect 331 1 96 0;
#X connect 331 2 101 0;
#X connect 331 3 106 0;
#X connect 332 0 92 0;
#X connect 332 1 97 0;
#X connect 332 2 102 0;
#X connect 332 3 107 0;
#X connect 333 0 93 0;
#X connect 333 1 98 0;
#X connect 333 2 103 0;
#X connect 333 3 108 0;
#X connect 334 0 94 0;
#X connect 334 1 99 0;
#X connect 334 2 104 0;
#X connect 334 3 109 0;
#X connect 335 0 95 0;
#X connect 335 1 100 0;
#X connect 335 2 105 0;
#X connect 335 3 110 0;
#X connect 336 0 111 0;
#X connect 336 1 116 0;
#X connect 336 2 121 0;
#X connect 336 3 126 0;
#X connect 337 0 112 0;
#X connect 337 1 117 0;
#X connect 337 2 122 0;
#X connect 337 3 127 0;
#X connect 338 0 113 0;
#X connect 338 1 118 0;
#X connect 338 2 123 0;
#X connect 338 3 128 0;
#X connect 339 0 114 0;
#X connect 339 1 119 0;
#X connect 339 2 124 0;
#X connect 339 3 129 0;
#X connect 340 0 115 0;
#X connect 340 1 120 0;
#X connect 340 2 125 0;
#X connect 340 3 130 0;
#X connect 341 0 131 0;
#X connect 341 1 136 0;
#X connect 341 2 141 0;
#X connect 341 3 146 0;
#X connect 342 0 132 0;
#X connect 342 1 137 0;
#X connect 342 2 142 0;
#X connect 342 3 147 0;
#X connect 343 0 133 0;
#X connect 343 1 138 0;
#X connect 343 2 143 0;
#X connect 343 3 148 0;
#X connect 344 0 134 0;
#X connect 344 1 139 0;
#X connect 344 2 144 0;
#X connect 344 3 149 0;
#X connect 345 0 135 0;
#X connect 345 1 140 0;
#X connect 345 2 145 0;
#X connect 345 3 150 0;
#X connect 346 0 151 0;
#X connect 346 1 156 0;
#X connect 346 2 161 0;
#X connect 346 3 166 0;
#X connect 347 0 152 0;
#X connect 347 1 157 0;
#X connect 347 2 162 0;
#X connect 347 3 167 0;
#X connect 348 0 153 0;
#X connect 348 1 158 0;
#X connect 348 2 163 0;
#X connect 348 3 168 0;
#X connect 349 0 154 0;
#X connect 349 1 159 0;
#X connect 349 2 164 0;
#X connect 349 3 169 0;
#X connect 350 0 155 0;
#X connect 350 1 160 0;
#X connect 350 2 165 0;
#X connect 350 3 170 0;
#X connect 351 0 171 0;
#X connect 351 1 176 0;
#X connect 351 2 181 0;
#X connect 351 3 186 0;
#X connect 352 0 172 0;
#X connect 352 1 177 0;
#X connect 352 2 182 0;
#X connect 352 3 187 0;
#X connect 353 0 173 0;
#X connect 353 1 178 0;
#X connect 353 2 183 0;
#X connect 353 3 188 0;
#X connect 354 0 174 0;
#X connect 354 1 179 0;
#X connect 354 2 184 0;
#X connect 354 3 189 0;
#X connect 355 0 175 0;
#X connect 355 1 180 0;
#X connect 355 2 185 0;
#X connect 355 3 190 0;
#X connect 356 0 191 0;
#X connect 356 1 193 0;
#X connect 356 2 195 0;
#X connect 356 3 197 0;
#X connect 357 0 192 0;
#X connect 357 1 194 0;
#X connect 357 2 196 0;
#X connect 357 3 198 0;
#X connect 358 0 200 0;
#X connect 358 1 205 0;
#X connect 358 2 210 0;
#X connect 358 3 215 0;
#X connect 359 0 201 0;
#X connect 359 1 206 0;
#X connect 359 2 211 0;
#X connect 359 3 216 0;
#X connect 360 0 202 0;
#X connect 360 1 207 0;
#X connect 360 2 212 0;
#X connect 360 3 217 0;
#X connect 361 0 203 0;
#X connect 361 1 208 0;
#X connect 361 2 213 0;
#X connect 361 3 218 0;
#X connect 362 0 204 0;
#X connect 362 1 209 0;
#X connect 362 2 214 0;
#X connect 362 3 219 0;
#X connect 363 0 220 0;
#X connect 363 1 225 0;
#X connect 363 2 230 0;
#X connect 363 3 235 0;
#X connect 364 0 221 0;
#X connect 364 1 226 0;
#X connect 364 2 231 0;
#X connect 364 3 236 0;
#X connect 365 0 222 0;
#X connect 365 1 227 0;
#X connect 365 2 232 0;
#X connect 365 3 237 0;
#X connect 366 0 223 0;
#X connect 366 1 228 0;
#X connect 366 2 233 0;
#X connect 366 3 238 0;
#X connect 367 0 224 0;
#X connect 367 1 229 0;
#X connect 367 2 234 0;
#X connect 367 3 239 0;
#X connect 368 0 240 0;
#X connect 368 1 245 0;
#X connect 368 2 250 0;
#X connect 368 3 255 0;
#X connect 369 0 241 0;
#X connect 369 1 246 0;
#X connect 369 2 251 0;
#X connect 369 3 256 0;
#X connect 370 0 242 0;
#X connect 370 1 247 0;
#X connect 370 2 252 0;
#X connect 370 3 257 0;
#X connect 371 0 243 0;
#X connect 371 1 248 0;
#X connect 371 2 253 0;
#X connect 371 3 258 0;
#X connect 372 0 244 0;
#X connect 372 1 249 0;
#X connect 372 2 254 0;
#X connect 372 3 259 0;
#X connect 373 0 260 0;
#X connect 373 1 265 0;
#X connect 373 2 270 0;
#X connect 373 3 275 0;
#X connect 374 0 261 0;
#X connect 374 1 266 0;
#X connect 374 2 271 0;
#X connect 374 3 276 0;
#X connect 375 0 262 0;
#X connect 375 1 267 0;
#X connect 375 2 272 0;
#X connect 375 3 277 0;
#X connect 376 0 263 0;
#X connect 376 1 268 0;
#X connect 376 2 273 0;
#X connect 376 3 278 0;
#X connect 377 0 264 0;
#X connect 377 1 269 0;
#X connect 377 2 274 0;
#X connect 377 3 279 0;
#X connect 378 0 280 0;
#X connect 378 1 285 0;
#X connect 378 2 290 0;
#X connect 378 3 295 0;
#X connect 379 0 281 0;
#X connect 379 1 286 0;
#X connect 379 2 291 0;
#X connect 379 3 296 0;
#X connect 380 0 282 0;
#X connect 380 1 287 0;
#X connect 380 2 292 0;
#X connect 380 3 297 0;
#X connect 381 0 283 0;
#X connect 381 1 288 0;
#X connect 381 2 293 0;
#X connect 381 3 298 0;
#X connect 382 0 284 0;
#X connect 382 1 289 0;
#X connect 382 2 294 0;
#X connect 382 3 299 0;
#X connect 383 0 300 0;
#X connect 383 1 305 0;
#X connect 383 2 310 0;
#X connect 383 3 315 0;
#X connect 384 0 301 0;
#X connect 384 1 306 0;
#X connect 384 2 311 0;
#X connect 384 3 316 0;
#X connect 385 0 302 0;
#X connect 385 1 307 0;
#X connect 385 2 312 0;
#X connect 385 3 317 0;
#X connect 386 0 303 0;
#X connect 386 1 308 0;
#X connect 386 2 313 0;
#X connect 386 3 318 0;
#X connect 387 0 304 0;
#X connect 387 1 309 0;
#X connect 387 2 314 0;
#X connect 387 3 319 0;
#X connect 388 0 320 0;
#X connect 388 1 322 0;
#X connect 388 2 324 0;
#X connect 388 3 326 0;
#X connect 389 0 321 0;
#X connect 389 1 323 0;
#X connect 389 2 325 0;
#X connect 389 3 327 0;
#X connect 390 0 88 0;
#X connect 391 0 89 0;
#X connect 392 0 90 0;
#X connect 393 0 3 0;
#X connect 393 1 29 0;
#X connect 393 2 34 0;
#X connect 393 3 39 0;
#X connect 393 4 4 0;
#X connect 393 5 30 0;
#X connect 393 6 35 0;
#X connect 393 7 40 0;
#X connect 393 8 5 0;
#X connect 393 9 31 0;
#X connect 393 10 36 0;
#X connect 393 11 41 0;
#X connect 393 12 6 0;
#X connect 393 13 32 0;
#X connect 393 14 37 0;
#X connect 393 15 42 0;
#X connect 393 16 7 0;
#X connect 393 17 33 0;
#X connect 393 18 38 0;
#X connect 393 19 43 0;
#X connect 393 20 91 0;
#X connect 393 21 96 0;
#X connect 393 22 101 0;
#X connect 393 23 106 0;
#X connect 393 24 92 0;
#X connect 393 25 97 0;
#X connect 393 26 102 0;
#X connect 393 27 107 0;
#X connect 393 28 93 0;
#X connect 393 29 98 0;
#X connect 393 30 103 0;
#X connect 393 31 108 0;
#X connect 393 32 94 0;
#X connect 393 33 99 0;
#X connect 393 34 104 0;
#X connect 393 35 109 0;
#X connect 393 36 95 0;
#X connect 393 37 100 0;
#X connect 393 38 105 0;
#X connect 393 39 110 0;
#X connect 393 40 111 0;
#X connect 393 41 116 0;
#X connect 393 42 121 0;
#X connect 393 43 126 0;
#X connect 393 44 112 0;
#X connect 393 45 117 0;
#X connect 393 46 122 0;
#X connect 393 47 127 0;
#X connect 393 48 113 0;
#X connect 393 49 118 0;
#X connect 393 50 123 0;
#X connect 393 51 128 0;
#X connect 393 52 114 0;
#X connect 393 53 119 0;
#X connect 393 54 124 0;
#X connect 393 55 129 0;
#X connect 393 56 115 0;
#X connect 393 57 120 0;
#X connect 393 58 125 0;
#X connect 393 59 130 0;
#X connect 393 60 131 0;
#X connect 393 61 136 0;
#X connect 393 62 141 0;
#X connect 393 63 146 0;
#X connect 393 64 132 0;
#X connect 393 65 137 0;
#X connect 393 66 142 0;
#X connect 393 67 147 0;
#X connect 393 68 133 0;
#X connect 393 69 138 0;
#X connect 393 70 143 0;
#X connect 393 71 148 0;
#X connect 393 72 134 0;
#X connect 393 73 139 0;
#X connect 393 74 144 0;
#X connect 393 75 149 0;
#X connect 393 76 135 0;
#X connect 393 77 140 0;
#X connect 393 78 145 0;
#X connect 393 79 150 0;
#X connect 393 80 151 0;
#X connect 393 81 156 0;
#X connect 393 82 161 0;
#X connect 393 83 166 0;
#X connect 393 84 152 0;
#X connect 393 85 157 0;
#X connect 393 86 162 0;
#X connect 393 87 167 0;
#X connect 393 88 153 0;
#X connect 393 89 158 0;
#X connect 393 90 163 0;
#X connect 393 91 168 0;
#X connect 393 92 154 0;
#X connect 393 93 159 0;
#X connect 393 94 164 0;
#X connect 393 95 169 0;
#X connect 393 96 155 0;
#X connect 393 97 160 0;
#X connect 393 98 165 0;
#X connect 393 99 170 0;
#X connect 393 100 171 0;
#X connect 393 101 176 0;
#X connect 393 102 181 0;
#X connect 393 103 186 0;
#X connect 393 104 172 0;
#X connect 393 105 177 0;
#X connect 393 106 182 0;
#X connect 393 107 187 0;
#X connect 393 108 173 0;
#X connect 393 109 178 0;
#X connect 393 110 183 0;
#X connect 393 111 188 0;
#X connect 393 112 174 0;
#X connect 393 113 179 0;
#X connect 393 114 184 0;
#X connect 393 115 189 0;
#X connect 393 116 175 0;
#X connect 393 117 180 0;
#X connect 393 118 185 0;
#X connect 393 119 190 0;
#X connect 393 120 191 0;
#X connect 393 121 193 0;
#X connect 393 122 195 0;
#X connect 393 123 197 0;
#X connect 393 124 192 0;
#X connect 393 125 194 0;
#X connect 393 126 196 0;
#X connect 393 127 198 0;
#X connect 393 128 200 0;
#X connect 393 129 205 0;
#X connect 393 130 210 0;
#X connect 393 131 215 0;
#X connect 393 132 201 0;
#X connect 393 133 206 0;
#X connect 393 134 211 0;
#X connect 393 135 216 0;
#X connect 393 136 202 0;
#X connect 393 137 207 0;
#X connect 393 138 212 0;
#X connect 393 139 217 0;
#X connect 393 140 203 0;
#X connect 393 141 208 0;
#X connect 393 142 213 0;
#X connect 393 143 218 0;
#X connect 393 144 204 0;
#X connect 393 145 209 0;
#X connect 393 146 214 0;
#X connect 393 147 219 0;
#X connect 393 148 220 0;
#X connect 393 149 225 0;
#X connect 393 150 230 0;
#X connect 393 151 235 0;
#X connect 393 152 221 0;
#X connect 393 153 226 0;
#X connect 393 154 231 0;
#X connect 393 155 236 0;
#X connect 393 156 222 0;
#X connect 393 157 227 0;
#X connect 393 158 232 0;
#X connect 393 159 237 0;
#X connect 393 160 223 0;
#X connect 393 161 228 0;
#X connect 393 162 233 0;
#X connect 393 163 238 0;
#X connect 393 164 224 0;
#X connect 393 165 229 0;
#X connect 393 166 234 0;
#X connect 393 167 239 0;
#X connect 393 168 240 0;
#X connect 393 169 245 0;
#X connect 393 170 250 0;
#X connect 393 171 255 0;
#X connect 393 172 241 0;
#X connect 393 173 246 0;
#X connect 393 174 251 0;
#X connect 393 175 256 0;
#X connect 393 176 242 0;
#X connect 393 177 247 0;
#X connect 393 178 252 0;
#X connect 393 179 257 0;
#X connect 393 180 243 0;
#X connect 393 181 248 0;
#X connect 393 182 253 0;
#X connect 393 183 258 0;
#X connect 393 184 244 0;
#X connect 393 185 249 0;
#X connect 393 186 254 0;
#X connect 393 187 259 0;
#X connect 393 188 260 0;
#X connect 393 189 265 0;
#X connect 393 190 270 0;
#X connect 393 191 275 0;
#X connect 393 192 261 0;
#X connect 393 193 266 0;
#X connect 393 194 271 0;
#X connect 393 195 276 0;
#X connect 393 196 262 0;
#X connect 393 197 267 0;
#X connect 393 198 272 0;
#X connect 393 199 277 0;
#X connect 393 200 263 0;
#X connect 393 201 268 0;
#X connect 393 202 273 0;
#X connect 393 203 278 0;
#X connect 393 204 264 0;
#X connect 393 205 269 0;
#X connect 393 206 274 0;
#X connect 393 207 279 0;
#X connect 393 208 280 0;
#X connect 393 209 285 0;
#X connect 393 210 290 0;
#X connect 393 211 295 0;
#X connect 393 212 281 0;
#X connect 393 213 286 0;
#X connect 393 214 291 0;
#X connect 393 215 296 0;
#X connect 393 216 282 0;
#X connect 393 217 287 0;
#X connect 393 218 292 0;
#X connect 393 219 297 0;
#X connect 393 220 283 0;
#X connect 393 221 288 0;
#X connect 393 222 293 0;
#X connect 393 223 298 0;
#X connect 393 224 284 0;
#X connect 393 225 289 0;
#X connect 393 226 294 0;
#X connect 393 227 299 0;
#X connect 393 228 300 0;
#X connect 393 229 305 0;
#X connect 393 230 310 0;
#X connect 393 231 315 0;
#X connect 393 232 301 0;
#X connect 393 233 306 0;
#X connect 393 234 311 0;
#X connect 393 235 316 0;
#X connect 393 236 302 0;
#X connect 393 237 307 0;
#X connect 393 238 312 0;
#X connect 393 239 317 0;
#X connect 393 240 303 0;
#X connect 393 241 308 0;
#X connect 393 242 313 0;
#X connect 393 243 318 0;
#X connect 393 244 304 0;
#X connect 393 245 309 0;
#X connect 393 246 314 0;
#X connect 393 247 319 0;
#X connect 393 248 320 0;
#X connect 393 249 322 0;
#X connect 393 250 324 0;
#X connect 393 251 326 0;
#X connect 393 252 321 0;
#X connect 393 253 323 0;
#X connect 393 254 325 0;
#X connect 393 255 327 0;
#X connect 394 0 393 0;
#X connect 395 1 396 0;
#X connect 396 0 399 0;
#X connect 396 1 400 0;
#X connect 396 2 401 0;
#X connect 396 3 402 0;
#X connect 398 0 14 0;
#X connect 399 0 403 0;
#X connect 400 0 405 0;
#X connect 401 0 404 0;
#X connect 402 0 406 0;
#X connect 403 0 10 0;
#X connect 404 0 12 0;
#X connect 405 0 11 0;
#X connect 406 0 13 0;
#X coords 0 -1 1 1 490 754 2 6 381;
#X restore 239 267 pd key-commands;
#X obj 239 249 cnv 1 1 1 empty empty SEQUENCER 10 0 1 18 #e0e0e0 #f176dd
0;
#X obj 743 271 bng 38 250 50 0 \$0-startSequence null-r empty 17 7
0 10 #00ff1a #000000 #000000;
#X obj 743 324 bng 38 250 50 0 \$0-stopSequence null-r empty 17 7 0
10 #ea1909 #ffffff #ffffff;
#X obj 790 290 cnv 1 1 1 empty empty START 11 -1 0 14 #e0e0e0 #00ee76
0;
#X obj 792 341 cnv 1 1 1 empty empty STOP 10 -1 0 14 #e0e0e0 #fc0000
0;
#X obj 746 399 cnv 1 1 1 empty empty INSTRUCTIONS: 13 -1 0 14 #e0e0e0
#ff8fff 0;
#X obj 745 416 cnv 1 1 1 empty empty Arrow\ keys\ to\ navigate\ tracker
11 -2 0 10 #e0e0e0 #ffaeff 0;
#X obj 0 533 cnv 1 1 1 empty empty Arrow\ keys\ to\ navigate\ tracker
11 -2 0 10 #e0e0e0 #ffaeff 0;
#X obj 745 427 cnv 1 1 1 empty empty Space\ to\ commit\ value 11 -1
0 10 #e0e0e0 #ffadfe 0;
#X connect 0 0 10 0;
#X connect 2 0 11 0;
#X connect 3 0 12 0;
#X connect 10 0 1 0;
#X connect 11 0 4 0;
#X connect 12 0 5 0;
