#N canvas 198 215 450 300 12;
#N canvas 771 23 433 549 key-commands 0;
#X obj 10 -189 key;
#X obj 10 -160 sel 9 32 119 97 115 100;
#X obj 10 -76 counter 0 5;
#X text 18 -102 Tab logic;
#X obj 10 -45 gate 5;
#X msg 293 -29 inc;
#X msg 198 -29 dec;
#X floatatom 13 120 5 0 0 0 - - - 0 0, f 5;
#X floatatom 55 120 5 0 0 0 - - - 0 0, f 5;
#X floatatom 98 120 5 0 0 0 - - - 0 0, f 5;
#X floatatom 140 120 5 0 0 0 - - - 0 0, f 5;
#X floatatom 182 121 5 0 0 0 - - - 0 0, f 5;
#X obj 197 -61 t b b b b b;
#X obj 292 -61 t b b b b b;
#X obj 197 9 counter 0 25;
#X floatatom 14 144 5 0 0 0 - - - 0 0, f 5;
#X floatatom 56 144 5 0 0 0 - - - 0 0, f 5;
#X floatatom 99 144 5 0 0 0 - - - 0 0, f 5;
#X floatatom 141 144 5 0 0 0 - - - 0 0, f 5;
#X floatatom 183 145 5 0 0 0 - - - 0 0, f 5;
#X floatatom 15 167 5 0 0 0 - - - 0 0, f 5;
#X floatatom 57 167 5 0 0 0 - - - 0 0, f 5;
#X floatatom 100 167 5 0 0 0 - - - 0 0, f 5;
#X floatatom 142 167 5 0 0 0 - - - 0 0, f 5;
#X floatatom 184 168 5 0 0 0 - - - 0 0, f 5;
#X floatatom 15 190 5 0 0 0 - - - 0 0, f 5;
#X floatatom 57 190 5 0 0 0 - - - 0 0, f 5;
#X floatatom 100 190 5 0 0 0 - - - 0 0, f 5;
#X floatatom 142 190 5 0 0 0 - - - 0 0, f 5;
#X floatatom 184 191 5 0 0 0 - - - 0 0, f 5;
#X floatatom 15 213 5 0 0 0 - - - 0 0, f 5;
#X floatatom 57 213 5 0 0 0 - - - 0 0, f 5;
#X floatatom 100 213 5 0 0 0 - - - 0 0, f 5;
#X floatatom 142 213 5 0 0 0 - - - 0 0, f 5;
#X floatatom 184 214 5 0 0 0 - - - 0 0, f 5;
#X text 194 -89 Main movement logic;
#X obj 10 48 gate 25;
#X text 8 -17 TODO: INSTRUMENT SWITCH;
#X msg 115 -60 focus 1;
#X obj 139 -123 t b b;
#X obj 189 -123 t b b;
#X obj 239 -123 t b b;
#X obj 288 -123 t b b;
#X text 10 -275 Key Commands:- Space to commit- Tab to switch instruments-
W/A/S/D for main movement;
#X msg 36 -127 commit;
#X msg 369 48 css border fill rgba(255 \\\, 0 \\\, 255 \\\, 0.0) \,
css border stroke-width 0px;
#X connect 0 0 1 0;
#X connect 1 0 2 0;
#X connect 1 0 45 0;
#X connect 1 1 44 0;
#X connect 1 2 39 0;
#X connect 1 3 40 0;
#X connect 1 4 41 0;
#X connect 1 5 42 0;
#X connect 2 0 4 0;
#X connect 5 0 14 0;
#X connect 6 0 14 0;
#X connect 12 0 6 0;
#X connect 12 1 6 0;
#X connect 12 2 6 0;
#X connect 12 3 6 0;
#X connect 12 4 6 0;
#X connect 13 0 5 0;
#X connect 13 1 5 0;
#X connect 13 2 5 0;
#X connect 13 3 5 0;
#X connect 13 4 5 0;
#X connect 14 0 36 0;
#X connect 36 0 7 0;
#X connect 36 1 8 0;
#X connect 36 2 9 0;
#X connect 36 3 10 0;
#X connect 36 4 11 0;
#X connect 36 5 15 0;
#X connect 36 6 16 0;
#X connect 36 7 17 0;
#X connect 36 8 18 0;
#X connect 36 9 19 0;
#X connect 36 10 20 0;
#X connect 36 11 21 0;
#X connect 36 12 22 0;
#X connect 36 13 23 0;
#X connect 36 14 24 0;
#X connect 36 15 25 0;
#X connect 36 16 26 0;
#X connect 36 17 27 0;
#X connect 36 18 28 0;
#X connect 36 19 29 0;
#X connect 36 20 30 0;
#X connect 36 21 31 0;
#X connect 36 22 32 0;
#X connect 36 23 33 0;
#X connect 36 24 34 0;
#X connect 38 0 36 1;
#X connect 39 0 38 0;
#X connect 39 1 12 0;
#X connect 40 0 38 0;
#X connect 40 1 6 0;
#X connect 41 0 38 0;
#X connect 41 1 13 0;
#X connect 42 0 38 0;
#X connect 42 1 5 0;
#X connect 44 0 36 1;
#X connect 45 0 7 0;
#X connect 45 0 8 0;
#X connect 45 0 9 0;
#X connect 45 0 10 0;
#X connect 45 0 11 0;
#X connect 45 0 15 0;
#X connect 45 0 16 0;
#X connect 45 0 17 0;
#X connect 45 0 18 0;
#X connect 45 0 19 0;
#X connect 45 0 20 0;
#X connect 45 0 21 0;
#X connect 45 0 22 0;
#X connect 45 0 23 0;
#X connect 45 0 24 0;
#X connect 45 0 25 0;
#X connect 45 0 26 0;
#X connect 45 0 27 0;
#X connect 45 0 28 0;
#X connect 45 0 29 0;
#X connect 45 0 30 0;
#X connect 45 0 31 0;
#X connect 45 0 32 0;
#X connect 45 0 33 0;
#X connect 45 0 34 0;
#X coords 0 -1 1 1 222 133 2 7 109;
#X restore 11 6 pd key-commands;
#X text 241 7 TEST:- Tab to make number bg disappear- WASD to move-
Space to commit number;
