#N canvas 1847 797 576 520 10;
#X floatatom 50 219 5 0 0 0 - - - 0 0, f 5;
#X symbolatom 138 149 10 0 0 0 - - - 0 0, f 10;
#X text 33 315 received data;
#X text 93 220 number of connections;
#X floatatom 77 172 5 0 0 0 - - - 0 0, f 5;
#X text 114 172 socket number;
#X text 206 149 client's IP address;
#X obj 50 241 change;
#X msg 50 263 broadcast auth;
#X obj 77 193 s \$0-socknum;
#X obj 23 21 r \$0-toserver;
#X obj 50 286 s \$0-toserver;
#N canvas 10 603 1491 659 chat-system 0;
#X obj 86 52 inlet;
#X obj 135 52 inlet;
#X obj 184 52 inlet;
#X obj 233 52 inlet;
#X symbolatom 322 517 90 0 0 0 - - - 0 0, f 90;
#X obj 86 110 s2l :;
#X obj 86 150 lister;
#X obj 86 171 unpack s s;
#X obj 86 300 pack s 0 s;
#X symbolatom 84 233 30 0 0 0 - - - 0 0, f 30;
#X symbolatom 348 230 30 0 0 0 - - - 0 0, f 30;
#X obj 86 202 tosymbol;
#X obj 348 202 tosymbol;
#X obj 86 87 tosymbol;
#X obj 114 255 r \$0-socknum;
#X obj 86 606 s \$0-toserver;
#X obj 832 87 tosymbol;
#X symbolatom 832 113 30 0 0 0 - - - 0 0, f 30;
#X obj 877 136 r \$0-socknum;
#X obj 832 160 pack s 0;
#X obj 86 383 s \$0-tochat;
#X obj 832 213 s \$0-tochat;
#X obj 86 441 r \$0-tochat;
#X obj 547 87 tosymbol;
#X symbolatom 547 113 30 0 0 0 - - - 0 0, f 30;
#X obj 592 136 r \$0-socknum;
#X obj 547 160 pack s 0;
#X obj 547 213 s \$0-tochat;
#X floatatom 1119 167 5 0 0 0 - - - 0 0, f 5;
#X obj 1119 87 bng 15 250 50 0 empty empty empty 17 7 0 10 #fcfcfc
#000000 #000000;
#X msg 1119 192 broadcast like \$1;
#X obj 1119 215 s \$0-toserver;
#X obj 1119 125 counter;
#X obj 1161 87 bng 15 250 50 0 empty empty empty 17 7 0 10 #fcfcfc
#000000 #000000;
#X obj 322 494 tosymbol;
#X msg 547 184 Welcome \$1[\$2] to the server!;
#X msg 832 184 \$1[\$2] has disconnected;
#X obj 86 496 list prepend chat;
#X obj 86 521 list prepend broadcast;
#X msg 86 324 \$1[\$2]: \$3;
#X symbolatom 322 574 90 0 0 0 - - - 0 0, f 90;
#X obj 322 547 tosymbol;
#X obj 86 546 list trim;
#X obj 1218 252 r \$0-socknum;
#X obj 146 104 bng 15 250 50 0 empty empty empty 17 7 0 10 #fcfcfc
#000000 #000000;
#X obj 146 127 s \$0-newmessage;
#X obj 1119 251 r \$0-newmessage;
#X msg 1119 303 1;
#X floatatom 1119 364 5 0 0 0 - - - 0 0, f 5;
#X text 1157 365 Socket number of last chat message;
#X obj 1119 329 gate 1;
#X msg 1083 330 0;
#X floatatom 1152 303 5 0 0 0 - - - 0 0, f 5;
#X obj 1119 276 t b b;
#X obj 991 300 change;
#X obj 958 481 s \$0-toserver;
#X obj 991 390 pack f f;
#X msg 991 416 send \$2 point;
#X obj 991 325 != 0;
#X obj 991 350 route 1;
#X text 417 253 Changes output based on purchases (except announcement)
;
#N canvas 0 13 837 531 filters 0;
#X obj 208 8 r \$0-turnonrt;
#X obj 128 98 + 1;
#X floatatom 128 72 5 0 0 0 - - - 0 0, f 5;
#X floatatom 208 72 5 0 0 0 - - - 0 0, f 5;
#X msg 208 98 set \$1;
#X floatatom 128 72 5 0 0 0 - - - 0 0, f 5;
#X floatatom 208 72 5 0 0 0 - - - 0 0, f 5;
#X msg 208 98 set \$1;
#X obj 128 44 bng 15 250 50 0 empty empty empty 17 7 0 10 #fcfcfc #000000
#000000;
#X obj 128 98 - 1;
#X obj 126 232 > 0;
#N canvas 524 36 822 486 randomtext 0;
#X obj 88 23 inlet;
#X obj 151 427 outlet;
#X obj 75 235 gate 1 0;
#X obj 75 210 < 0;
#X obj 119 160 t s s;
#X obj 56 268 bng 15 250 50 0 empty empty empty 17 7 0 10 #fcfcfc #000000
#000000;
#X obj 193 323 bng 15 250 50 0 empty empty empty 17 7 0 10 #fcfcfc
#000000 #000000;
#X floatatom 135 236 5 0 0 0 - - - 0 0, f 5;
#X obj 146 211 t f f b;
#X obj 185 257 + 1;
#X floatatom 212 256 5 0 0 0 - - - 0 0, f 5;
#X floatatom 234 208 5 0 0 0 - - - 0 0, f 5;
#X obj 185 232 random;
#X obj 130 23 text define -k randomtext;
#A set I you him them anyone \; you him them anyone I \; him them anyone
I you \; them anyone I you him \; anyone I you him them \; the a an
a an \; a an the an the \; an the a the a \; be do inhabit act prevail
\; to back becoming until so \; of from about like showing \; and also
including moreover furthermore \; in chichi contermporary fly swanky
\; cool swiggity-swiggity freaky-funky-fresh swaggin' neat \; have
suffer acquire annex undergo \; not nay nix never neither \; on about
above against covering \; my your his her their \; your his her their
my \; his her their my your \; her their my your his \; their my your
his her \; said spoken aforementioned aforesaid forenamed SCREAMED
\;;
#X obj 146 186 text search randomtext 0;
#X obj 170 287 text get randomtext 1;
#X obj 119 138 tosymbol;
#X obj 119 116 zl iter 1;
#X obj 88 319 list cat;
#X msg 196 116 clear;
#X obj 88 89 t b 1 l b 0;
#X obj 151 348 gate 1 0;
#X obj 151 373 list trim;
#X symbolatom 201 425 90 0 0 0 - - - 0 0, f 90;
#X obj 151 399 tosymbol;
#X obj 88 46 tosymbol;
#X obj 88 68 s2l;
#X msg 277 208 4;
#X obj 312 208 loadbang;
#X connect 0 0 25 0;
#X connect 2 0 5 0;
#X connect 2 0 18 0;
#X connect 3 0 2 0;
#X connect 4 0 2 1;
#X connect 4 1 14 0;
#X connect 8 0 3 0;
#X connect 8 0 7 0;
#X connect 8 1 15 0;
#X connect 8 2 12 0;
#X connect 9 0 10 0;
#X connect 9 0 15 1;
#X connect 11 0 12 1;
#X connect 12 0 9 0;
#X connect 14 0 8 0;
#X connect 15 0 6 0;
#X connect 15 0 18 0;
#X connect 16 0 4 0;
#X connect 17 0 16 0;
#X connect 18 0 21 1;
#X connect 19 0 18 1;
#X connect 20 0 18 0;
#X connect 20 1 21 0;
#X connect 20 2 17 0;
#X connect 20 3 19 0;
#X connect 20 4 21 0;
#X connect 21 0 22 0;
#X connect 22 0 24 0;
#X connect 24 0 23 0;
#X connect 24 0 1 0;
#X connect 25 0 26 0;
#X connect 26 0 20 0;
#X connect 27 0 12 1;
#X connect 28 0 27 0;
#X restore 171 201 pd randomtext;
#X obj 101 141 inlet;
#X obj 56 431 outlet;
#X obj 56 329 gate 1 0;
#X obj 56 329 gate 1 0;
#X obj 126 329 gate 1 0;
#X obj 126 329 gate 1 0;
#X obj 56 226 == 0;
#X obj 39 21 loadbang;
#X msg 39 50 0;
#X obj 329 96 + 1;
#X floatatom 329 70 5 0 0 0 - - - 0 0, f 5;
#X floatatom 408 70 5 0 0 0 - - - 0 0, f 5;
#X msg 408 96 set \$1;
#X floatatom 329 70 5 0 0 0 - - - 0 0, f 5;
#X floatatom 408 70 5 0 0 0 - - - 0 0, f 5;
#X msg 408 96 set \$1;
#X obj 329 96 - 1;
#X obj 408 6 r \$0-turnonsc;
#X obj 510 96 + 1;
#X floatatom 510 70 5 0 0 0 - - - 0 0, f 5;
#X floatatom 588 70 5 0 0 0 - - - 0 0, f 5;
#X msg 588 96 set \$1;
#X floatatom 510 70 5 0 0 0 - - - 0 0, f 5;
#X floatatom 588 70 5 0 0 0 - - - 0 0, f 5;
#X msg 588 96 set \$1;
#X obj 510 96 - 1;
#X obj 588 6 r \$0-turnonce;
#X obj 329 40 bng 15 250 50 0 empty empty empty 17 7 0 10 #fcfcfc #000000
#000000;
#X obj 510 40 bng 15 250 50 0 empty empty empty 17 7 0 10 #fcfcfc #000000
#000000;
#X obj 277 232 > 0;
#X obj 277 329 gate 1 0;
#X obj 277 329 gate 1 0;
#X obj 444 232 > 0;
#X obj 444 329 gate 1 0;
#X obj 444 329 gate 1 0;
#N canvas 0 194 1466 700 censor 0;
#X obj 88 23 inlet;
#X obj 525 597 outlet;
#X obj 88 118 tosymbol;
#X obj 88 96 zl iter 1;
#X obj 88 46 tosymbol;
#X obj 88 68 s2l;
#X obj 88 146 zl iter 1;
#X obj 88 239 s2l;
#X msg 169 178 symbol;
#X symbolatom 169 207 10 0 0 0 - - - 0 0, f 10;
#X obj 169 146 loadbang;
#X obj 88 172 tosymbol;
#X obj 270 283 list length;
#X floatatom 270 306 5 0 0 0 - - - 0 0, f 5;
#X obj 575 271 gate 1 0;
#X obj 652 271 gate 1 0;
#X msg 652 299 *;
#X msg 270 329 set \$1;
#X floatatom 270 354 5 0 0 0 - - - 0 0, f 5;
#X obj 270 378 - 1;
#X symbolatom 640 409 10 0 0 0 - - - 0 0, f 10;
#X obj 525 407 l2s;
#X msg 640 380 symbol;
#X obj 640 352 loadbang;
#X symbolatom 525 441 50 0 0 0 - - - 0 0, f 50;
#X msg 541 187 1;
#X msg 575 187 0;
#X msg 617 188 1;
#X msg 651 188 0;
#X msg 285 134 clear;
#X obj 258 103 t b b;
#X obj 734 224 tosymbol;
#X symbolatom 734 249 30 0 0 0 - - - 0 0, f 30;
#X obj 493 244 zl iter 1;
#X obj 552 364 list cat;
#X obj 743 376 tosymbol;
#X symbolatom 743 401 50 0 0 0 - - - 0 0, f 50;
#X msg 458 51 Here is a test thing;
#X obj 696 248 bng 15 250 50 0 empty empty empty 17 7 0 10 #fcfcfc
#000000 #000000;
#X obj 347 283 bng 15 250 50 0 empty empty empty 17 7 0 10 #fcfcfc
#000000 #000000;
#X obj 347 322 != 0;
#X obj 327 358 == 0;
#X obj 525 542 list cat;
#X obj 525 563 l2s;
#X symbolatom 646 573 50 0 0 1 - - - 0 0, f 50;
#X text -15 283 counts which character is being sorted through;
#X msg 327 403 clear;
#X obj 327 383 gate 1 0;
#X obj 525 519 gate 1 0;
#X msg 463 465 1;
#X msg 497 465 0;
#X obj 391 386 gate 1 0;
#X obj 391 361 == 1;
#X text 585 521 Gate opens when word re-construction is complete;
#X text 687 297 iterates through word \, first letter is let through
gate \, rest goes through asterisk gate;
#X text 704 352 word reconstruction \, using list cat and list to symbol
;
#X text -15 283 counts which character is being sorted through;
#X connect 0 0 4 0;
#X connect 2 0 6 0;
#X connect 3 0 2 0;
#X connect 4 0 5 0;
#X connect 5 0 3 0;
#X connect 5 0 30 0;
#X connect 6 0 11 0;
#X connect 7 0 12 0;
#X connect 7 0 33 0;
#X connect 8 0 9 0;
#X connect 9 0 7 1;
#X connect 10 0 8 0;
#X connect 11 0 7 0;
#X connect 12 0 13 0;
#X connect 12 0 25 0;
#X connect 12 0 28 0;
#X connect 13 0 17 0;
#X connect 13 0 40 0;
#X connect 13 0 41 0;
#X connect 13 0 52 0;
#X connect 14 0 31 0;
#X connect 14 0 34 0;
#X connect 14 0 26 0;
#X connect 15 0 16 0;
#X connect 16 0 34 0;
#X connect 17 0 18 0;
#X connect 18 0 19 0;
#X connect 19 0 13 0;
#X connect 20 0 21 1;
#X connect 21 0 24 0;
#X connect 22 0 20 0;
#X connect 23 0 22 0;
#X connect 24 0 48 1;
#X connect 25 0 14 0;
#X connect 26 0 14 0;
#X connect 27 0 15 0;
#X connect 28 0 15 0;
#X connect 29 0 34 1;
#X connect 29 0 42 1;
#X connect 30 0 3 0;
#X connect 30 1 29 0;
#X connect 31 0 32 0;
#X connect 33 0 14 1;
#X connect 33 0 38 0;
#X connect 33 0 39 0;
#X connect 34 0 35 0;
#X connect 34 0 21 0;
#X connect 35 0 36 0;
#X connect 37 0 4 0;
#X connect 38 0 15 1;
#X connect 39 0 18 0;
#X connect 40 0 15 0;
#X connect 41 0 47 0;
#X connect 41 0 47 1;
#X connect 42 0 43 0;
#X connect 43 0 44 0;
#X connect 43 0 1 0;
#X connect 46 0 34 1;
#X connect 47 0 46 0;
#X connect 48 0 42 0;
#X connect 48 0 50 0;
#X connect 49 0 48 0;
#X connect 50 0 48 0;
#X connect 51 0 49 0;
#X connect 52 0 51 0;
#X connect 52 0 51 1;
#X restore 489 201 pd censor;
#X msg 588 41 2;
#X msg 408 41 3;
#X msg 208 43 4;
#N canvas 26 9 1338 745 filter-backslash 0;
#X obj 84 40 inlet;
#X obj 84 592 outlet;
#X obj 299 139 tosymbol;
#X obj 299 117 zl iter 1;
#X obj 299 47 tosymbol;
#X obj 299 89 s2l;
#X obj 299 167 zl iter 1;
#X obj 299 230 s2l;
#X msg 380 169 symbol;
#X symbolatom 380 198 10 0 0 0 - - - 0 0, f 10;
#X obj 380 137 loadbang;
#X obj 299 193 tosymbol;
#X obj 481 284 list length;
#X floatatom 481 327 5 0 0 0 - - - 0 0, f 5;
#X msg 481 350 set \$1;
#X floatatom 481 375 5 0 0 0 - - - 0 0, f 5;
#X obj 481 399 - 1;
#X symbolatom 851 430 10 0 0 0 - - - 0 0, f 10;
#X obj 736 428 l2s;
#X msg 851 401 symbol;
#X obj 851 373 loadbang;
#X symbolatom 736 462 50 0 0 0 - - - 0 0, f 50;
#X msg 496 135 clear;
#X obj 469 104 t b b;
#X obj 656 186 zl iter 1;
#X obj 763 385 list cat;
#X obj 954 397 tosymbol;
#X symbolatom 954 422 50 0 0 0 - - - 0 0, f 50;
#X obj 558 304 bng 15 250 50 0 empty empty empty 17 7 0 10 #fcfcfc
#000000 #000000;
#X obj 558 343 != 0;
#X obj 538 379 == 0;
#X obj 736 563 list cat;
#X obj 736 584 l2s;
#X symbolatom 787 614 50 0 0 1 - - - 0 0, f 50;
#X text 196 304 counts which character is being sorted through;
#X msg 538 424 clear;
#X obj 538 404 gate 1 0;
#X obj 736 540 gate 1 0;
#X msg 674 486 1;
#X msg 708 486 0;
#X obj 602 407 gate 1 0;
#X obj 602 382 == 1;
#X text 796 542 Gate opens when word re-construction is complete;
#X text 968 318 iterates through word \, first letter is let through
gate \, rest goes through asterisk gate;
#X text 915 373 word reconstruction \, using list cat and list to symbol
;
#X symbolatom 873 274 50 0 0 1 - - - 0 0, f 50;
#X obj 873 246 tosymbol;
#X symbolatom 551 11 50 0 0 1 - - - 0 0, f 50;
#X obj 787 638 bng 15 250 50 0 empty empty empty 17 7 0 10 #fcfcfc
#000000 #000000;
#X obj 763 213 route \; \,;
#X obj 763 247 bng 15 250 50 0 empty empty empty 17 7 0 10 #fcfcfc
#000000 #000000;
#X obj 794 243 bng 15 250 50 0 empty empty empty 17 7 0 10 #fcfcfc
#000000 #000000;
#X msg 763 278 .;
#X obj 264 387 list length;
#X floatatom 264 410 5 0 0 0 - - - 0 0, f 5;
#X msg 794 270 *;
#X obj 415 349 + 1;
#X obj 551 35 tosymbol;
#X symbolatom 551 60 50 0 0 0 - - - 0 0, f 50;
#X connect 0 0 1 0;
#X connect 2 0 6 0;
#X connect 3 0 2 0;
#X connect 4 0 5 0;
#X connect 5 0 3 0;
#X connect 5 0 23 0;
#X connect 6 0 11 0;
#X connect 7 0 12 0;
#X connect 7 0 24 0;
#X connect 7 0 53 0;
#X connect 8 0 9 0;
#X connect 9 0 7 1;
#X connect 10 0 8 0;
#X connect 11 0 7 0;
#X connect 12 0 56 0;
#X connect 13 0 14 0;
#X connect 13 0 29 0;
#X connect 13 0 30 0;
#X connect 13 0 41 0;
#X connect 14 0 15 0;
#X connect 15 0 16 0;
#X connect 16 0 13 0;
#X connect 17 0 18 1;
#X connect 18 0 21 0;
#X connect 19 0 17 0;
#X connect 20 0 19 0;
#X connect 21 0 37 1;
#X connect 22 0 25 1;
#X connect 22 0 31 1;
#X connect 23 0 3 0;
#X connect 23 1 22 0;
#X connect 24 0 28 0;
#X connect 24 0 49 0;
#X connect 25 0 26 0;
#X connect 25 0 18 0;
#X connect 26 0 27 0;
#X connect 28 0 15 0;
#X connect 30 0 36 0;
#X connect 30 0 36 1;
#X connect 31 0 32 0;
#X connect 32 0 33 0;
#X connect 33 0 48 0;
#X connect 35 0 25 1;
#X connect 36 0 35 0;
#X connect 37 0 31 0;
#X connect 37 0 39 0;
#X connect 38 0 37 0;
#X connect 39 0 37 0;
#X connect 40 0 38 0;
#X connect 41 0 40 0;
#X connect 41 0 40 1;
#X connect 46 0 45 0;
#X connect 47 0 57 0;
#X connect 49 0 50 0;
#X connect 49 1 51 0;
#X connect 49 2 46 0;
#X connect 49 2 25 0;
#X connect 50 0 52 0;
#X connect 51 0 55 0;
#X connect 52 0 25 0;
#X connect 53 0 54 0;
#X connect 55 0 25 0;
#X connect 56 0 13 0;
#X connect 57 0 58 0;
#X connect 58 0 4 0;
#X restore 56 389 pd filter-backslash;
#X text 179 389 Needs to be done!;
#N canvas 95 62 1067 700 scramble 0;
#X obj 88 23 inlet;
#X obj 525 627 outlet;
#X obj 88 118 tosymbol;
#X obj 88 96 zl iter 1;
#X obj 88 46 tosymbol;
#X obj 88 68 s2l;
#X obj 88 146 zl iter 1;
#X obj 88 239 s2l;
#X msg 169 178 symbol;
#X symbolatom 169 207 10 0 0 0 - - - 0 0, f 10;
#X obj 169 146 loadbang;
#X obj 88 172 tosymbol;
#X obj 270 283 list length;
#X floatatom 270 306 5 0 0 0 - - - 0 0, f 5;
#X obj 575 271 gate 1 0;
#X obj 652 271 gate 1 0;
#X msg 270 329 set \$1;
#X floatatom 270 354 5 0 0 0 - - - 0 0, f 5;
#X obj 270 378 - 1;
#X symbolatom 640 439 10 0 0 0 - - - 0 0, f 10;
#X obj 525 437 l2s;
#X msg 640 410 symbol;
#X obj 640 382 loadbang;
#X symbolatom 525 471 50 0 0 0 - - - 0 0, f 50;
#X msg 541 187 1;
#X msg 575 187 0;
#X msg 617 188 1;
#X msg 651 188 0;
#X msg 285 134 clear;
#X obj 258 103 t b b;
#X obj 814 224 tosymbol;
#X symbolatom 814 249 30 0 0 0 - - - 0 0, f 30;
#X obj 493 244 zl iter 1;
#X obj 552 394 list cat;
#X obj 743 406 tosymbol;
#X symbolatom 743 431 50 0 0 0 - - - 0 0, f 50;
#X msg 458 51 Here is a test thing;
#X obj 347 283 bng 15 250 50 0 empty empty empty 17 7 0 10 #fcfcfc
#000000 #000000;
#X obj 347 322 != 0;
#X obj 327 358 == 0;
#X obj 525 572 list cat;
#X obj 525 593 l2s;
#X symbolatom 646 603 90 0 0 1 - - - 0 0, f 90;
#X text -15 283 counts which character is being sorted through;
#X msg 327 403 clear;
#X obj 327 383 gate 1 0;
#X obj 525 549 gate 1 0;
#X msg 463 495 1;
#X msg 497 495 0;
#X obj 391 386 gate 1 0;
#X obj 391 361 == 1;
#X text 585 551 Gate opens when word re-construction is complete;
#X text 704 382 word reconstruction \, using list cat and list to symbol
;
#X obj 719 270 gate 1 0;
#X msg 684 187 1;
#X msg 718 187 0;
#X obj 465 322 == 0;
#X msg 605 47 This happens to exist as a experimental thing with longer
words;
#X obj 437 291 random 8;
#X obj 465 347 == 0;
#X obj 465 372 *;
#X connect 0 0 4 0;
#X connect 2 0 6 0;
#X connect 3 0 2 0;
#X connect 4 0 5 0;
#X connect 5 0 3 0;
#X connect 5 0 29 0;
#X connect 6 0 11 0;
#X connect 7 0 12 0;
#X connect 7 0 32 0;
#X connect 8 0 9 0;
#X connect 9 0 7 1;
#X connect 10 0 8 0;
#X connect 11 0 7 0;
#X connect 12 0 13 0;
#X connect 12 0 24 0;
#X connect 12 0 27 0;
#X connect 12 0 55 0;
#X connect 13 0 16 0;
#X connect 13 0 38 0;
#X connect 13 0 39 0;
#X connect 13 0 50 0;
#X connect 13 0 56 0;
#X connect 14 0 30 0;
#X connect 14 0 33 0;
#X connect 14 0 25 0;
#X connect 15 0 33 0;
#X connect 16 0 17 0;
#X connect 17 0 18 0;
#X connect 18 0 13 0;
#X connect 19 0 20 1;
#X connect 20 0 23 0;
#X connect 21 0 19 0;
#X connect 22 0 21 0;
#X connect 23 0 46 1;
#X connect 24 0 14 0;
#X connect 25 0 14 0;
#X connect 26 0 15 0;
#X connect 27 0 15 0;
#X connect 28 0 33 1;
#X connect 28 0 40 1;
#X connect 29 0 3 0;
#X connect 29 1 28 0;
#X connect 30 0 31 0;
#X connect 32 0 14 1;
#X connect 32 0 37 0;
#X connect 32 0 15 1;
#X connect 33 0 34 0;
#X connect 33 0 20 0;
#X connect 34 0 35 0;
#X connect 36 0 4 0;
#X connect 37 0 17 0;
#X connect 37 0 58 0;
#X connect 38 0 15 0;
#X connect 38 0 60 1;
#X connect 39 0 45 0;
#X connect 39 0 45 1;
#X connect 40 0 41 0;
#X connect 41 0 42 0;
#X connect 41 0 1 0;
#X connect 44 0 33 1;
#X connect 45 0 44 0;
#X connect 46 0 40 0;
#X connect 46 0 48 0;
#X connect 47 0 46 0;
#X connect 48 0 46 0;
#X connect 49 0 47 0;
#X connect 50 0 49 0;
#X connect 50 0 49 1;
#X connect 53 0 33 0;
#X connect 54 0 53 0;
#X connect 55 0 53 0;
#X connect 56 0 53 0;
#X connect 56 0 59 0;
#X connect 57 0 4 0;
#X connect 58 0 56 1;
#X connect 59 0 60 0;
#X connect 60 0 15 0;
#X restore 322 201 pd scramble;
#X floatatom 452 264 5 0 0 0 - - - 0 0, f 5;
#X symbolatom 124 432 90 0 0 0 - - - 0 0, f 90;
#X floatatom 285 272 5 0 0 0 - - - 0 0, f 5;
#X floatatom 135 272 5 0 0 0 - - - 0 0, f 5;
#X floatatom 20 328 5 0 0 0 - - - 0 0, f 5;
#X obj 370 253 +;
#X obj 203 252 +;
#X msg 537 28 -1;
#X msg 355 30 -1;
#X msg 169 29 -1;
#X floatatom 201 288 5 0 0 0 - - - 0 0, f 5;
#X obj 5 174 t b b;
#X obj 430 141 +;
#X obj 258 143 +;
#X obj 56 247 +;
#X obj 56 268 > 0;
#X obj 467 356 bng 15 250 50 0 empty empty empty 17 7 0 10 #fcfcfc
#000000 #000000;
#X obj 297 356 bng 15 250 50 0 empty empty empty 17 7 0 10 #fcfcfc
#000000 #000000;
#X obj 146 356 bng 15 250 50 0 empty empty empty 17 7 0 10 #fcfcfc
#000000 #000000;
#X obj 68 356 bng 15 250 50 0 empty empty empty 17 7 0 10 #fcfcfc #000000
#000000;
#X obj 533 131 == 1;
#X obj 362 128 == 1;
#X text 637 73 Counters - determine how many messages before the effect
is disabled;
#X text 559 202 Effect boxes filter the messages;
#X text 503 328 Gates so every effect goes through \; default is no
filter \, so it is placed leftmost in case two gates activate at the
same time;
#X msg 70 300 0;
#X msg 459 301 1;
#X msg 290 302 1;
#X msg 135 305 1;
#X obj 182 124 == 0;
#X text 548 268 Idea: use switches \, perform fx in serial;
#X obj 686 9 r \$0-turnonan;
#X msg 686 42 0;
#X connect 0 0 50 0;
#X connect 0 0 63 0;
#X connect 0 0 79 0;
#X connect 0 0 82 0;
#X connect 2 0 1 0;
#X connect 3 0 4 0;
#X connect 5 0 9 0;
#X connect 5 0 10 0;
#X connect 6 0 7 0;
#X connect 6 0 83 0;
#X connect 7 0 5 0;
#X connect 8 0 5 0;
#X connect 9 0 6 0;
#X connect 10 0 17 0;
#X connect 10 0 57 0;
#X connect 10 0 60 0;
#X connect 11 0 17 1;
#X connect 12 0 11 0;
#X connect 12 0 15 1;
#X connect 12 0 8 0;
#X connect 12 0 39 0;
#X connect 12 0 40 0;
#X connect 12 0 47 0;
#X connect 12 0 53 0;
#X connect 12 0 65 0;
#X connect 15 0 73 0;
#X connect 15 0 51 0;
#X connect 17 0 72 0;
#X connect 17 0 51 0;
#X connect 18 0 68 0;
#X connect 19 0 20 0;
#X connect 20 0 5 0;
#X connect 20 0 25 0;
#X connect 22 0 21 0;
#X connect 23 0 24 0;
#X connect 25 0 28 0;
#X connect 25 0 41 0;
#X connect 26 0 27 0;
#X connect 26 0 75 0;
#X connect 27 0 25 0;
#X connect 28 0 26 0;
#X connect 29 0 49 0;
#X connect 29 0 62 0;
#X connect 29 0 79 0;
#X connect 29 0 81 0;
#X connect 31 0 30 0;
#X connect 32 0 33 0;
#X connect 34 0 37 0;
#X connect 34 0 44 0;
#X connect 35 0 36 0;
#X connect 35 0 74 0;
#X connect 36 0 34 0;
#X connect 37 0 35 0;
#X connect 38 0 48 0;
#X connect 38 0 61 0;
#X connect 38 0 79 0;
#X connect 38 0 80 0;
#X connect 39 0 25 0;
#X connect 40 0 34 0;
#X connect 41 0 43 0;
#X connect 41 0 56 0;
#X connect 41 0 59 0;
#X connect 43 0 71 0;
#X connect 43 0 51 0;
#X connect 44 0 46 0;
#X connect 44 0 54 0;
#X connect 44 0 59 1;
#X connect 46 0 70 0;
#X connect 46 0 51 0;
#X connect 47 0 46 1;
#X connect 48 0 35 0;
#X connect 49 0 26 0;
#X connect 50 0 6 0;
#X connect 51 0 13 0;
#X connect 51 0 55 0;
#X connect 53 0 43 1;
#X connect 59 0 60 1;
#X connect 60 0 18 0;
#X connect 60 0 64 0;
#X connect 61 0 26 0;
#X connect 61 0 6 0;
#X connect 62 0 6 0;
#X connect 62 0 35 0;
#X connect 63 0 26 0;
#X connect 63 0 35 0;
#X connect 65 0 10 0;
#X connect 65 0 67 0;
#X connect 65 1 59 0;
#X connect 65 1 66 0;
#X connect 66 0 67 1;
#X connect 67 0 68 1;
#X connect 68 0 69 0;
#X connect 69 0 15 0;
#X connect 69 0 58 0;
#X connect 74 0 66 1;
#X connect 75 0 66 0;
#X connect 79 0 15 0;
#X connect 79 0 58 0;
#X connect 80 0 46 0;
#X connect 81 0 43 0;
#X connect 82 0 17 0;
#X connect 83 0 67 0;
#X connect 85 0 86 0;
#X connect 86 0 35 0;
#X connect 86 0 26 0;
#X connect 86 0 6 0;
#X restore 348 253 pd filters;
#X msg 348 322 ANNOUNCEMENT: \$1;
#X obj 237 296 r \$0-turnonan;
#X symbolatom 348 383 30 0 0 0 - - - 0 0, f 30;
#X obj 348 355 tosymbol;
#X obj 206 359 switch 2;
#X msg 237 322 2;
#X msg 206 322 1;
#X obj 568 374 + 1;
#X floatatom 568 348 5 0 0 0 - - - 0 0, f 5;
#X floatatom 646 348 5 0 0 0 - - - 0 0, f 5;
#X msg 646 374 set \$1;
#X floatatom 568 348 5 0 0 0 - - - 0 0, f 5;
#X floatatom 646 348 5 0 0 0 - - - 0 0, f 5;
#X msg 646 374 set \$1;
#X obj 568 374 - 1;
#X obj 568 318 bng 15 250 50 0 empty empty empty 17 7 0 10 #fcfcfc
#000000 #000000;
#X obj 591 409 == 1;
#X obj 646 286 r \$0-turnonan;
#X msg 646 319 1;
#X obj 591 434 + 1;
#X obj 206 274 loadbang;
#X obj 568 286 r \$0-msent;
#X obj 287 97 bng 15 250 50 0 empty empty empty 17 7 0 10 #fcfcfc #000000
#000000;
#X obj 287 120 s \$0-msent;
#X symbolatom 203 163 45 0 0 0 - - - 0 0, f 45;
#X obj 603 87 s \$0-connection;
#X obj 1301 252 r \$0-connection;
#X obj 887 87 s \$0-disconnection;
#X obj 1083 416 r \$0-disconnection;
#X obj 958 441 gate 1;
#X msg 1083 441 0;
#X obj 1203 416 loadbang;
#X text 272 52 Inlets separate messages of someone connecting \,  disconnecting \,  likes \,  and actual chat messages
, f 103;
#X text 1182 87 Like counter;
#X connect 0 0 13 0;
#X connect 0 0 33 0;
#X connect 0 0 84 0;
#X connect 1 0 23 0;
#X connect 1 0 33 0;
#X connect 1 0 87 0;
#X connect 2 0 16 0;
#X connect 2 0 33 0;
#X connect 2 0 89 0;
#X connect 3 0 29 0;
#X connect 5 0 6 0;
#X connect 5 0 6 1;
#X connect 6 0 7 0;
#X connect 7 0 11 0;
#X connect 7 0 8 0;
#X connect 7 1 12 0;
#X connect 8 0 39 0;
#X connect 10 0 61 0;
#X connect 10 0 62 0;
#X connect 11 0 9 0;
#X connect 12 0 10 0;
#X connect 13 0 5 0;
#X connect 13 0 44 0;
#X connect 13 0 86 0;
#X connect 14 0 8 1;
#X connect 16 0 17 0;
#X connect 17 0 19 0;
#X connect 18 0 19 1;
#X connect 19 0 36 0;
#X connect 22 0 34 0;
#X connect 22 0 37 0;
#X connect 23 0 24 0;
#X connect 24 0 26 0;
#X connect 25 0 26 1;
#X connect 26 0 35 0;
#X connect 28 0 30 0;
#X connect 28 0 54 0;
#X connect 29 0 32 0;
#X connect 30 0 31 0;
#X connect 32 0 28 0;
#X connect 33 0 32 3;
#X connect 34 0 4 0;
#X connect 35 0 27 0;
#X connect 36 0 21 0;
#X connect 37 0 38 0;
#X connect 38 0 41 0;
#X connect 38 0 42 0;
#X connect 39 0 66 1;
#X connect 41 0 40 0;
#X connect 42 0 15 0;
#X connect 43 0 52 0;
#X connect 44 0 45 0;
#X connect 46 0 53 0;
#X connect 47 0 50 0;
#X connect 47 0 91 0;
#X connect 48 0 56 1;
#X connect 50 0 48 0;
#X connect 50 0 51 0;
#X connect 51 0 50 0;
#X connect 52 0 50 1;
#X connect 53 0 52 0;
#X connect 53 1 47 0;
#X connect 54 0 58 0;
#X connect 56 0 57 0;
#X connect 57 0 91 1;
#X connect 58 0 59 0;
#X connect 59 0 56 0;
#X connect 61 0 8 2;
#X connect 62 0 65 0;
#X connect 62 0 66 2;
#X connect 63 0 67 0;
#X connect 65 0 64 0;
#X connect 66 0 20 0;
#X connect 67 0 66 0;
#X connect 68 0 66 0;
#X connect 70 0 69 0;
#X connect 71 0 72 0;
#X connect 73 0 76 0;
#X connect 74 0 75 0;
#X connect 74 0 78 0;
#X connect 75 0 73 0;
#X connect 76 0 74 0;
#X connect 77 0 73 0;
#X connect 78 0 81 0;
#X connect 79 0 80 0;
#X connect 80 0 74 0;
#X connect 81 0 66 0;
#X connect 82 0 68 0;
#X connect 83 0 77 0;
#X connect 84 0 85 0;
#X connect 88 0 53 0;
#X connect 90 0 92 0;
#X connect 91 0 55 0;
#X connect 92 0 91 0;
#X connect 93 0 92 0;
#X restore 81 370 pd chat-system;
#N canvas 305 465 439 258 purchase-system 0;
#X obj 24 29 inlet;
#X obj 24 113 bng 15 250 50 0 empty empty empty 17 7 0 10 #fcfcfc #000000
#000000;
#X obj 49 113 bng 15 250 50 0 empty empty empty 17 7 0 10 #fcfcfc #000000
#000000;
#X obj 74 113 bng 15 250 50 0 empty empty empty 17 7 0 10 #fcfcfc #000000
#000000;
#X obj 97 113 bng 15 250 50 0 empty empty empty 17 7 0 10 #fcfcfc #000000
#000000;
#X msg 345 29 doesntexist;
#X msg 231 29 scramble;
#X msg 144 29 announcement;
#X msg 69 29 randomtext;
#X obj 24 73 route randomtext announcement scramble censor;
#X msg 294 29 censor;
#X obj 24 223 s \$0-turnonrt;
#X obj 49 198 s \$0-turnonan;
#X obj 74 175 s \$0-turnonsc;
#X obj 97 150 s \$0-turnonce;
#X connect 0 0 9 0;
#X connect 1 0 11 0;
#X connect 2 0 12 0;
#X connect 3 0 13 0;
#X connect 4 0 14 0;
#X connect 5 0 9 0;
#X connect 6 0 9 0;
#X connect 7 0 9 0;
#X connect 8 0 9 0;
#X connect 9 0 1 0;
#X connect 9 1 2 0;
#X connect 9 2 3 0;
#X connect 9 3 4 0;
#X connect 10 0 9 0;
#X restore 280 451 pd purchase-system;
#N canvas 915 654 536 250 auth-system 0;
#X obj 32 48 == 2.3488e+06;
#X obj 32 87 sel 1 0;
#X obj 32 132 f;
#X obj 151 132 f;
#X obj 166 87 r \$0-socknum;
#X msg 32 153 send \$1 authok;
#X obj 32 178 s \$0-toserver;
#X obj 151 178 s \$0-toserver;
#X msg 151 153 send \$1 autherr;
#X obj 122 48 == 123;
#X obj 32 21 inlet;
#X text 264 21 connect to server \; server asks for auth \; client
sends auth code \; server compares code \; server sends appropriate
response;
#X obj 32 204 s \$0-new-connection;
#X text 161 204 Sends the socket number of any new authorized connection
;
#X connect 0 0 1 0;
#X connect 1 0 2 0;
#X connect 1 1 3 0;
#X connect 2 0 5 0;
#X connect 2 0 12 0;
#X connect 3 0 8 0;
#X connect 4 0 3 1;
#X connect 4 0 2 1;
#X connect 5 0 6 0;
#X connect 8 0 7 0;
#X connect 9 0 1 0;
#X connect 10 0 0 0;
#X restore 23 394 pd auth-system;
#N canvas 339 446 753 359 instruments 0;
#X obj 9 8 inlet;
#X obj 9 33 route %instr1% %instr2% %instr3% %instr4% %instr5% %instr6%
;
#X text 327 299 Server instruments - hold wavetable \,  envelope \,  and
;
#X text 327 311 note duration information to sync between all clients.
;
#X obj 9 298 ./pd-dependencies/serverinstrument \$0-new-connection
%instr1fx% 0 0 %instr1wt% %instr1env% %instr1nd% %instr1notes% %instr1%
\$0-toserver;
#X obj 67 253 ./pd-dependencies/serverinstrument \$0-new-connection
%instr2fx% 0 0 %instr2wt% %instr2env% %instr2nd% %instr2notes% %instr2%
\$0-toserver;
#X obj 126 208 ./pd-dependencies/serverinstrument \$0-new-connection
%instr3fx% 0 0 %instr3wt% %instr3env% %instr3nd% %instr3notes% %instr3%
\$0-toserver;
#X obj 184 163 ./pd-dependencies/serverinstrument \$0-new-connection
%instr4fx% 0 0 %instr4wt% %instr4env% %instr4nd% %instr4notes% %instr4%
\$0-toserver;
#X obj 243 118 ./pd-dependencies/serverinstrument \$0-new-connection
%instr5fx% 0 0 %instr5wt% %instr5env% %instr5nd% %instr5notes% %instr5%
\$0-toserver;
#X obj 301 73 ./pd-dependencies/serverinstrument \$0-new-connection
%instr6fx% 0 0 %instr6wt% %instr6env% %instr6nd% %instr6notes% %instr6%
\$0-toserver;
#X text 377 33 ./pd-dependencies/serverinstrument \$0-new-connection %instr1fx% 0 0 %instr1wt% %instr1env% %instr1nd% %instr1notes% %instr1% \$0-toserver
;
#X connect 0 0 1 0;
#X connect 1 0 4 0;
#X connect 1 1 5 0;
#X connect 1 2 6 0;
#X connect 1 3 7 0;
#X connect 1 4 8 0;
#X connect 1 5 9 0;
#X restore 338 431 pd instruments;
#X obj 338 410 gate 1;
#X obj 280 410 gate 1;
#X obj 280 365 r \$0-purchasetoggle;
#X obj 338 385 r \$0-instrtoggle;
#X obj 225 365 loadbang;
#X msg 225 393 1;
#N canvas 1021 811 887 191 admin-recieve 0;
#X obj 68 70 s \$0-purchasetoggle;
#X obj 282 70 s \$0-instrtoggle;
#X obj 68 29 r %serveradmin%-purchasetoggle;
#X obj 282 29 r %serveradmin%-instrumenttoggle;
#X obj 518 29 r %serveradmin%-pointadd;
#X obj 670 29 r %serveradmin%-pointaddsocket;
#X msg 670 54 set \$1;
#X floatatom 518 71 5 0 0 0 - - - 0 0, f 5;
#X obj 518 121 s \$0-toserver;
#X obj 640 113 tosymbol;
#X symbolatom 640 138 18 0 0 0 - - - 0 0, f 18;
#X msg 518 96 send \$1 point;
#X obj 190 154 s %toadminpatch%-purchasetoggle;
#X obj 390 154 s %toadminpatch%-instrumenttoggle;
#X msg 390 71 set \$1;
#X floatatom 390 132 5 0 0 0 - - - 0 0, f 5;
#X msg 190 71 set \$1;
#X floatatom 190 132 5 0 0 0 - - - 0 0, f 5;
#X obj 8 102 r %serveradmin%-patchlaunch;
#X connect 2 0 0 0;
#X connect 2 0 16 0;
#X connect 3 0 1 0;
#X connect 3 0 14 0;
#X connect 4 0 7 0;
#X connect 5 0 6 0;
#X connect 6 0 7 0;
#X connect 7 0 11 0;
#X connect 9 0 10 0;
#X connect 11 0 8 0;
#X connect 11 0 9 0;
#X connect 14 0 15 0;
#X connect 15 0 13 0;
#X connect 16 0 17 0;
#X connect 17 0 12 0;
#X connect 18 0 17 0;
#X connect 18 0 15 0;
#X coords 0 -1 1 1 16 17 2 8 7;
#X restore 402 365 pd admin-recieve;
#X obj 23 121 netserver 3001;
#X obj 23 337 route auth chat connect disconnect like purchase %instruments%
%pattern%, f 78;
#N canvas 1845 264 502 104 patternmaster 1;
#X obj 5 5 inlet;
#N canvas 1843 431 441 318 tickmaster 1;
#X obj 29 122 bng 15 250 50 0 empty empty empty 17 7 0 10 #fcfcfc #000000
#000000;
#X text 48 121 Debug tick;
#X obj 9 143 metro 150;
#X obj 9 121 tgl 15 0 empty empty empty 17 7 0 10 #fcfcfc #000000 #000000
0 1;
#X floatatom 139 127 5 0 0 0 - - - 0 0, f 5;
#X obj 139 6 loadbang;
#X msg 289 65 6;
#X floatatom 289 127 5 0 0 0 - - - 0 0, f 5;
#X obj 198 50 bng 15 250 50 0 empty empty empty 17 7 0 10 #fcfcfc #000000
#000000;
#X obj 9 168 list prepend %tick%;
#X obj 9 193 list prepend %pattern%;
#X obj 9 218 list prepend broadcast;
#X obj 9 243 list trim;
#X obj 9 268 s \$0-toserver;
#X obj 139 168 list prepend %tickms%;
#X obj 289 168 list prepend %tprspeed%;
#X obj 198 91 r \$0-new-connection;
#X obj 139 30 inlet;
#X obj 289 30 inlet;
#X obj 9 70 inlet;
#X text 218 49 Refresh Default;
#X obj 198 112 bng 15 250 50 0 empty empty empty 17 7 0 10 #fcfcfc
#000000 #000000;
#X text 218 111 Refresh;
#X msg 139 65 20.8333;
#X connect 0 0 9 0;
#X connect 2 0 9 0;
#X connect 3 0 2 0;
#X connect 4 0 2 1;
#X connect 4 0 14 0;
#X connect 5 0 23 0;
#X connect 5 0 6 0;
#X connect 6 0 7 0;
#X connect 7 0 15 0;
#X connect 8 0 23 0;
#X connect 8 0 6 0;
#X connect 9 0 10 0;
#X connect 10 0 11 0;
#X connect 11 0 12 0;
#X connect 12 0 13 0;
#X connect 14 0 10 0;
#X connect 15 0 10 0;
#X connect 16 0 21 0;
#X connect 17 0 4 0;
#X connect 18 0 7 0;
#X connect 19 0 3 0;
#X connect 21 0 4 0;
#X connect 21 0 7 0;
#X connect 23 0 4 0;
#X restore 5 65 pd tickmaster;
#X obj 5 30 route %play% %tickms-change% %tprspeed-change%;
#X connect 0 0 2 0;
#X connect 2 0 1 0;
#X connect 2 1 1 1;
#X connect 2 2 1 2;
#X restore 429 411 pd patternmaster;
#X connect 0 0 7 0;
#X connect 4 0 9 0;
#X connect 7 0 8 0;
#X connect 8 0 11 0;
#X connect 10 0 23 0;
#X connect 16 0 15 0;
#X connect 17 0 13 0;
#X connect 18 0 17 0;
#X connect 19 0 16 0;
#X connect 20 0 21 0;
#X connect 21 0 17 0;
#X connect 21 0 16 0;
#X connect 23 0 24 0;
#X connect 23 1 0 0;
#X connect 23 2 4 0;
#X connect 23 3 1 0;
#X connect 24 0 14 0;
#X connect 24 1 12 0;
#X connect 24 2 12 1;
#X connect 24 3 12 2;
#X connect 24 4 12 3;
#X connect 24 5 17 1;
#X connect 24 6 16 1;
#X connect 24 7 25 0;
