#N canvas 80 113 1666 751 10;
#X text 25 23 Instrument 1 messages sent here \,  broadcast to everyone
;
#N canvas 0 0 450 300 (subpatch) 0;
#X array \$0-inst1-wt 64 float 16 black #ffc584;
#X coords 0 1 63 -1 158 89 1;
#X restore 22 61 graph;
#N canvas 0 0 450 300 (subpatch) 0;
#X array \$0-inst1-env 256 float 16 black #ffc584;
#X coords 0 1 255 0 158 89 1;
#X restore 22 157 graph;
#X floatatom 23 256 5 0 0 0 - #0-note-dur #0-note-dur-out 0, f 5;
#X text 59 256 Note Duration (in ms);
#X text 331 264 sends to specific server channel:;
#X text 331 277 instrument# wavetable/env;
#X obj 202 60 inlet;
#X obj 331 194 list prepend broadcast;
#X obj 432 220 tosymbol;
#X symbolatom 432 245 28 0 0 0 - - - 9.0926e+08, f 28;
#X obj 331 219 list trim;
#X obj 202 119 tabwrite \$0-inst1-wt;
#X text 645 264 sends to specific server channel:;
#X text 645 277 instrument# wavetable/env;
#X obj 645 194 list prepend broadcast;
#X obj 746 220 tosymbol;
#X symbolatom 746 245 30 0 0 0 - - - 9.0926e+08, f 30;
#X obj 645 219 list trim;
#X obj 511 119 tabwrite \$0-inst1-env;
#X obj 331 169 list prepend %instruments%;
#X obj 331 169 list prepend %instruments%;
#X obj 645 169 list prepend %instruments%;
#X obj 645 169 list prepend %instruments%;
#X obj 847 139 s \$0-note-dur;
#X text 935 284 sends to specific server channel:;
#X text 935 297 instrument# wavetable/env;
#X obj 935 214 list prepend broadcast;
#X obj 1036 240 tosymbol;
#X symbolatom 1036 265 30 0 0 0 - - - 9.0926e+08, f 30;
#X obj 935 239 list trim;
#X obj 935 189 list prepend %instruments%;
#X obj 935 189 list prepend %instruments%;
#X obj 935 119 r \$0-note-dur-out;
#X text 1225 284 sends to specific server channel:;
#X text 1225 297 instrument# wavetable/env;
#X obj 1225 214 list prepend broadcast;
#X obj 1326 240 tosymbol;
#X symbolatom 1326 265 52 0 0 0 - - - 9.0926e+08, f 52;
#X obj 1225 239 list trim;
#X obj 1225 189 list prepend %instruments%;
#X obj 1225 189 list prepend %instruments%;
#X obj 34 333 bng 15 250 50 0 empty empty empty 17 7 0 10 #fcfcfc #000000
#000000;
#X text 54 333 Rebroadcast all;
#X obj 331 144 list prepend \$9;
#X obj 645 144 list prepend \$9;
#X obj 935 164 list prepend \$9;
#X obj 1225 164 list prepend \$9;
#X obj 1225 139 list prepend \$8;
#X obj 935 139 list prepend \$7;
#X obj 645 119 list prepend \$6;
#X obj 331 119 list prepend \$5;
#X obj 202 85 route \$5 \$6 \$7 \$8, f 207;
#X obj 227 457 until;
#X obj 227 484 f;
#X obj 267 484 + 1;
#X msg 282 457 0;
#X text 251 425 table size;
#X obj 227 425 64;
#X obj 210 374 bng 15 250 50 0 empty empty empty 17 7 0 10 #fcfcfc
#000000 #000000;
#X obj 321 374 loadbang;
#X msg 321 397 64;
#X obj 252 679 tosymbol;
#X symbolatom 252 704 45 0 0 1 - - - 8.58927e+08, f 45;
#X obj 210 396 t b b b b;
#X text 324 579 sends to specific server channel:;
#X text 324 592 instrument# wavetable/env;
#X obj 182 556 pack f f;
#X obj 182 679 list trim;
#X obj 227 532 - 1;
#X obj 597 457 until;
#X obj 597 484 f;
#X obj 637 484 + 1;
#X msg 652 457 0;
#X text 621 425 table size;
#X obj 580 374 bng 15 250 50 0 empty empty empty 17 7 0 10 #fcfcfc
#000000 #000000;
#X obj 691 374 loadbang;
#X obj 622 679 tosymbol;
#X symbolatom 622 704 45 0 0 1 - - - 8.58927e+08, f 45;
#X obj 580 396 t b b b b;
#X text 697 579 sends to specific server channel:;
#X text 697 592 instrument# wavetable/env;
#X obj 552 556 pack f f;
#X obj 552 679 list trim;
#X obj 597 532 - 1;
#X text 611 557 Pair value with index;
#X text 241 557 Pair value with index;
#X text 354 505 Read from wavetable;
#X text 730 505 Read from envelope table;
#X obj 182 579 list prepend \$5;
#X obj 552 579 list prepend \$6;
#X obj 552 704 s \$10;
#X obj 182 704 s \$10;
#X obj 182 604 list prepend \$9;
#X obj 182 629 list prepend %instruments%;
#X obj 552 629 list prepend %instruments%;
#X obj 552 604 list prepend \$9;
#X obj 597 425 256;
#X msg 691 397 256;
#X obj 34 374 s \$0-note-dur;
#X text 34 395 Syncronizes the instrumentacross clients;
#X text 1044 409 \$1 - new connection  \;  \$2 - N/A   \;
 \$3 - N/A  \;  \$4 - N/A  \;  \$5 - wavetable server channel 
\;  \$6 - envelope server channel  \;  \$7 - note duration server channel 
\;  \$8 - note channel  \;  \$9 - %instr#%  \,   instrument specific server channel 
\;  \$10 - \$0-toserver  \;  ;
#X obj 34 306 r \$1;
#X obj 331 244 s \$10;
#X obj 645 244 s \$10;
#X obj 935 264 s \$10;
#X obj 1225 264 s \$10;
#X obj 227 505 tabread \$0-inst1-wt;
#X obj 597 505 tabread \$0-inst1-env;
#X obj 182 654 list prepend broadcast;
#X obj 552 654 list prepend broadcast;
#X connect 7 0 52 0;
#X connect 8 0 9 0;
#X connect 8 0 11 0;
#X connect 9 0 10 0;
#X connect 11 0 103 0;
#X connect 15 0 16 0;
#X connect 15 0 18 0;
#X connect 16 0 17 0;
#X connect 18 0 104 0;
#X connect 21 0 8 0;
#X connect 23 0 15 0;
#X connect 27 0 28 0;
#X connect 27 0 30 0;
#X connect 28 0 29 0;
#X connect 30 0 105 0;
#X connect 32 0 27 0;
#X connect 33 0 49 0;
#X connect 36 0 37 0;
#X connect 36 0 39 0;
#X connect 37 0 38 0;
#X connect 39 0 106 0;
#X connect 41 0 36 0;
#X connect 42 0 99 0;
#X connect 42 0 59 0;
#X connect 42 0 75 0;
#X connect 44 0 21 0;
#X connect 45 0 23 0;
#X connect 46 0 32 0;
#X connect 47 0 41 0;
#X connect 48 0 47 0;
#X connect 49 0 46 0;
#X connect 50 0 45 0;
#X connect 51 0 44 0;
#X connect 52 0 12 0;
#X connect 52 0 51 0;
#X connect 52 1 19 0;
#X connect 52 1 50 0;
#X connect 52 2 24 0;
#X connect 52 2 49 0;
#X connect 52 3 48 0;
#X connect 53 0 54 0;
#X connect 54 0 55 0;
#X connect 54 0 107 0;
#X connect 55 0 54 1;
#X connect 55 0 69 0;
#X connect 56 0 54 1;
#X connect 58 0 53 0;
#X connect 59 0 64 0;
#X connect 60 0 61 0;
#X connect 61 0 58 1;
#X connect 62 0 63 0;
#X connect 64 1 58 0;
#X connect 64 2 56 0;
#X connect 67 0 89 0;
#X connect 68 0 92 0;
#X connect 69 0 67 1;
#X connect 70 0 71 0;
#X connect 71 0 72 0;
#X connect 71 0 108 0;
#X connect 72 0 71 1;
#X connect 72 0 84 0;
#X connect 73 0 71 1;
#X connect 75 0 79 0;
#X connect 76 0 98 0;
#X connect 77 0 78 0;
#X connect 79 1 97 0;
#X connect 79 2 73 0;
#X connect 82 0 90 0;
#X connect 83 0 91 0;
#X connect 84 0 82 1;
#X connect 89 0 93 0;
#X connect 90 0 96 0;
#X connect 93 0 94 0;
#X connect 94 0 109 0;
#X connect 95 0 110 0;
#X connect 96 0 95 0;
#X connect 97 0 70 0;
#X connect 98 0 97 1;
#X connect 102 0 42 0;
#X connect 107 0 67 0;
#X connect 108 0 82 0;
#X connect 109 0 62 0;
#X connect 109 0 68 0;
#X connect 110 0 77 0;
#X connect 110 0 83 0;
