#N canvas 5 838 1324 496 10;
#X obj 830 307 cnv 15 8 8 empty empty Typing\ Notes 43 6 0 10 #ffffff
#00ffff 0;
#X obj 830 287 cnv 15 8 8 empty empty Confirm\ Changes 43 6 0 10 #ffffff
#00ffff 0;
#X obj 830 266 cnv 15 8 8 empty empty Octave 43 6 0 10 #ffffff #00ffff
0;
#X obj 830 246 cnv 15 8 8 empty empty Note\ Duration\ (ms) 43 6 0 10
#ffffff #00ffff 0;
#X obj 830 147 ggee/image starry-background.png 0 0 158 89 empty empty
empty 158 89 0 0 10 #000000 0 -8 544 145.5 0 1 1;
#X obj 830 51 ggee/image starry-background.png 0 0 158 89 empty empty
empty 158 89 0 0 10 #000000 0 -8 544 145.5 0 1 1;
#N canvas 0 0 450 300 (subpatch) 0;
#X array \$0-instr-wt 64 float 16 black #ffc584;
#X coords 0 1 63 -1 158 89 1;
#X restore 644 51 graph;
#X obj 278 316 *~;
#X text 531 246 envelope;
#X text 531 259 generator;
#X text 322 422 audio output;
#X obj 278 388 hip~ 5;
#X obj 278 420 dac~;
#X obj 278 222 phasor~;
#X floatatom 278 201 5 0 0 0 - - - 0, f 5;
#X obj 278 181 mtof;
#X obj 239 38 tgl 15 0 empty empty empty 17 7 0 10 #fcfcfc #000000
#000000 0 1;
#N canvas 1059 440 450 325 two_notes 0;
#X obj 37 37 inlet;
#X obj 37 58 metro 500;
#X obj 37 79 tgl 15 0 empty empty empty 17 7 0 10 #fcfcfc #000000 #000000
0 1;
#X obj 37 100 sel 0 1;
#X msg 38 122 55;
#X msg 69 122 67;
#X floatatom 69 143 5 0 0 0 - - - 0, f 5;
#X obj 69 163 outlet;
#X connect 0 0 1 0;
#X connect 1 0 2 0;
#X connect 2 0 3 0;
#X connect 3 0 4 0;
#X connect 3 1 5 0;
#X connect 4 0 6 0;
#X connect 5 0 6 0;
#X connect 6 0 7 0;
#X restore 239 60 pd two_notes;
#X obj 323 39 tgl 15 0 empty empty empty 17 7 0 10 #fcfcfc #000000
#000000 0 1;
#N canvas 659 658 450 325 many_notes 0;
#X obj 37 37 inlet;
#X obj 37 270 outlet;
#X obj 37 96 f 0;
#X obj 36 138 % 8;
#X obj 179 150 table pitches;
#X msg 179 174 \; pitches 0 60 67 62 58 63 70 72 65;
#X obj 37 188 tabread pitches;
#X obj 37 58 metro 170;
#X floatatom 37 241 5 0 0 0 - - - 0, f 5;
#X obj 37 117 + 1;
#X floatatom 37 159 5 0 0 0 - - - 0, f 5;
#X obj 315 130 loadbang;
#X obj 37 209 - 12;
#X connect 0 0 7 0;
#X connect 2 0 9 0;
#X connect 3 0 2 1;
#X connect 3 0 10 0;
#X connect 6 0 12 0;
#X connect 7 0 2 0;
#X connect 8 0 1 0;
#X connect 9 0 3 0;
#X connect 10 0 6 0;
#X connect 11 0 5 0;
#X connect 12 0 8 0;
#X restore 323 61 pd many_notes;
#X obj 240 109 s notes;
#X floatatom 240 85 5 0 0 0 - - - 0, f 5;
#X floatatom 12 167 5 0 0 0 - - - 0, f 5;
#X msg 39 118 1;
#X obj 12 96 t f b;
#X obj 57 4 key;
#X floatatom 12 55 5 0 0 0 - - - 0, f 5;
#X obj 12 75 text search midi-shortcuts 0;
#X obj 12 141 text get midi-shortcuts 1;
#X text 86 4 Convert key press to midi note;
#X text 279 86 Sequence preset tests (from internet example);
#N canvas 0 0 450 300 (subpatch) 0;
#X array \$0-instr-env 256 float 16 black #ffc584;
#X coords 0 1 255 0 158 89 1;
#X restore 644 147 graph;
#X obj 463 177 bng 15 250 50 0 empty empty empty 17 7 0 10 #fcfcfc
#000000 #000000;
#X obj 93 190 * 12;
#X floatatom 93 215 5 0 0 0 - - - 0, f 5;
#X obj 12 191 +;
#X obj 13 334 snapshot~;
#X floatatom 13 357 15 0 0 0 - - - 0, f 15;
#X obj 13 283 metro 100;
#X obj 13 308 bng 15 250 50 0 empty empty empty 17 7 0 10 #fcfcfc #000000
#000000;
#X obj 13 264 tgl 15 0 empty empty empty 17 7 0 10 #fcfcfc #000000
#000000 0 1;
#X obj 278 341 *~ 0.1;
#X obj 463 266 line~;
#X obj 463 224 f;
#X msg 463 245 0 \, 256 \$1;
#X obj 278 263 *~ 64;
#X obj 335 222 r wt-size;
#X floatatom 335 247 5 0 0 0 - - - 0, f 5;
#X floatatom 830 246 5 0 0 0 - #4 #0-note-dur 0, f 5;
#X obj 397 222 loadbang;
#X msg 397 247 64;
#X text 322 389 HPF to get rid of any low artifacts;
#X floatatom 830 266 5 -5 5 0 - r-null #0-octave 0, f 5;
#X text 12 378 Shows number output every 100ms \; activate toggle
for debugging;
#X obj 12 33 gate 1 0;
#X obj 75 33 tgl 15 0 empty empty empty 17 7 0 10 #fcfcfc #000000 #000000
0 1;
#X obj 12 5 inlet;
#X obj 830 287 bng 15 250 50 0 \$0-instrupdate r-null empty 17 7 0
10 #fcfcfc #000000 #000000;
#N canvas 0 0 450 300 (subpatch) 0;
#X array \$0-instrclient-wt 64 float 16 black #ffc584;
#X coords 0 1 63 -1 158 89 1;
#X restore 830 51 graph;
#N canvas 0 0 450 300 (subpatch) 0;
#X array \$0-instrclient-env 256 float 16 black #ffc584;
#X coords 0 1 255 0 158 89 1;
#X restore 830 147 graph;
#N canvas 44 866 1010 450 instupdate 0;
#X obj 55 146 until;
#X obj 55 173 f;
#X obj 95 173 + 1;
#X msg 110 146 0;
#X text 79 114 table size;
#X obj 55 114 64;
#X obj 38 66 bng 15 250 50 0 empty empty empty 17 7 0 10 #fcfcfc #000000
#000000;
#X obj 149 61 loadbang;
#X msg 149 86 64;
#X obj 10 343 list prepend send;
#X obj 80 368 tosymbol;
#X symbolatom 80 393 45 0 0 1 - - - 8.58927e+08, f 45;
#X obj 38 85 t b b b b;
#X text 152 268 sends to specific server channel:;
#X text 152 281 instrument# wavetable/env;
#X obj 10 245 pack f f;
#X obj 10 368 list trim;
#X obj 55 221 - 1;
#X text 38 10 read out table to list;
#X obj 425 146 until;
#X obj 425 173 f;
#X obj 465 173 + 1;
#X msg 480 146 0;
#X text 449 114 table size;
#X obj 408 66 bng 15 250 50 0 empty empty empty 17 7 0 10 #fcfcfc #000000
#000000;
#X obj 519 61 loadbang;
#X obj 380 343 list prepend send;
#X obj 450 368 tosymbol;
#X symbolatom 450 393 45 0 0 1 - - - 8.58927e+08, f 45;
#X obj 408 85 t b b b b;
#X text 525 268 sends to specific server channel:;
#X text 525 281 instrument# wavetable/env;
#X obj 380 245 pack f f;
#X obj 380 368 list trim;
#X obj 425 221 - 1;
#X text 408 10 read out table to list;
#X text 439 246 Pair value with index;
#X text 69 246 Pair value with index;
#X text 212 194 Read from wavetable;
#X text 588 194 Read from envelope table;
#X obj 783 183 list prepend send;
#X obj 783 208 list trim;
#X obj 38 38 r \$0-instrupdate;
#X obj 408 38 r \$0-instrupdate;
#X obj 55 194 tabread \$0-instrclient-wt;
#X obj 425 194 tabread \$0-instrclient-env;
#X obj 237 59 tabwrite \$0-instr-wt;
#X obj 607 59 tabwrite \$0-instr-env;
#X obj 237 38 r \$2;
#X obj 607 38 r \$3;
#X obj 783 38 r \$0-note-dur;
#X obj 237 79 tabwrite \$0-instrclient-wt;
#X obj 607 79 tabwrite \$0-instrclient-env;
#X obj 10 268 list prepend \$5;
#X obj 380 268 list prepend \$6;
#X obj 783 114 list prepend \$7;
#X obj 380 393 s \$10;
#X obj 10 393 s \$10;
#X obj 783 233 s \$10;
#X obj 10 293 list prepend \$9;
#X obj 10 318 list prepend %instruments%;
#X obj 380 318 list prepend %instruments%;
#X obj 380 293 list prepend \$9;
#X obj 425 114 256;
#X obj 848 209 tosymbol;
#X symbolatom 848 234 45 0 0 1 - - - 8.58927e+08, f 45;
#X obj 783 159 list prepend %instruments%;
#X obj 783 136 list prepend \$9;
#X msg 783 63 set \$1;
#X floatatom 783 88 5 0 0 0 - - - 0, f 5;
#X obj 868 63 bng 15 250 50 0 empty empty empty 17 7 0 10 #fcfcfc #000000
#000000;
#X obj 868 38 r \$0-instrupdate;
#X msg 519 86 256;
#X connect 0 0 1 0;
#X connect 1 0 2 0;
#X connect 1 0 44 0;
#X connect 2 0 1 1;
#X connect 2 0 17 0;
#X connect 3 0 1 1;
#X connect 5 0 0 0;
#X connect 6 0 12 0;
#X connect 7 0 8 0;
#X connect 8 0 5 1;
#X connect 9 0 10 0;
#X connect 9 0 16 0;
#X connect 10 0 11 0;
#X connect 12 1 5 0;
#X connect 12 2 3 0;
#X connect 15 0 53 0;
#X connect 16 0 57 0;
#X connect 17 0 15 1;
#X connect 19 0 20 0;
#X connect 20 0 21 0;
#X connect 20 0 45 0;
#X connect 21 0 20 1;
#X connect 21 0 34 0;
#X connect 22 0 20 1;
#X connect 24 0 29 0;
#X connect 25 0 72 0;
#X connect 26 0 27 0;
#X connect 26 0 33 0;
#X connect 27 0 28 0;
#X connect 29 1 63 0;
#X connect 29 2 22 0;
#X connect 32 0 54 0;
#X connect 33 0 56 0;
#X connect 34 0 32 1;
#X connect 40 0 41 0;
#X connect 40 0 64 0;
#X connect 41 0 58 0;
#X connect 42 0 6 0;
#X connect 43 0 24 0;
#X connect 44 0 15 0;
#X connect 45 0 32 0;
#X connect 48 0 46 0;
#X connect 48 0 51 0;
#X connect 49 0 47 0;
#X connect 49 0 52 0;
#X connect 50 0 68 0;
#X connect 53 0 59 0;
#X connect 54 0 62 0;
#X connect 55 0 67 0;
#X connect 59 0 60 0;
#X connect 60 0 9 0;
#X connect 61 0 26 0;
#X connect 62 0 61 0;
#X connect 63 0 19 0;
#X connect 64 0 65 0;
#X connect 66 0 40 0;
#X connect 67 0 66 0;
#X connect 68 0 69 0;
#X connect 69 0 55 0;
#X connect 70 0 69 0;
#X connect 71 0 70 0;
#X connect 72 0 63 1;
#X restore 644 242 pd instupdate;
#X obj 644 386 list prepend send;
#X obj 644 411 list trim;
#X text 750 336 Send notes to server;
#X obj 278 160 r \$1;
#X obj 278 287 tabread4~ \$0-instr-wt;
#X obj 463 296 tabread4~ \$0-instr-env;
#X obj 478 202 r \$0-note-dur;
#X obj 644 311 list prepend \$8;
#X obj 644 436 s \$10;
#X obj 12 235 s \$0-notetoserver;
#X obj 644 286 r \$0-notetoserver;
#X obj 707 411 tosymbol;
#X symbolatom 707 436 46 0 0 0 - - - 0, f 46;
#X obj 644 336 list prepend \$9;
#X obj 644 361 list prepend %instruments%;
#X obj 75 53 s \$0-midion;
#X obj 830 307 tgl 15 0 s-null \$0-midion empty 17 7 0 10 #fcfcfc #000000
#000000 0 1;
#X obj 827 302 ggee/image transparent.png 0 1 25 25 empty empty empty
25 25 1 0 10 #000000 0 -8 12.5 12.5 0 0 1;
#X obj 273 6 cnv 15 8 8 empty empty Canvas 24 6 0 10 #ffffff #00ffff
0;
#X text 1005 51 \$1 - instr note send  \;  \$2 - write to wavetable receive name 
\;  \$3 - write to envelope receive name  \;  \$4 - note duration recieve 
\;  \$5 - wavetable server channel  \;  \$6 - envelope server channel 
\;  \$7 - note duration server channel  \;  \$8 - note channel 
\;  \$9 - %instr#%  \,   instrument specific server channel 
\;  \$10 - \$0-toserver  \;  ;
#X obj 93 167 r \$0-octave;
#X connect 7 0 41 0;
#X connect 11 0 12 1;
#X connect 11 0 12 0;
#X connect 13 0 45 0;
#X connect 14 0 13 0;
#X connect 15 0 14 0;
#X connect 16 0 17 0;
#X connect 17 0 21 0;
#X connect 18 0 19 0;
#X connect 19 0 21 0;
#X connect 21 0 20 0;
#X connect 22 0 35 0;
#X connect 23 0 28 1;
#X connect 24 0 28 0;
#X connect 24 1 23 0;
#X connect 25 0 54 1;
#X connect 26 0 27 0;
#X connect 27 0 24 0;
#X connect 28 0 22 0;
#X connect 32 0 43 0;
#X connect 33 0 34 0;
#X connect 33 0 35 1;
#X connect 35 0 70 0;
#X connect 36 0 37 0;
#X connect 38 0 39 0;
#X connect 39 0 36 0;
#X connect 40 0 38 0;
#X connect 41 0 11 0;
#X connect 42 0 66 0;
#X connect 43 0 44 0;
#X connect 44 0 42 0;
#X connect 45 0 65 0;
#X connect 46 0 47 0;
#X connect 47 0 45 1;
#X connect 49 0 50 0;
#X connect 50 0 47 0;
#X connect 54 0 26 0;
#X connect 55 0 76 0;
#X connect 56 0 54 0;
#X connect 56 0 55 0;
#X connect 61 0 62 0;
#X connect 61 0 72 0;
#X connect 62 0 69 0;
#X connect 64 0 15 0;
#X connect 64 0 32 0;
#X connect 65 0 7 0;
#X connect 66 0 7 1;
#X connect 67 0 43 1;
#X connect 68 0 74 0;
#X connect 71 0 68 0;
#X connect 72 0 73 0;
#X connect 74 0 75 0;
#X connect 75 0 61 0;
#X connect 81 0 33 0;
#X coords 0 -1 1 1 169 283 2 825 45;
