#N canvas 1024 842 465 300 10;
#X obj 6 5 inlet;
#X obj 46 5 inlet;
#X obj 199 5 inlet;
#X obj 320 5 inlet;
#X obj 6 267 outlet;
#X msg 47 142 Z;
#X symbolatom 116 188 10 0 0 0 - - - 0 0, f 10;
#X obj 116 167 tosymbol;
#X symbolatom 268 188 10 0 0 0 - - - 0 0, f 10;
#X obj 268 167 tosymbol;
#X msg 199 142 0;
#X symbolatom 389 188 10 0 0 0 - - - 0 0, f 10;
#X obj 389 167 tosymbol;
#X msg 320 142 0;
#X obj 47 104 route symbol;
#X obj 199 104 route symbol;
#X obj 320 104 route symbol;
#X obj 47 62 list trim;
#X obj 199 59 list trim;
#X obj 320 59 list trim;
#X obj 46 32 s2l;
#X obj 199 27 s2l;
#X obj 320 28 s2l;
#X floatatom 6 188 5 0 0 0 - - - 0 0, f 5;
#X obj 6 238 pack f s s s;
#X obj 6 150 bng 15 250 50 0 empty empty empty 17 7 0 10 #fcfcfc #000000
#000000;
#X connect 0 0 23 0;
#X connect 0 0 25 0;
#X connect 1 0 20 0;
#X connect 1 0 25 0;
#X connect 2 0 21 0;
#X connect 2 0 25 0;
#X connect 3 0 22 0;
#X connect 3 0 25 0;
#X connect 5 0 7 0;
#X connect 6 0 24 1;
#X connect 7 0 6 0;
#X connect 8 0 24 2;
#X connect 9 0 8 0;
#X connect 10 0 9 0;
#X connect 11 0 24 3;
#X connect 12 0 11 0;
#X connect 13 0 12 0;
#X connect 14 0 5 0;
#X connect 14 1 7 0;
#X connect 15 0 10 0;
#X connect 15 1 9 0;
#X connect 16 0 13 0;
#X connect 16 1 12 0;
#X connect 17 0 14 0;
#X connect 18 0 15 0;
#X connect 19 0 16 0;
#X connect 20 0 17 0;
#X connect 21 0 18 0;
#X connect 22 0 19 0;
#X connect 23 0 24 0;
#X connect 24 0 4 0;
#X connect 25 0 23 0;
#X connect 25 0 11 0;
#X connect 25 0 8 0;
#X connect 25 0 6 0;
