#N canvas 9 13 564 376 10;
#X obj 26 5 inlet;
#X obj 66 5 inlet;
#X obj 219 5 inlet;
#X obj 340 5 inlet;
#X obj 5 347 outlet;
#X msg 67 142 Z;
#X symbolatom 136 188 10 0 0 0 - - - 0 0, f 10;
#X obj 136 167 tosymbol;
#X symbolatom 288 188 10 0 0 0 - - - 0 0, f 10;
#X obj 288 167 tosymbol;
#X msg 219 142 0;
#X symbolatom 409 188 10 0 0 0 - - - 0 0, f 10;
#X obj 409 167 tosymbol;
#X msg 340 142 0;
#X obj 67 104 route symbol;
#X obj 219 104 route symbol;
#X obj 340 104 route symbol;
#X obj 67 62 list trim;
#X obj 219 59 list trim;
#X obj 340 59 list trim;
#X obj 66 32 s2l;
#X obj 219 27 s2l;
#X obj 340 28 s2l;
#X floatatom 26 188 5 0 0 0 - - - 0 0, f 5;
#X obj 26 238 pack f s s s;
#N canvas 640 892 307 191 bang-whole-row 0;
#X obj 10 14 inlet;
#X obj 60 14 inlet;
#X obj 140 14 inlet;
#X obj 220 14 inlet;
#X obj 10 58 change;
#X obj 10 92 bng 15 250 50 0 empty empty empty 17 7 0 10 #fcfcfc #000000
#000000;
#X obj 10 150 outlet;
#X obj 60 36 t s s;
#X obj 60 61 select dummy;
#X obj 60 36 t s s;
#X obj 60 61 select dummy;
#X obj 140 36 t s s;
#X obj 140 61 select dummy;
#X obj 140 36 t s s;
#X obj 140 61 select dummy;
#X obj 220 36 t s s;
#X obj 220 61 select dummy;
#X obj 220 36 t s s;
#X obj 220 61 select dummy;
#X obj 65 115 outlet;
#X obj 10 115 del 100;
#X connect 0 0 4 0;
#X connect 1 0 9 0;
#X connect 2 0 13 0;
#X connect 3 0 17 0;
#X connect 4 0 5 0;
#X connect 5 0 19 0;
#X connect 5 0 20 0;
#X connect 7 0 8 1;
#X connect 7 1 8 0;
#X connect 9 0 10 1;
#X connect 9 1 10 0;
#X connect 10 1 5 0;
#X connect 11 0 12 1;
#X connect 11 1 12 0;
#X connect 13 0 14 1;
#X connect 13 1 14 0;
#X connect 14 1 5 0;
#X connect 15 0 16 1;
#X connect 15 1 16 0;
#X connect 17 0 18 1;
#X connect 17 1 18 0;
#X connect 18 1 5 0;
#X connect 20 0 6 0;
#X restore 416 28 pd bang-whole-row;
#X obj 416 53 outlet;
#X obj 5 313 gate;
#X msg 515 56 0;
#X msg 515 106 1;
#X msg 165 260 set \$1 \$2 \$3 \$4;
#X msg 165 285 69 0 7 3;
#X obj 96 338 bng 15 250 50 0 empty empty empty 17 7 0 10 #fcfcfc #000000
#000000;
#X obj 515 81 del 50;
#X connect 0 0 23 0;
#X connect 0 0 25 0;
#X connect 1 0 20 0;
#X connect 1 0 25 1;
#X connect 2 0 21 0;
#X connect 2 0 25 2;
#X connect 3 0 22 0;
#X connect 3 0 25 3;
#X connect 5 0 7 0;
#X connect 6 0 24 1;
#X connect 7 0 6 0;
#X connect 8 0 24 2;
#X connect 9 0 8 0;
#X connect 10 0 9 0;
#X connect 11 0 24 3;
#X connect 12 0 11 0;
#X connect 13 0 12 0;
#X connect 14 0 5 0;
#X connect 14 1 7 0;
#X connect 15 0 10 0;
#X connect 15 1 9 0;
#X connect 16 0 13 0;
#X connect 16 1 12 0;
#X connect 17 0 14 0;
#X connect 18 0 15 0;
#X connect 19 0 16 0;
#X connect 20 0 17 0;
#X connect 21 0 18 0;
#X connect 22 0 19 0;
#X connect 23 0 24 0;
#X connect 24 0 30 0;
#X connect 25 0 26 0;
#X connect 25 0 31 0;
#X connect 25 1 28 0;
#X connect 27 0 4 0;
#X connect 27 0 32 0;
#X connect 28 0 27 0;
#X connect 28 0 33 0;
#X connect 29 0 27 0;
#X connect 30 0 31 0;
#X connect 31 0 27 1;
#X connect 33 0 29 0;
