#N canvas 1119 969 215 275 10;
#X obj 10 11 inlet;
#X obj 10 212 outlet;
#X obj 42 192 outlet;
#X obj 74 172 outlet;
#X obj 106 152 outlet;
#X obj 74 123 tosymbol;
#X obj 106 103 tosymbol;
#X obj 42 143 tosymbol;
#X obj 10 67 route note fx1 fx2 fx3;
#X msg 10 36 note \$1 \, fx1 \$2 \, fx2 \$3 \, fx3 \$4;
#X connect 0 0 9 0;
#X connect 5 0 3 0;
#X connect 6 0 4 0;
#X connect 7 0 2 0;
#X connect 8 0 1 0;
#X connect 8 1 7 0;
#X connect 8 2 5 0;
#X connect 8 3 6 0;
#X connect 9 0 8 0;
