#N canvas 515 892 209 291 10;
#X obj 7 6 inlet;
#X obj 7 257 outlet;
#X obj 34 237 outlet;
#X obj 61 217 outlet;
#X obj 88 197 outlet;
#X msg 7 207 set \$1;
#X msg 34 187 set \$1;
#X msg 61 167 set \$1;
#X msg 88 147 set \$1;
#X obj 61 108 tosymbol;
#X obj 88 88 tosymbol;
#X obj 34 128 tosymbol;
#X obj 7 62 route note fx1 fx2 fx3;
#X msg 7 31 note \$1 \, fx1 \$2 \, fx2 \$3 \, fx3 \$4;
#X connect 0 0 13 0;
#X connect 5 0 1 0;
#X connect 6 0 2 0;
#X connect 7 0 3 0;
#X connect 8 0 4 0;
#X connect 9 0 7 0;
#X connect 10 0 8 0;
#X connect 11 0 6 0;
#X connect 12 0 5 0;
#X connect 12 1 11 0;
#X connect 12 2 9 0;
#X connect 12 3 10 0;
#X connect 13 0 12 0;
