#N canvas 474 829 1321 467 10;
#X obj 830 307 cnv 15 8 8 empty empty Typing\ Notes 43 6 0 10 #ffffff
#00ffff 0;
#X obj 830 287 cnv 15 8 8 empty empty Confirm\ Changes 43 6 0 10 #ffffff
#00ffff 0;
#X obj 830 266 cnv 15 8 8 empty empty Octave 43 6 0 10 #ffffff #00ffff
0;
#X obj 830 246 cnv 15 8 8 empty empty Note\ Duration\ (ms) 43 6 0 10
#ffffff #00ffff 0;
#X obj 830 147 ggee/image ./ui-images/starry-background.png 0 0 158
89 empty empty empty 158 89 0 0 10 #000000 0 -8 544 145.5 0 1 1;
#X obj 830 51 ggee/image ./ui-images/starry-background.png 0 0 158
89 empty empty empty 158 89 0 0 10 #000000 0 -8 544 145.5 0 1 1;
#N canvas 0 0 450 300 (subpatch) 0;
#X array \$0-instr-wt 64 float 16 black #ffc584;
#X coords 0 1 63 -1 158 89 1;
#X restore 644 51 graph;
#X obj 298 183 *~;
#X text 551 116 envelope;
#X text 551 129 generator;
#X text 342 343 audio output;
#X obj 298 288 hip~ 5;
#X obj 298 341 dac~;
#X obj 298 92 phasor~;
#X floatatom 298 71 5 0 0 0 - - - 0 0, f 5;
#X floatatom 12 167 5 0 0 0 - - - 0 0, f 5;
#X msg 39 118 1;
#X obj 12 96 t f b;
#X obj 57 4 key;
#X floatatom 12 55 5 0 0 0 - - - 0 0, f 5;
#X obj 12 75 text search midi-shortcuts 0;
#X obj 12 141 text get midi-shortcuts 1;
#X text 86 4 Convert key press to midi note;
#N canvas 0 0 450 300 (subpatch) 0;
#X array \$0-instr-env 256 float 16 black #ffc584;
#X coords 0 1 255 0 158 89 1;
#X restore 644 147 graph;
#X obj 483 47 bng 15 250 50 0 empty empty empty 17 7 0 10 #fcfcfc #000000
#000000;
#X obj 93 190 * 12;
#X floatatom 93 215 5 0 0 0 - - - 0 0, f 5;
#X obj 12 191 +;
#X obj 13 334 snapshot~;
#X floatatom 13 357 15 0 0 0 - - - 0 0, f 15;
#X obj 13 283 metro 100;
#X obj 13 308 bng 15 250 50 0 empty empty empty 17 7 0 10 #fcfcfc #000000
#000000;
#X obj 13 264 tgl 15 0 empty empty empty 17 7 0 10 #fcfcfc #000000
#000000 0 1;
#X obj 483 136 line~;
#X obj 483 94 f;
#X msg 483 115 0 \, 256 \$1;
#X obj 298 133 *~ 64;
#X obj 355 92 r wt-size;
#X floatatom 355 117 5 0 0 0 - - - 0 0, f 5;
#X floatatom 830 246 5 0 0 0 - #4 #0-note-dur 0 0, f 5;
#X obj 417 92 loadbang;
#X msg 417 117 64;
#X text 342 289 HPF to get rid of any low artifacts;
#X floatatom 830 266 5 -5 5 0 - r-null #0-octave 0 0, f 5;
#X text 12 378 Shows number output every 100ms \; activate toggle
for debugging;
#X obj 12 33 gate 1 0;
#X obj 75 33 tgl 15 0 empty empty empty 17 7 0 10 #fcfcfc #000000 #000000
1 1;
#X obj 12 5 inlet;
#X obj 830 287 bng 15 250 50 0 \$0-instrupdate r-null empty 17 7 0
10 #fcfcfc #000000 #000000;
#N canvas 0 0 450 300 (subpatch) 0;
#X array \$0-instrclient-wt 64 float 16 black #ffc584;
#X coords 0 1 63 -1 158 89 1;
#X restore 830 51 graph;
#N canvas 0 0 450 300 (subpatch) 0;
#X array \$0-instrclient-env 256 float 16 black #ffc584;
#X coords 0 1 255 0 158 89 1;
#X restore 830 147 graph;
#N canvas 44 866 1010 450 instupdate 0;
#X obj 55 146 until;
#X obj 55 173 f;
#X obj 95 173 + 1;
#X msg 110 146 0;
#X text 79 114 table size;
#X obj 55 114 64;
#X obj 38 66 bng 15 250 50 0 empty empty empty 17 7 0 10 #fcfcfc #000000
#000000;
#X obj 149 61 loadbang;
#X msg 149 86 64;
#X obj 10 343 list prepend send;
#X obj 80 368 tosymbol;
#X symbolatom 80 393 45 0 0 1 - - - 8.58927e+08 0, f 45;
#X obj 38 85 t b b b b;
#X text 152 268 sends to specific server channel:;
#X text 152 281 instrument# wavetable/env;
#X obj 10 245 pack f f;
#X obj 10 368 list trim;
#X obj 55 221 - 1;
#X text 38 10 read out table to list;
#X obj 425 146 until;
#X obj 425 173 f;
#X obj 465 173 + 1;
#X msg 480 146 0;
#X text 449 114 table size;
#X obj 408 66 bng 15 250 50 0 empty empty empty 17 7 0 10 #fcfcfc #000000
#000000;
#X obj 519 61 loadbang;
#X obj 380 343 list prepend send;
#X obj 450 368 tosymbol;
#X symbolatom 450 393 45 0 0 1 - - - 8.58927e+08 0, f 45;
#X obj 408 85 t b b b b;
#X text 525 268 sends to specific server channel:;
#X text 525 281 instrument# wavetable/env;
#X obj 380 245 pack f f;
#X obj 380 368 list trim;
#X obj 425 221 - 1;
#X text 408 10 read out table to list;
#X text 439 246 Pair value with index;
#X text 69 246 Pair value with index;
#X text 212 194 Read from wavetable;
#X text 588 194 Read from envelope table;
#X obj 783 183 list prepend send;
#X obj 783 208 list trim;
#X obj 38 38 r \$0-instrupdate;
#X obj 408 38 r \$0-instrupdate;
#X obj 55 194 tabread \$0-instrclient-wt;
#X obj 425 194 tabread \$0-instrclient-env;
#X obj 237 59 tabwrite \$0-instr-wt;
#X obj 607 59 tabwrite \$0-instr-env;
#X obj 237 38 r \$2;
#X obj 607 38 r \$3;
#X obj 783 38 r \$0-note-dur;
#X obj 237 79 tabwrite \$0-instrclient-wt;
#X obj 607 79 tabwrite \$0-instrclient-env;
#X obj 10 268 list prepend \$5;
#X obj 380 268 list prepend \$6;
#X obj 783 114 list prepend \$7;
#X obj 380 393 s \$10;
#X obj 10 393 s \$10;
#X obj 783 233 s \$10;
#X obj 10 293 list prepend \$9;
#X obj 10 318 list prepend %instruments%;
#X obj 380 318 list prepend %instruments%;
#X obj 380 293 list prepend \$9;
#X obj 425 114 256;
#X obj 848 209 tosymbol;
#X symbolatom 848 234 45 0 0 1 - - - 8.58927e+08 0, f 45;
#X obj 783 159 list prepend %instruments%;
#X obj 783 136 list prepend \$9;
#X msg 783 63 set \$1;
#X floatatom 783 88 5 0 0 0 - - - 0 0, f 5;
#X obj 868 63 bng 15 250 50 0 empty empty empty 17 7 0 10 #fcfcfc #000000
#000000;
#X obj 868 38 r \$0-instrupdate;
#X msg 519 86 256;
#X connect 0 0 1 0;
#X connect 1 0 2 0;
#X connect 1 0 44 0;
#X connect 2 0 1 1;
#X connect 2 0 17 0;
#X connect 3 0 1 1;
#X connect 5 0 0 0;
#X connect 6 0 12 0;
#X connect 7 0 8 0;
#X connect 8 0 5 1;
#X connect 9 0 10 0;
#X connect 9 0 16 0;
#X connect 10 0 11 0;
#X connect 12 1 5 0;
#X connect 12 2 3 0;
#X connect 15 0 53 0;
#X connect 16 0 57 0;
#X connect 17 0 15 1;
#X connect 19 0 20 0;
#X connect 20 0 21 0;
#X connect 20 0 45 0;
#X connect 21 0 20 1;
#X connect 21 0 34 0;
#X connect 22 0 20 1;
#X connect 24 0 29 0;
#X connect 25 0 72 0;
#X connect 26 0 27 0;
#X connect 26 0 33 0;
#X connect 27 0 28 0;
#X connect 29 1 63 0;
#X connect 29 2 22 0;
#X connect 32 0 54 0;
#X connect 33 0 56 0;
#X connect 34 0 32 1;
#X connect 40 0 41 0;
#X connect 40 0 64 0;
#X connect 41 0 58 0;
#X connect 42 0 6 0;
#X connect 43 0 24 0;
#X connect 44 0 15 0;
#X connect 45 0 32 0;
#X connect 48 0 46 0;
#X connect 48 0 51 0;
#X connect 49 0 47 0;
#X connect 49 0 52 0;
#X connect 50 0 68 0;
#X connect 53 0 59 0;
#X connect 54 0 62 0;
#X connect 55 0 67 0;
#X connect 59 0 60 0;
#X connect 60 0 9 0;
#X connect 61 0 26 0;
#X connect 62 0 61 0;
#X connect 63 0 19 0;
#X connect 64 0 65 0;
#X connect 66 0 40 0;
#X connect 67 0 66 0;
#X connect 68 0 69 0;
#X connect 69 0 55 0;
#X connect 70 0 69 0;
#X connect 71 0 70 0;
#X connect 72 0 63 1;
#X restore 644 242 pd instupdate;
#X obj 644 386 list prepend send;
#X obj 644 411 list trim;
#X text 750 336 Send notes to server;
#X obj 298 30 r \$1;
#X obj 298 157 tabread4~ \$0-instr-wt;
#X obj 483 166 tabread4~ \$0-instr-env;
#X obj 498 72 r \$0-note-dur;
#X obj 644 311 list prepend \$8;
#X obj 644 436 s \$10;
#X obj 12 235 s \$0-notetoserver;
#X obj 644 286 r \$0-notetoserver;
#X obj 707 411 tosymbol;
#X symbolatom 707 436 46 0 0 0 - - - 0 0, f 46;
#X obj 644 336 list prepend \$9;
#X obj 644 361 list prepend %instruments%;
#X obj 75 53 s \$0-midion;
#X obj 830 307 tgl 15 0 s-null \$0-midion empty 17 7 0 10 #fcfcfc #000000
#000000 1 1;
#X obj 827 302 ggee/image ./ui-images/transparent.png 0 1 25 25 empty
empty empty 25 25 1 0 10 #000000 0 -8 12.5 12.5 0 0 1;
#X obj 273 6 cnv 15 8 8 empty empty Canvas 24 6 0 10 #ffffff #00ffff
0;
#X obj 93 167 r \$0-octave;
#N canvas 51 892 1018 396 tracker-fx 0;
#X obj 146 15 inlet;
#X obj 115 335 outlet;
#X text 185 66 Route FX Messages - Z is no FX, f 35;
#X obj 36 15 inlet;
#X obj 156 170 bng 15 250 50 0 empty empty empty 17 7 0 10 #fcfcfc
#000000 #000000;
#X obj 676 252 mtof;
#X floatatom 115 307 5 0 0 0 - - - 0 0, f 5;
#N canvas 575 99 441 159 hex-to-int 0;
#X obj 17 14 inlet;
#X obj 17 69 route A B C D E F, f 33;
#X msg 17 94 10;
#X msg 47 94 11;
#X msg 77 94 12;
#X msg 107 94 13;
#X msg 137 94 14;
#X msg 167 94 15;
#X obj 17 129 outlet;
#X text 224 68 Convert A B C D E F to numbers \,  normal numbers just pass through
, f 34;
#X obj 17 39 list trim;
#X connect 0 0 10 0;
#X connect 1 0 2 0;
#X connect 1 1 3 0;
#X connect 1 2 4 0;
#X connect 1 3 5 0;
#X connect 1 4 6 0;
#X connect 1 5 7 0;
#X connect 1 6 8 0;
#X connect 2 0 8 0;
#X connect 3 0 8 0;
#X connect 4 0 8 0;
#X connect 5 0 8 0;
#X connect 6 0 8 0;
#X connect 7 0 8 0;
#X connect 10 0 1 0;
#X restore 36 125 pd hex-to-int;
#X obj 36 203 + 1;
#X floatatom 676 226 5 0 0 0 - - - 0 0, f 5;
#X obj 36 40 s \$0-note;
#X floatatom 115 250 5 0 0 0 - - - 0 0, f 5;
#X obj 676 176 r \$0-note;
#X msg 676 201 set \$1;
#X obj 187 30 r \$12;
#X text 188 13 Tick!;
#X obj 36 98 list split 1;
#X obj 36 59 bng 15 250 50 0 empty empty empty 17 7 0 10 #fcfcfc #000000
#000000;
#X obj 36 76 s \$0-trnote;
#X obj 723 201 r \$0-trnote;
#X obj 36 233 t b f;
#N canvas 67 427 450 406 0xy 0;
#X obj 119 10 inlet;
#X obj 44 375 outlet;
#X obj 17 101 r \$12;
#X text 51 102 Tick recieve, f 13;
#X obj 164 38 list split 1;
#X obj 164 136 +;
#X obj 254 136 +;
#N canvas 575 99 441 159 hex-to-int 0;
#X obj 17 14 inlet;
#X obj 17 69 route A B C D E F, f 33;
#X msg 17 94 10;
#X msg 47 94 11;
#X msg 77 94 12;
#X msg 107 94 13;
#X msg 137 94 14;
#X msg 167 94 15;
#X obj 17 129 outlet;
#X text 224 68 Convert A B C D E F to numbers \,  normal numbers just pass through
, f 34;
#X obj 17 39 list trim;
#X connect 0 0 10 0;
#X connect 1 0 2 0;
#X connect 1 1 3 0;
#X connect 1 2 4 0;
#X connect 1 3 5 0;
#X connect 1 4 6 0;
#X connect 1 5 7 0;
#X connect 1 6 8 0;
#X connect 2 0 8 0;
#X connect 3 0 8 0;
#X connect 4 0 8 0;
#X connect 5 0 8 0;
#X connect 6 0 8 0;
#X connect 7 0 8 0;
#X connect 10 0 1 0;
#X restore 164 60 pd hex-to-int;
#N canvas 575 99 441 159 hex-to-int 0;
#X obj 17 14 inlet;
#X obj 17 69 route A B C D E F, f 33;
#X msg 17 94 10;
#X msg 47 94 11;
#X msg 77 94 12;
#X msg 107 94 13;
#X msg 137 94 14;
#X msg 167 94 15;
#X obj 17 129 outlet;
#X text 224 68 Convert A B C D E F to numbers \,  normal numbers just pass through
, f 34;
#X obj 17 39 list trim;
#X connect 0 0 10 0;
#X connect 1 0 2 0;
#X connect 1 1 3 0;
#X connect 1 2 4 0;
#X connect 1 3 5 0;
#X connect 1 4 6 0;
#X connect 1 5 7 0;
#X connect 1 6 8 0;
#X connect 2 0 8 0;
#X connect 3 0 8 0;
#X connect 4 0 8 0;
#X connect 5 0 8 0;
#X connect 6 0 8 0;
#X connect 7 0 8 0;
#X connect 10 0 1 0;
#X restore 254 60 pd hex-to-int;
#X floatatom 164 191 5 0 0 0 - - - 0 0, f 5;
#X floatatom 254 191 5 0 0 0 - - - 0 0, f 5;
#X obj 44 323 switch 3;
#X floatatom 190 357 5 0 0 0 - - - 0 0, f 5;
#X floatatom 59 191 5 0 0 0 - - - 0 0, f 5;
#X obj 17 75 bng 15 250 50 0 empty empty empty 17 7 0 10 #fcfcfc #000000
#000000;
#X text 37 75 Debug Bang, f 13;
#X floatatom 44 252 5 0 0 0 - - - 0 0, f 5;
#X obj 44 227 count 3;
#X floatatom 304 302 5 0 0 0 - - - 0 0, f 5;
#X obj 304 277 count 3;
#X obj 331 219 bng 15 250 50 0 empty empty empty 17 7 0 10 #fcfcfc
#000000 #000000;
#X obj 190 340 bng 15 250 50 0 empty empty empty 17 7 0 10 #fcfcfc
#000000 #000000;
#X obj 17 126 t b b;
#X obj 44 276 + 1;
#X msg 359 218 reset;
#X msg 94 210 reset;
#X obj 59 10 r \$0-note;
#X obj 44 348 mtof;
#X floatatom 190 375 5 0 0 0 - - - 0 0, f 5;
#X floatatom 164 108 5 0 0 0 - - - 0 0, f 5;
#X floatatom 254 108 5 0 0 0 - - - 0 0, f 5;
#X obj 59 35 t b f;
#X connect 0 0 4 0;
#X connect 2 0 22 0;
#X connect 4 0 7 0;
#X connect 4 1 8 0;
#X connect 5 0 9 0;
#X connect 6 0 10 0;
#X connect 7 0 29 0;
#X connect 8 0 30 0;
#X connect 9 0 11 2;
#X connect 10 0 11 3;
#X connect 11 0 12 0;
#X connect 11 0 21 0;
#X connect 11 0 27 0;
#X connect 13 0 11 1;
#X connect 14 0 22 0;
#X connect 16 0 23 0;
#X connect 17 0 16 0;
#X connect 19 0 18 0;
#X connect 20 0 19 0;
#X connect 22 0 13 0;
#X connect 22 0 10 0;
#X connect 22 0 9 0;
#X connect 22 1 17 0;
#X connect 23 0 11 0;
#X connect 24 0 19 0;
#X connect 25 0 17 0;
#X connect 26 0 13 0;
#X connect 26 0 25 0;
#X connect 26 0 31 0;
#X connect 27 0 28 0;
#X connect 27 0 1 0;
#X connect 29 0 5 0;
#X connect 30 0 6 0;
#X connect 31 0 29 0;
#X connect 31 0 30 0;
#X connect 31 1 6 1;
#X connect 31 1 5 1;
#X restore 146 145 pd 0xy;
#X obj 205 170 bng 15 250 50 0 empty empty empty 17 7 0 10 #fcfcfc
#000000 #000000;
#X obj 172 335 s \$0-noteretrig;
#X text 272 335 Use for FX that re-trigger the envelope;
#N canvas 1217 836 403 343 4xy 0;
#X obj 114 18 inlet;
#X obj 27 311 outlet;
#X obj 114 61 list split 1;
#N canvas 575 99 441 159 hex-to-int 0;
#X obj 17 14 inlet;
#X obj 17 69 route A B C D E F, f 33;
#X msg 17 94 10;
#X msg 47 94 11;
#X msg 77 94 12;
#X msg 107 94 13;
#X msg 137 94 14;
#X msg 167 94 15;
#X obj 17 129 outlet;
#X text 224 68 Convert A B C D E F to numbers \,  normal numbers just pass through
, f 34;
#X obj 17 39 list trim;
#X connect 0 0 10 0;
#X connect 1 0 2 0;
#X connect 1 1 3 0;
#X connect 1 2 4 0;
#X connect 1 3 5 0;
#X connect 1 4 6 0;
#X connect 1 5 7 0;
#X connect 1 6 8 0;
#X connect 2 0 8 0;
#X connect 3 0 8 0;
#X connect 4 0 8 0;
#X connect 5 0 8 0;
#X connect 6 0 8 0;
#X connect 7 0 8 0;
#X connect 10 0 1 0;
#X restore 114 83 pd hex-to-int;
#N canvas 575 99 441 159 hex-to-int 0;
#X obj 17 14 inlet;
#X obj 17 69 route A B C D E F, f 33;
#X msg 17 94 10;
#X msg 47 94 11;
#X msg 77 94 12;
#X msg 107 94 13;
#X msg 137 94 14;
#X msg 167 94 15;
#X obj 17 129 outlet;
#X text 224 68 Convert A B C D E F to numbers \,  normal numbers just pass through
, f 34;
#X obj 17 39 list trim;
#X connect 0 0 10 0;
#X connect 1 0 2 0;
#X connect 1 1 3 0;
#X connect 1 2 4 0;
#X connect 1 3 5 0;
#X connect 1 4 6 0;
#X connect 1 5 7 0;
#X connect 1 6 8 0;
#X connect 2 0 8 0;
#X connect 3 0 8 0;
#X connect 4 0 8 0;
#X connect 5 0 8 0;
#X connect 6 0 8 0;
#X connect 7 0 8 0;
#X connect 10 0 1 0;
#X restore 204 83 pd hex-to-int;
#X floatatom 114 104 5 0 0 0 - - - 0 0, f 5;
#X floatatom 204 104 5 0 0 0 - - - 0 0, f 5;
#X obj 42 188 r \$0-note;
#X floatatom 204 153 5 0 0 0 - - - 0 0, f 5;
#X text 151 104 Speed;
#X text 244 104 Depth;
#X obj 114 144 osc~;
#X obj 114 169 *~;
#X floatatom 42 211 5 0 0 0 - - - 0 0, f 5;
#X obj 27 245 +;
#X obj 114 194 snapshot~;
#X obj 333 147 tgl 15 0 empty empty empty 17 7 0 10 #fcfcfc #000000
#000000 0 1;
#X msg 333 125 1;
#X floatatom 114 219 5 0 0 0 - - - 0 0, f 5;
#X floatatom 27 267 5 0 0 0 - - - 0 0, f 5;
#X obj 333 171 metro 50;
#X obj 204 128 / 7;
#X obj 27 291 mtof;
#X obj 289 40 inlet;
#X msg 289 125 0;
#X obj 289 65 == 4;
#X obj 289 90 sel 0;
#X connect 0 0 2 0;
#X connect 0 0 17 0;
#X connect 2 0 3 0;
#X connect 2 1 4 0;
#X connect 3 0 5 0;
#X connect 4 0 6 0;
#X connect 5 0 11 0;
#X connect 6 0 21 0;
#X connect 7 0 13 0;
#X connect 8 0 12 1;
#X connect 11 0 12 0;
#X connect 12 0 15 0;
#X connect 13 0 14 1;
#X connect 14 0 19 0;
#X connect 15 0 18 0;
#X connect 16 0 20 0;
#X connect 17 0 16 0;
#X connect 18 0 14 0;
#X connect 19 0 22 0;
#X connect 20 0 15 0;
#X connect 21 0 8 0;
#X connect 22 0 1 0;
#X connect 23 0 25 0;
#X connect 24 0 16 0;
#X connect 25 0 26 0;
#X connect 26 0 24 0;
#X restore 297 145 pd 4xy;
#X obj 307 170 bng 15 250 50 0 empty empty empty 17 7 0 10 #fcfcfc
#000000 #000000;
#N canvas 1478 904 326 352 7xy 0;
#X obj 30 24 inlet;
#X obj 30 317 outlet;
#X obj 30 67 list split 1;
#N canvas 575 99 441 159 hex-to-int 0;
#X obj 17 14 inlet;
#X obj 17 69 route A B C D E F, f 33;
#X msg 17 94 10;
#X msg 47 94 11;
#X msg 77 94 12;
#X msg 107 94 13;
#X msg 137 94 14;
#X msg 167 94 15;
#X obj 17 129 outlet;
#X text 224 68 Convert A B C D E F to numbers \,  normal numbers just pass through
, f 34;
#X obj 17 39 list trim;
#X connect 0 0 10 0;
#X connect 1 0 2 0;
#X connect 1 1 3 0;
#X connect 1 2 4 0;
#X connect 1 3 5 0;
#X connect 1 4 6 0;
#X connect 1 5 7 0;
#X connect 1 6 8 0;
#X connect 2 0 8 0;
#X connect 3 0 8 0;
#X connect 4 0 8 0;
#X connect 5 0 8 0;
#X connect 6 0 8 0;
#X connect 7 0 8 0;
#X connect 10 0 1 0;
#X restore 30 89 pd hex-to-int;
#N canvas 575 99 441 159 hex-to-int 0;
#X obj 17 14 inlet;
#X obj 17 69 route A B C D E F, f 33;
#X msg 17 94 10;
#X msg 47 94 11;
#X msg 77 94 12;
#X msg 107 94 13;
#X msg 137 94 14;
#X msg 167 94 15;
#X obj 17 129 outlet;
#X text 224 68 Convert A B C D E F to numbers \,  normal numbers just pass through
, f 34;
#X obj 17 39 list trim;
#X connect 0 0 10 0;
#X connect 1 0 2 0;
#X connect 1 1 3 0;
#X connect 1 2 4 0;
#X connect 1 3 5 0;
#X connect 1 4 6 0;
#X connect 1 5 7 0;
#X connect 1 6 8 0;
#X connect 2 0 8 0;
#X connect 3 0 8 0;
#X connect 4 0 8 0;
#X connect 5 0 8 0;
#X connect 6 0 8 0;
#X connect 7 0 8 0;
#X connect 10 0 1 0;
#X restore 120 89 pd hex-to-int;
#X floatatom 30 110 5 0 0 0 - - - 0 0, f 5;
#X floatatom 120 110 5 0 0 0 - - - 0 0, f 5;
#X floatatom 120 159 5 0 0 0 - - - 0 0, f 5;
#X text 67 110 Speed;
#X text 160 110 Depth;
#X obj 30 150 osc~;
#X obj 30 175 *~;
#X obj 30 200 snapshot~;
#X obj 249 153 tgl 15 0 empty empty empty 17 7 0 10 #fcfcfc #000000
#000000 0 1;
#X msg 249 131 1;
#X floatatom 30 225 5 0 0 0 - - - 0 0, f 5;
#X obj 249 177 metro 50;
#X obj 205 56 inlet;
#X msg 205 131 0;
#X obj 120 134 / 15;
#X obj 205 81 == 7;
#X obj 205 106 sel 0;
#X connect 0 0 2 0;
#X connect 0 0 14 0;
#X connect 2 0 3 0;
#X connect 2 1 4 0;
#X connect 3 0 5 0;
#X connect 4 0 6 0;
#X connect 5 0 10 0;
#X connect 6 0 19 0;
#X connect 7 0 11 1;
#X connect 10 0 11 0;
#X connect 11 0 12 0;
#X connect 12 0 15 0;
#X connect 13 0 16 0;
#X connect 14 0 13 0;
#X connect 15 0 1 0;
#X connect 16 0 12 0;
#X connect 17 0 20 0;
#X connect 18 0 13 0;
#X connect 18 0 1 0;
#X connect 19 0 7 0;
#X connect 20 0 21 0;
#X connect 21 0 18 0;
#X restore 351 145 pd 7xy;
#X obj 361 170 bng 15 250 50 0 empty empty empty 17 7 0 10 #fcfcfc
#000000 #000000;
#X obj 351 196 outlet;
#X obj 723 226 bng 15 250 50 0 empty empty empty 17 7 0 10 #fcfcfc
#000000 #000000;
#X obj 411 170 bng 15 250 50 0 empty empty empty 17 7 0 10 #fcfcfc
#000000 #000000;
#X obj 401 196 outlet;
#N canvas 700 859 450 392 8xx 0;
#X obj 20 14 inlet;
#X obj 20 357 outlet;
#X obj 20 57 list split 1;
#N canvas 575 99 441 159 hex-to-int 0;
#X obj 17 14 inlet;
#X obj 17 69 route A B C D E F, f 33;
#X msg 17 94 10;
#X msg 47 94 11;
#X msg 77 94 12;
#X msg 107 94 13;
#X msg 137 94 14;
#X msg 167 94 15;
#X obj 17 129 outlet;
#X text 224 68 Convert A B C D E F to numbers \,  normal numbers just pass through
, f 34;
#X obj 17 39 list trim;
#X connect 0 0 10 0;
#X connect 1 0 2 0;
#X connect 1 1 3 0;
#X connect 1 2 4 0;
#X connect 1 3 5 0;
#X connect 1 4 6 0;
#X connect 1 5 7 0;
#X connect 1 6 8 0;
#X connect 2 0 8 0;
#X connect 3 0 8 0;
#X connect 4 0 8 0;
#X connect 5 0 8 0;
#X connect 6 0 8 0;
#X connect 7 0 8 0;
#X connect 10 0 1 0;
#X restore 20 79 pd hex-to-int;
#N canvas 575 99 441 159 hex-to-int 0;
#X obj 17 14 inlet;
#X obj 17 69 route A B C D E F, f 33;
#X msg 17 94 10;
#X msg 47 94 11;
#X msg 77 94 12;
#X msg 107 94 13;
#X msg 137 94 14;
#X msg 167 94 15;
#X obj 17 129 outlet;
#X text 224 68 Convert A B C D E F to numbers \,  normal numbers just pass through
, f 34;
#X obj 17 39 list trim;
#X connect 0 0 10 0;
#X connect 1 0 2 0;
#X connect 1 1 3 0;
#X connect 1 2 4 0;
#X connect 1 3 5 0;
#X connect 1 4 6 0;
#X connect 1 5 7 0;
#X connect 1 6 8 0;
#X connect 2 0 8 0;
#X connect 3 0 8 0;
#X connect 4 0 8 0;
#X connect 5 0 8 0;
#X connect 6 0 8 0;
#X connect 7 0 8 0;
#X connect 10 0 1 0;
#X restore 110 79 pd hex-to-int;
#X floatatom 20 100 5 0 0 0 - - - 0 0, f 5;
#X floatatom 110 100 5 0 0 0 - - - 0 0, f 5;
#X obj 20 159 +;
#X obj 20 124 * 16;
#X floatatom 20 184 5 0 0 0 - - - 0 0, f 5;
#X floatatom 20 233 5 0 0 0 - - - 0 0, f 5;
#X obj 20 257 - 45;
#X floatatom 20 282 5 0 0 0 - - - 0 0, f 5;
#X obj 20 306 int;
#X floatatom 20 331 5 0 0 0 - - - 0 0, f 5;
#X msg 236 30 F F;
#X msg 276 30 0 0;
#X msg 316 30 2 5;
#X msg 356 30 9 A;
#X obj 20 208 / 2.83;
#X obj 210 79 inlet;
#X text 240 220 Reset on new note;
#X msg 180 220 0;
#X obj 180 265 gate;
#X msg 130 220 1;
#X msg 180 220 0;
#X obj 130 194 del 5;
#X msg 210 220 0;
#X obj 223 192 loadbang;
#X connect 0 0 2 0;
#X connect 0 0 26 0;
#X connect 0 0 25 0;
#X connect 0 0 22 0;
#X connect 2 0 3 0;
#X connect 2 1 4 0;
#X connect 3 0 5 0;
#X connect 4 0 6 0;
#X connect 5 0 8 0;
#X connect 6 0 7 1;
#X connect 7 0 9 0;
#X connect 8 0 7 0;
#X connect 9 0 19 0;
#X connect 10 0 11 0;
#X connect 11 0 12 0;
#X connect 12 0 13 0;
#X connect 13 0 14 0;
#X connect 14 0 1 0;
#X connect 15 0 2 0;
#X connect 16 0 2 0;
#X connect 17 0 2 0;
#X connect 18 0 2 0;
#X connect 19 0 10 0;
#X connect 20 0 27 0;
#X connect 22 0 23 0;
#X connect 23 0 12 0;
#X connect 24 0 23 0;
#X connect 26 0 24 0;
#X connect 27 0 23 1;
#X connect 28 0 24 0;
#X restore 401 145 pd 8xx;
#X obj 524 170 bng 15 250 50 0 empty empty empty 17 7 0 10 #fcfcfc
#000000 #000000;
#X obj 454 224 outlet;
#N canvas 1131 250 462 453 Cxx 0;
#X obj 20 14 inlet;
#X obj 20 387 outlet;
#X obj 20 57 list split 1;
#N canvas 575 99 441 159 hex-to-int 0;
#X obj 17 14 inlet;
#X obj 17 69 route A B C D E F, f 33;
#X msg 17 94 10;
#X msg 47 94 11;
#X msg 77 94 12;
#X msg 107 94 13;
#X msg 137 94 14;
#X msg 167 94 15;
#X obj 17 129 outlet;
#X text 224 68 Convert A B C D E F to numbers \,  normal numbers just pass through
, f 34;
#X obj 17 39 list trim;
#X connect 0 0 10 0;
#X connect 1 0 2 0;
#X connect 1 1 3 0;
#X connect 1 2 4 0;
#X connect 1 3 5 0;
#X connect 1 4 6 0;
#X connect 1 5 7 0;
#X connect 1 6 8 0;
#X connect 2 0 8 0;
#X connect 3 0 8 0;
#X connect 4 0 8 0;
#X connect 5 0 8 0;
#X connect 6 0 8 0;
#X connect 7 0 8 0;
#X connect 10 0 1 0;
#X restore 20 79 pd hex-to-int;
#N canvas 575 99 441 159 hex-to-int 0;
#X obj 17 14 inlet;
#X obj 17 69 route A B C D E F, f 33;
#X msg 17 94 10;
#X msg 47 94 11;
#X msg 77 94 12;
#X msg 107 94 13;
#X msg 137 94 14;
#X msg 167 94 15;
#X obj 17 129 outlet;
#X text 224 68 Convert A B C D E F to numbers \,  normal numbers just pass through
, f 34;
#X obj 17 39 list trim;
#X connect 0 0 10 0;
#X connect 1 0 2 0;
#X connect 1 1 3 0;
#X connect 1 2 4 0;
#X connect 1 3 5 0;
#X connect 1 4 6 0;
#X connect 1 5 7 0;
#X connect 1 6 8 0;
#X connect 2 0 8 0;
#X connect 3 0 8 0;
#X connect 4 0 8 0;
#X connect 5 0 8 0;
#X connect 6 0 8 0;
#X connect 7 0 8 0;
#X connect 10 0 1 0;
#X restore 110 79 pd hex-to-int;
#X floatatom 20 100 5 0 0 0 - - - 0 0, f 5;
#X floatatom 110 100 5 0 0 0 - - - 0 0, f 5;
#X obj 20 159 +;
#X obj 20 124 * 16;
#X floatatom 20 184 5 0 0 0 - - - 0 0, f 5;
#X floatatom 20 353 5 0 0 0 - - - 0 0, f 5;
#X msg 236 30 F F;
#X msg 276 30 0 0;
#X msg 316 30 2 5;
#X msg 356 30 9 A;
#X obj 210 79 inlet;
#X obj 20 216 moses 64;
#X msg 89 237 64;
#X obj 20 258 / 64;
#X text 240 266 Reset on new note;
#X msg 210 266 1;
#X msg 180 266 0;
#X obj 180 311 gate;
#X msg 130 266 1;
#X msg 180 266 0;
#X obj 130 240 del 5;
#X obj 242 234 loadbang;
#X connect 0 0 2 0;
#X connect 0 0 21 0;
#X connect 0 0 25 0;
#X connect 2 0 3 0;
#X connect 2 1 4 0;
#X connect 3 0 5 0;
#X connect 4 0 6 0;
#X connect 5 0 8 0;
#X connect 6 0 7 1;
#X connect 7 0 9 0;
#X connect 8 0 7 0;
#X connect 9 0 16 0;
#X connect 10 0 1 0;
#X connect 11 0 2 0;
#X connect 12 0 2 0;
#X connect 13 0 2 0;
#X connect 14 0 2 0;
#X connect 15 0 20 0;
#X connect 16 0 18 0;
#X connect 16 1 17 0;
#X connect 17 0 18 0;
#X connect 18 0 10 0;
#X connect 20 0 22 1;
#X connect 21 0 22 0;
#X connect 22 0 10 0;
#X connect 23 0 22 0;
#X connect 25 0 23 0;
#X connect 26 0 23 0;
#X restore 514 145 pd Cxx;
#X obj 464 170 bng 15 250 50 0 empty empty empty 17 7 0 10 #fcfcfc
#000000 #000000;
#N canvas 1601 181 413 526 Axy 0;
#X obj 20 14 inlet;
#X obj 20 467 outlet;
#X obj 20 57 list split 1;
#N canvas 575 99 441 159 hex-to-int 0;
#X obj 17 14 inlet;
#X obj 17 69 route A B C D E F, f 33;
#X msg 17 94 10;
#X msg 47 94 11;
#X msg 77 94 12;
#X msg 107 94 13;
#X msg 137 94 14;
#X msg 167 94 15;
#X obj 17 129 outlet;
#X text 224 68 Convert A B C D E F to numbers \,  normal numbers just pass through
, f 34;
#X obj 17 39 list trim;
#X connect 0 0 10 0;
#X connect 1 0 2 0;
#X connect 1 1 3 0;
#X connect 1 2 4 0;
#X connect 1 3 5 0;
#X connect 1 4 6 0;
#X connect 1 5 7 0;
#X connect 1 6 8 0;
#X connect 2 0 8 0;
#X connect 3 0 8 0;
#X connect 4 0 8 0;
#X connect 5 0 8 0;
#X connect 6 0 8 0;
#X connect 7 0 8 0;
#X connect 10 0 1 0;
#X restore 20 79 pd hex-to-int;
#N canvas 575 99 441 159 hex-to-int 0;
#X obj 17 14 inlet;
#X obj 17 69 route A B C D E F, f 33;
#X msg 17 94 10;
#X msg 47 94 11;
#X msg 77 94 12;
#X msg 107 94 13;
#X msg 137 94 14;
#X msg 167 94 15;
#X obj 17 129 outlet;
#X text 224 68 Convert A B C D E F to numbers \,  normal numbers just pass through
, f 34;
#X obj 17 39 list trim;
#X connect 0 0 10 0;
#X connect 1 0 2 0;
#X connect 1 1 3 0;
#X connect 1 2 4 0;
#X connect 1 3 5 0;
#X connect 1 4 6 0;
#X connect 1 5 7 0;
#X connect 1 6 8 0;
#X connect 2 0 8 0;
#X connect 3 0 8 0;
#X connect 4 0 8 0;
#X connect 5 0 8 0;
#X connect 6 0 8 0;
#X connect 7 0 8 0;
#X connect 10 0 1 0;
#X restore 110 79 pd hex-to-int;
#X floatatom 20 100 5 0 0 0 - - - 0 0, f 5;
#X floatatom 20 304 5 0 0 0 - - - 0 0, f 5;
#X floatatom 20 393 5 0 0 0 - - - 0 0, f 5;
#X msg 236 30 F F;
#X msg 276 30 0 0;
#X msg 316 30 2 5;
#X msg 356 30 9 A;
#X obj 210 79 inlet;
#X obj 20 326 moses 64;
#X msg 89 348 64;
#X obj 20 368 / 64;
#X text 240 331 Reset on new note;
#X msg 180 331 0;
#X obj 180 376 gate;
#X msg 130 331 1;
#X msg 180 331 0;
#X obj 130 305 del 5;
#X obj 242 299 loadbang;
#X obj 20 214 +;
#X obj 50 139 inlet;
#X text 50 124 Default Vol;
#X obj 20 279 -;
#X msg 110 104 set \$1;
#X floatatom 110 256 5 0 0 0 - - - 0 0, f 5;
#X obj 20 239 t f b;
#X obj 20 417 line;
#X obj 69 387 r \$13;
#X floatatom 20 442 5 0 0 0 - - - 0 0, f 5;
#X floatatom 69 422 5 0 0 0 - - - 0 0, f 5;
#X obj 118 407 bng 15 250 50 0 empty empty empty 17 7 0 10 #fcfcfc
#000000 #000000;
#X floatatom 50 164 5 0 0 0 - - - 0 0, f 5;
#X obj 90 159 inlet;
#X text 90 144 Cxx Vol;
#X obj 220 104 bng 15 250 50 0 empty empty empty 17 7 0 10 #fcfcfc
#000000 #000000;
#X obj 180 401 bng 15 250 50 0 empty empty empty 17 7 0 10 #fcfcfc
#000000 #000000;
#X msg 210 331 1;
#X obj 90 204 bng 15 250 50 0 empty empty empty 17 7 0 10 #fcfcfc #000000
#000000;
#X obj 90 184 * 64;
#X connect 0 0 2 0;
#X connect 0 0 21 0;
#X connect 0 0 20 0;
#X connect 0 0 17 0;
#X connect 2 0 3 0;
#X connect 2 1 4 0;
#X connect 3 0 5 0;
#X connect 4 0 27 0;
#X connect 5 0 23 0;
#X connect 6 0 13 0;
#X connect 7 0 30 0;
#X connect 7 0 34 0;
#X connect 8 0 2 0;
#X connect 9 0 2 0;
#X connect 10 0 2 0;
#X connect 11 0 2 0;
#X connect 12 0 40 0;
#X connect 12 0 38 0;
#X connect 13 0 15 0;
#X connect 13 1 14 0;
#X connect 14 0 15 0;
#X connect 15 0 7 0;
#X connect 17 0 18 0;
#X connect 18 0 7 0;
#X connect 18 0 39 0;
#X connect 19 0 18 0;
#X connect 21 0 19 0;
#X connect 22 0 19 0;
#X connect 23 0 29 0;
#X connect 24 0 35 0;
#X connect 26 0 6 0;
#X connect 27 0 28 0;
#X connect 28 0 26 1;
#X connect 29 0 26 0;
#X connect 29 1 28 0;
#X connect 30 0 32 0;
#X connect 31 0 33 0;
#X connect 32 0 1 0;
#X connect 33 0 30 1;
#X connect 34 0 33 0;
#X connect 35 0 23 1;
#X connect 36 0 42 0;
#X connect 39 0 35 0;
#X connect 40 0 18 1;
#X connect 41 0 5 0;
#X connect 42 0 41 0;
#X connect 42 0 23 1;
#X restore 454 145 pd Axy;
#X obj 434 115 r \$0-trnote;
#X floatatom 537 22 5 0 0 0 - - - 0 0, f 5;
#X obj 416 16 loadbang;
#X text 637 22 Default Vol (In decimal - 0 - 64 instead of 0 - 40)
;
#X msg 483 23 32;
#X text 526 317 Cxx output connects to Axy so it manipulates most recent
vol, f 17;
#X text 639 307 NOTE: Currentlydoesn't work ifCxx and note activate
simultaneously, f 18;
#N canvas 35 449 1035 350 EXy 0;
#X obj 175 29 inlet;
#X obj 175 74 route 1 2 3 4 5 6 7 8 9 A B C D E, f 69;
#N canvas 575 99 441 159 hex-to-int 0;
#X obj 17 14 inlet;
#X obj 17 69 route A B C D E F, f 33;
#X msg 17 94 10;
#X msg 47 94 11;
#X msg 77 94 12;
#X msg 107 94 13;
#X msg 137 94 14;
#X msg 167 94 15;
#X obj 17 129 outlet;
#X text 224 68 Convert A B C D E F to numbers \,  normal numbers just pass through
, f 34;
#X obj 17 39 list trim;
#X connect 0 0 10 0;
#X connect 1 0 2 0;
#X connect 1 1 3 0;
#X connect 1 2 4 0;
#X connect 1 3 5 0;
#X connect 1 4 6 0;
#X connect 1 5 7 0;
#X connect 1 6 8 0;
#X connect 2 0 8 0;
#X connect 3 0 8 0;
#X connect 4 0 8 0;
#X connect 5 0 8 0;
#X connect 6 0 8 0;
#X connect 7 0 8 0;
#X connect 10 0 1 0;
#X restore 60 74 pd hex-to-int;
#X obj 60 102 + 1;
#X floatatom 139 157 5 0 0 0 - - - 0 0, f 5;
#X obj 60 166 bng 15 250 50 0 empty empty empty 17 7 0 10 #fcfcfc #000000
#000000;
#X obj 60 189 s \$0-trnote;
#X obj 60 122 t b f;
#X obj 139 201 switch 16, f 75;
#X obj 139 226 outlet;
#N canvas 1408 820 174 230 E9x 0;
#X obj 5 5 inlet;
#N canvas 575 99 441 159 hex-to-int 0;
#X obj 17 14 inlet;
#X obj 17 69 route A B C D E F, f 33;
#X msg 17 94 10;
#X msg 47 94 11;
#X msg 77 94 12;
#X msg 107 94 13;
#X msg 137 94 14;
#X msg 167 94 15;
#X obj 17 129 outlet;
#X text 224 68 Convert A B C D E F to numbers \,  normal numbers just pass through
, f 34;
#X obj 17 39 list trim;
#X connect 0 0 10 0;
#X connect 1 0 2 0;
#X connect 1 1 3 0;
#X connect 1 2 4 0;
#X connect 1 3 5 0;
#X connect 1 4 6 0;
#X connect 1 5 7 0;
#X connect 1 6 8 0;
#X connect 2 0 8 0;
#X connect 3 0 8 0;
#X connect 4 0 8 0;
#X connect 5 0 8 0;
#X connect 6 0 8 0;
#X connect 7 0 8 0;
#X connect 10 0 1 0;
#X restore 5 27 pd hex-to-int;
#X floatatom 5 52 5 0 0 0 - - - 0 0, f 5;
#X obj 5 118 counter;
#X obj 5 80 r \$0-tick;
#X floatatom 5 143 5 0 0 0 - - - 0 0, f 5;
#X obj 71 81 bng 15 250 50 0 empty empty empty 17 7 0 10 #fcfcfc #000000
#000000;
#X obj 94 80 r \$0-trnote;
#X obj 5 197 s \$0-noteretrig;
#X obj 137 192 bng 15 250 50 0 empty empty empty 17 7 0 10 #fcfcfc
#000000 #000000;
#X msg 99 26 5;
#X obj 5 167 sel 0;
#X connect 0 0 1 0;
#X connect 1 0 2 0;
#X connect 2 0 3 4;
#X connect 3 0 5 0;
#X connect 4 0 3 0;
#X connect 5 0 11 0;
#X connect 6 0 3 0;
#X connect 7 0 3 2;
#X connect 10 0 2 0;
#X connect 11 0 9 0;
#X connect 11 0 8 0;
#X restore 409 112 pd E9x;
#X obj 586 173 mtof;
#X floatatom 586 147 5 0 0 0 - - - 0 0, f 5;
#X obj 586 97 r \$0-note;
#X msg 586 122 set \$1;
#X obj 633 122 r \$0-trnote;
#X obj 633 147 bng 15 250 50 0 empty empty empty 17 7 0 10 #fcfcfc
#000000 #000000;
#X text 657 146 NOTE: Sometimestriggers previous notebefore change.
Need torevise bang order.;
#N canvas 969 621 181 249 ECx 0;
#X obj 5 5 inlet;
#N canvas 575 99 441 159 hex-to-int 0;
#X obj 17 14 inlet;
#X obj 17 69 route A B C D E F, f 33;
#X msg 17 94 10;
#X msg 47 94 11;
#X msg 77 94 12;
#X msg 107 94 13;
#X msg 137 94 14;
#X msg 167 94 15;
#X obj 17 129 outlet;
#X text 224 68 Convert A B C D E F to numbers \,  normal numbers just pass through
, f 34;
#X obj 17 39 list trim;
#X connect 0 0 10 0;
#X connect 1 0 2 0;
#X connect 1 1 3 0;
#X connect 1 2 4 0;
#X connect 1 3 5 0;
#X connect 1 4 6 0;
#X connect 1 5 7 0;
#X connect 1 6 8 0;
#X connect 2 0 8 0;
#X connect 3 0 8 0;
#X connect 4 0 8 0;
#X connect 5 0 8 0;
#X connect 6 0 8 0;
#X connect 7 0 8 0;
#X connect 10 0 1 0;
#X restore 5 27 pd hex-to-int;
#X floatatom 5 52 5 0 0 0 - - - 0 0, f 5;
#X obj 5 118 counter;
#X obj 5 80 r \$0-tick;
#X floatatom 5 143 5 0 0 0 - - - 0 0, f 5;
#X obj 71 81 bng 15 250 50 0 empty empty empty 17 7 0 10 #fcfcfc #000000
#000000;
#X obj 94 80 r \$0-trnote;
#X obj 137 192 bng 15 250 50 0 empty empty empty 17 7 0 10 #fcfcfc
#000000 #000000;
#X msg 99 26 5;
#X obj 5 167 sel 0;
#X msg 5 192 0;
#X obj 5 217 outlet;
#X connect 0 0 1 0;
#X connect 1 0 2 0;
#X connect 2 0 3 4;
#X connect 2 0 10 1;
#X connect 3 0 5 0;
#X connect 4 0 3 0;
#X connect 5 0 10 0;
#X connect 6 0 3 0;
#X connect 7 0 3 2;
#X connect 9 0 2 0;
#X connect 10 0 8 0;
#X connect 10 0 11 0;
#X connect 11 0 12 0;
#X restore 497 112 pd ECx;
#X obj 497 137 outlet;
#X connect 0 0 1 0;
#X connect 0 0 2 0;
#X connect 1 8 10 0;
#X connect 1 11 18 0;
#X connect 2 0 3 0;
#X connect 3 0 7 0;
#X connect 4 0 8 0;
#X connect 5 0 6 0;
#X connect 7 0 5 0;
#X connect 7 1 4 0;
#X connect 8 0 9 0;
#X connect 11 0 8 16;
#X connect 11 0 8 1;
#X connect 11 0 8 2;
#X connect 11 0 8 3;
#X connect 11 0 8 4;
#X connect 11 0 8 5;
#X connect 11 0 8 6;
#X connect 11 0 8 7;
#X connect 11 0 8 8;
#X connect 11 0 8 9;
#X connect 11 0 8 10;
#X connect 11 0 8 11;
#X connect 11 0 8 12;
#X connect 11 0 8 13;
#X connect 11 0 8 14;
#X connect 11 0 8 15;
#X connect 12 0 11 0;
#X connect 13 0 14 0;
#X connect 14 0 12 0;
#X connect 15 0 12 0;
#X connect 15 0 16 0;
#X connect 18 0 19 0;
#X restore 588 145 pd EXy;
#X obj 146 80 route 0 1 2 3 4 5 6 7 8 9 A B C D E F G H K L P T X Z
, f 127;
#X text 637 35 [TEMP] Until Default Vol as added as full attribute
ofwavetablesynth.pd \, then replace with inlet;
#N canvas 1188 627 312 154 fx-to-int 0;
#X msg 19 72 16;
#X msg 49 72 17;
#X obj 19 19 inlet;
#X obj 19 117 outlet;
#X obj 19 43 route G H K L P T X Z, f 44;
#X msg 79 72 18;
#X msg 109 72 19;
#X msg 139 72 20;
#X msg 169 72 21;
#X msg 199 72 22;
#X msg 229 72 23;
#X connect 0 0 3 0;
#X connect 1 0 3 0;
#X connect 2 0 4 0;
#X connect 4 0 0 0;
#X connect 4 1 1 0;
#X connect 4 2 5 0;
#X connect 4 3 6 0;
#X connect 4 4 7 0;
#X connect 4 5 8 0;
#X connect 4 6 9 0;
#X connect 4 7 10 0;
#X connect 4 8 3 0;
#X connect 5 0 3 0;
#X connect 6 0 3 0;
#X connect 7 0 3 0;
#X connect 8 0 3 0;
#X connect 9 0 3 0;
#X connect 10 0 3 0;
#X restore 36 150 pd fx-to-int;
#X obj 115 282 switch 24, f 94;
#X obj 55 175 s \$0-FX-num;
#X obj 252 116 r \$0-FX-num;
#X text 747 225 NOTE: Sometimestriggers previous notebefore change.
Need torevise bang order.;
#N canvas 30 199 978 614 1xx-2xx 0;
#X obj 71 554 outlet;
#X obj 71 442 mtof;
#X obj 346 16 inlet;
#X obj 346 44 list split 1;
#N canvas 575 99 441 159 hex-to-int 0;
#X obj 17 14 inlet;
#X obj 17 69 route A B C D E F, f 33;
#X msg 17 94 10;
#X msg 47 94 11;
#X msg 77 94 12;
#X msg 107 94 13;
#X msg 137 94 14;
#X msg 167 94 15;
#X obj 17 129 outlet;
#X text 224 68 Convert A B C D E F to numbers \,  normal numbers just pass through
, f 34;
#X obj 17 39 list trim;
#X connect 0 0 10 0;
#X connect 1 0 2 0;
#X connect 1 1 3 0;
#X connect 1 2 4 0;
#X connect 1 3 5 0;
#X connect 1 4 6 0;
#X connect 1 5 7 0;
#X connect 1 6 8 0;
#X connect 2 0 8 0;
#X connect 3 0 8 0;
#X connect 4 0 8 0;
#X connect 5 0 8 0;
#X connect 6 0 8 0;
#X connect 7 0 8 0;
#X connect 10 0 1 0;
#X restore 346 66 pd hex-to-int;
#N canvas 575 99 441 159 hex-to-int 0;
#X obj 17 14 inlet;
#X obj 17 69 route A B C D E F, f 33;
#X msg 17 94 10;
#X msg 47 94 11;
#X msg 77 94 12;
#X msg 107 94 13;
#X msg 137 94 14;
#X msg 167 94 15;
#X obj 17 129 outlet;
#X text 224 68 Convert A B C D E F to numbers \,  normal numbers just pass through
, f 34;
#X obj 17 39 list trim;
#X connect 0 0 10 0;
#X connect 1 0 2 0;
#X connect 1 1 3 0;
#X connect 1 2 4 0;
#X connect 1 3 5 0;
#X connect 1 4 6 0;
#X connect 1 5 7 0;
#X connect 1 6 8 0;
#X connect 2 0 8 0;
#X connect 3 0 8 0;
#X connect 4 0 8 0;
#X connect 5 0 8 0;
#X connect 6 0 8 0;
#X connect 7 0 8 0;
#X connect 10 0 1 0;
#X restore 436 66 pd hex-to-int;
#X floatatom 71 465 16 0 0 0 - - - 0 0, f 16;
#X obj 71 16 r \$0-note;
#X floatatom 346 87 5 0 0 0 - - - 0 0, f 5;
#X floatatom 436 87 5 0 0 0 - - - 0 0, f 5;
#X obj 79 131 r \$12;
#X obj 346 111 * 16;
#X obj 346 136 +;
#X floatatom 346 161 5 0 0 0 - - - 0 0, f 5;
#X obj 459 248 /;
#X floatatom 346 383 7 0 0 0 - - - 0 0, f 7;
#X obj 456 195 + 1;
#X text 397 381 Ticks per semitone change;
#X msg 504 222 32;
#X obj 346 436 /;
#X msg 346 407 1;
#X floatatom 346 461 5 0 0 0 - - - 0 0, f 5;
#X obj 346 215 == 0;
#X obj 346 354 switch;
#X obj 346 240 + 1;
#X floatatom 71 282 5 0 0 0 - - - 0 0, f 5;
#X floatatom 346 304 5 0 0 0 - - - 0 0, f 5;
#X floatatom 459 304 5 0 0 0 - - - 0 0, f 5;
#X msg 459 273 set \$1;
#X msg 346 273 set \$1;
#X floatatom 512 304 5 0 0 0 - - - 0 0, f 5;
#X msg 512 272 set \$1;
#X obj 399 273 t b b;
#X obj 72 319 +;
#X floatatom 71 392 5 0 0 0 - - - 0 0, f 5;
#X msg 5 312 set \$1;
#X text 79 114 Tick!;
#X obj 71 41 t f b;
#X msg 107 246 0;
#X floatatom 230 142 5 0 0 0 - - - 0 0, f 5;
#X obj 230 166 + 1;
#X floatatom 230 191 5 0 0 0 - - - 0 0, f 5;
#X msg 273 166 set \$1;
#X floatatom 230 240 5 0 0 0 - - - 0 0, f 5;
#X obj 230 299 gate;
#X obj 230 215 moses 2;
#X msg 230 117 set -1;
#X obj 79 156 t b b b;
#X obj 71 499 line;
#X obj 193 448 r \$13;
#X floatatom 193 483 5 0 0 0 - - - 0 0, f 5;
#X floatatom 71 524 5 0 0 0 - - - 0 0, f 5;
#X obj 230 461 bng 15 250 50 0 empty empty empty 17 7 0 10 #fcfcfc
#000000 #000000;
#X obj 546 15 inlet;
#X obj 546 40 == 1;
#X obj 165 274 r \$0-1xx-active;
#X obj 546 96 s \$0-1xx-active;
#X obj 165 316 gate;
#X floatatom 509 128 5 0 0 0 - - - 0 0, f 5;
#X obj 509 152 bng 15 250 50 0 empty empty empty 17 7 0 10 #fcfcfc
#000000 #000000;
#X obj 646 40 == 2;
#X obj 646 96 s \$0-2xx-active;
#X text 397 461 Semitone change per tick;
#X obj 165 376 gate;
#X obj 165 344 r \$0-2xx-active;
#X obj 72 353 -;
#X msg 138 246 0;
#X obj 130 399 bng 15 250 50 0 empty empty empty 17 7 0 10 #fcfcfc
#000000 #000000;
#X floatatom 15 188 5 0 0 0 - - - 0 0, f 5;
#X obj 120 285 bng 15 250 50 0 empty empty empty 17 7 0 10 #fcfcfc
#000000 #000000;
#X obj 746 40 == 0;
#X obj 746 96 s \$0-0xy-active;
#X obj 16 93 r \$0-0xy-active;
#X obj 16 142 bng 15 250 50 0 empty empty empty 17 7 0 10 #fcfcfc #000000
#000000;
#X obj 746 65 sel 1;
#X obj 856 40 != 1 && != 2;
#X obj 856 65 sel 1;
#X obj 546 120 == 1 || == 2;
#X obj 856 90 s \$0-1xx-2xx-stop;
#X obj 546 145 s \$0-1xx-2xx-on;
#X obj 106 212 r \$0-1xx-2xx-stop;
#X obj 191 142 gate;
#X obj 127 114 r \$0-1xx-2xx-on;
#X connect 1 0 6 0;
#X connect 2 0 3 0;
#X connect 3 0 4 0;
#X connect 3 1 5 0;
#X connect 4 0 8 0;
#X connect 5 0 9 0;
#X connect 6 0 48 0;
#X connect 7 0 37 0;
#X connect 8 0 11 0;
#X connect 9 0 12 1;
#X connect 10 0 47 0;
#X connect 11 0 12 0;
#X connect 12 0 13 0;
#X connect 13 0 31 0;
#X connect 13 0 16 0;
#X connect 13 0 22 0;
#X connect 13 0 32 0;
#X connect 14 0 28 0;
#X connect 15 0 19 1;
#X connect 15 0 20 0;
#X connect 16 0 14 1;
#X connect 16 0 18 0;
#X connect 18 0 14 0;
#X connect 19 0 21 0;
#X connect 20 0 19 0;
#X connect 21 0 44 1;
#X connect 22 0 24 0;
#X connect 23 0 15 0;
#X connect 24 0 29 0;
#X connect 25 0 33 0;
#X connect 26 0 23 0;
#X connect 27 0 23 1;
#X connect 28 0 27 0;
#X connect 29 0 26 0;
#X connect 30 0 23 2;
#X connect 31 0 30 0;
#X connect 32 0 27 0;
#X connect 32 0 30 0;
#X connect 32 1 26 0;
#X connect 33 0 65 0;
#X connect 34 0 35 0;
#X connect 34 0 1 0;
#X connect 35 0 25 0;
#X connect 37 0 25 0;
#X connect 37 0 68 0;
#X connect 37 1 38 0;
#X connect 37 1 46 0;
#X connect 37 1 66 0;
#X connect 38 0 33 1;
#X connect 38 0 69 0;
#X connect 39 0 40 0;
#X connect 40 0 41 0;
#X connect 41 0 42 0;
#X connect 41 0 45 0;
#X connect 42 0 39 0;
#X connect 43 0 44 0;
#X connect 44 0 52 0;
#X connect 44 0 57 1;
#X connect 44 0 63 1;
#X connect 45 0 43 0;
#X connect 46 0 39 0;
#X connect 47 0 25 0;
#X connect 47 1 21 0;
#X connect 47 2 81 1;
#X connect 48 0 51 0;
#X connect 49 0 50 0;
#X connect 50 0 48 1;
#X connect 51 0 0 0;
#X connect 52 0 50 0;
#X connect 53 0 54 0;
#X connect 53 0 60 0;
#X connect 53 0 58 0;
#X connect 53 0 70 0;
#X connect 53 0 75 0;
#X connect 53 0 77 0;
#X connect 54 0 56 0;
#X connect 55 0 57 0;
#X connect 57 0 33 1;
#X connect 57 0 66 0;
#X connect 58 0 59 0;
#X connect 60 0 61 0;
#X connect 63 0 65 1;
#X connect 63 0 67 0;
#X connect 63 0 38 0;
#X connect 64 0 63 0;
#X connect 65 0 34 0;
#X connect 66 0 65 1;
#X connect 68 0 25 0;
#X connect 70 0 74 0;
#X connect 72 0 73 0;
#X connect 73 0 68 0;
#X connect 74 0 71 0;
#X connect 75 0 76 0;
#X connect 76 0 78 0;
#X connect 77 0 79 0;
#X connect 80 0 38 0;
#X connect 80 0 66 0;
#X connect 81 0 39 0;
#X connect 82 0 81 0;
#X restore 195 145 pd 1xx-2xx;
#N canvas 608 443 197 300 Fxx 0;
#X obj 5 5 inlet;
#X obj 5 35 list split 1;
#N canvas 575 99 441 159 hex-to-int 0;
#X obj 17 14 inlet;
#X obj 17 69 route A B C D E F, f 33;
#X msg 17 94 10;
#X msg 47 94 11;
#X msg 77 94 12;
#X msg 107 94 13;
#X msg 137 94 14;
#X msg 167 94 15;
#X obj 17 129 outlet;
#X text 224 68 Convert A B C D E F to numbers \,  normal numbers just pass through
, f 34;
#X obj 17 39 list trim;
#X connect 0 0 10 0;
#X connect 1 0 2 0;
#X connect 1 1 3 0;
#X connect 1 2 4 0;
#X connect 1 3 5 0;
#X connect 1 4 6 0;
#X connect 1 5 7 0;
#X connect 1 6 8 0;
#X connect 2 0 8 0;
#X connect 3 0 8 0;
#X connect 4 0 8 0;
#X connect 5 0 8 0;
#X connect 6 0 8 0;
#X connect 7 0 8 0;
#X connect 10 0 1 0;
#X restore 5 57 pd hex-to-int;
#N canvas 575 99 441 159 hex-to-int 0;
#X obj 17 14 inlet;
#X obj 17 69 route A B C D E F, f 33;
#X msg 17 94 10;
#X msg 47 94 11;
#X msg 77 94 12;
#X msg 107 94 13;
#X msg 137 94 14;
#X msg 167 94 15;
#X obj 17 129 outlet;
#X text 224 68 Convert A B C D E F to numbers \,  normal numbers just pass through
, f 34;
#X obj 17 39 list trim;
#X connect 0 0 10 0;
#X connect 1 0 2 0;
#X connect 1 1 3 0;
#X connect 1 2 4 0;
#X connect 1 3 5 0;
#X connect 1 4 6 0;
#X connect 1 5 7 0;
#X connect 1 6 8 0;
#X connect 2 0 8 0;
#X connect 3 0 8 0;
#X connect 4 0 8 0;
#X connect 5 0 8 0;
#X connect 6 0 8 0;
#X connect 7 0 8 0;
#X connect 10 0 1 0;
#X restore 95 57 pd hex-to-int;
#X floatatom 5 78 5 0 0 0 - - - 0 0, f 5;
#X floatatom 95 78 5 0 0 0 - - - 0 0, f 5;
#X obj 5 102 * 16;
#X obj 5 127 +;
#X floatatom 5 152 5 0 0 0 - - - 0 0, f 5;
#X obj 5 176 moses 32;
#X obj 5 201 s \$16;
#X obj 50 261 s \$15;
#X connect 0 0 1 0;
#X connect 1 0 2 0;
#X connect 1 1 3 0;
#X connect 2 0 4 0;
#X connect 3 0 5 0;
#X connect 4 0 6 0;
#X connect 5 0 7 1;
#X connect 6 0 7 0;
#X connect 7 0 8 0;
#X connect 8 0 9 0;
#X connect 9 0 10 0;
#X connect 9 1 11 0;
#X restore 632 144 pd Fxx;
#X connect 0 0 16 0;
#X connect 0 0 47 0;
#X connect 3 0 10 0;
#X connect 3 0 17 0;
#X connect 5 0 50 8;
#X connect 5 0 50 9;
#X connect 5 0 50 24;
#X connect 5 0 50 13;
#X connect 5 0 50 4;
#X connect 5 0 50 6;
#X connect 5 0 50 7;
#X connect 5 0 50 10;
#X connect 5 0 50 11;
#X connect 5 0 50 12;
#X connect 5 0 50 14;
#X connect 5 0 50 16;
#X connect 5 0 50 17;
#X connect 5 0 50 18;
#X connect 5 0 50 19;
#X connect 5 0 50 20;
#X connect 5 0 50 21;
#X connect 5 0 50 22;
#X connect 5 0 50 23;
#X connect 6 0 1 0;
#X connect 7 0 49 0;
#X connect 8 0 20 0;
#X connect 9 0 5 0;
#X connect 11 0 50 0;
#X connect 12 0 13 0;
#X connect 13 0 9 0;
#X connect 16 0 7 0;
#X connect 17 0 18 0;
#X connect 19 0 9 0;
#X connect 19 0 30 0;
#X connect 20 1 11 0;
#X connect 21 0 4 0;
#X connect 21 0 50 1;
#X connect 25 0 26 0;
#X connect 25 0 50 5;
#X connect 27 0 29 0;
#X connect 27 0 28 0;
#X connect 33 0 32 0;
#X connect 33 0 31 0;
#X connect 36 0 34 0;
#X connect 36 0 38 2;
#X connect 36 0 35 0;
#X connect 38 0 37 0;
#X connect 38 0 35 0;
#X connect 39 0 33 1;
#X connect 39 0 38 3;
#X connect 39 0 36 1;
#X connect 40 0 38 1;
#X connect 41 0 43 0;
#X connect 43 0 40 0;
#X connect 46 0 50 15;
#X connect 46 1 35 0;
#X connect 47 0 21 0;
#X connect 47 1 54 0;
#X connect 47 2 54 0;
#X connect 47 4 25 0;
#X connect 47 7 27 0;
#X connect 47 8 33 0;
#X connect 47 10 38 0;
#X connect 47 12 36 0;
#X connect 47 14 46 0;
#X connect 47 15 55 0;
#X connect 49 0 8 0;
#X connect 49 0 51 0;
#X connect 50 0 6 0;
#X connect 52 0 54 1;
#X connect 52 0 25 1;
#X connect 52 0 27 1;
#X connect 54 0 22 0;
#X connect 54 0 50 2;
#X connect 54 0 50 3;
#X restore 298 50 pd tracker-fx;
#X floatatom 508 51 5 0 0 0 - - - 0 0, f 5;
#X text 508 35 Debug Note Duration;
#X obj 483 12 r \$0-noteretrig;
#X msg 431 197 0.1;
#X obj 369 222 +;
#X msg 401 197 0;
#X obj 468 197 loadbang;
#X obj 401 222 *;
#X obj 473 217 bng 15 250 50 0 empty empty empty 17 7 0 10 #fcfcfc
#000000 #000000;
#X floatatom 552 241 5 0 0 0 - - - 0 0, f 5;
#X floatatom 565 217 5 0 0 0 - - - 0 0, f 5;
#X obj 298 314 pan~;
#X obj 298 261 *~ 1;
#X text 328 261 Global Volume;
#X text 639 16 ENVELOPE SYSTEM NEEDS TO BE UPDATEDTO ALLOW FOR A SUSTAIN
POINT TO BE PICKED (Future Version);
#X obj 373 27 r \$11;
#X obj 298 211 *~ 1;
#X obj 298 236 *~ 1;
#X msg 178 169 Z 0 0;
#X text 1004 50 \$1 - instr note send\$2 - write to wavetable receive name\$3 - write to envelope receive name\$4 - note duration recieve\$5 - wavetable server channel\$6 - envelope server channel\$7 - note duration server channel\$8 - note channel \$9 - %instr#%
\, instrument specific server channel\$10 - \$0-toserver\$11 - fx send\$12 - \$0-tick\$13
- BPM (ms per tick)\$14 - Speed (ticks per row)\$15 - BPM change
(tickms-change)\$16 - Speed change (tprspeed-change)\$17 - instr
fx server channel (%instrXfx%)$xx - note sustain point channel? (Future
version);
#X obj 134 292 list prepend send;
#X obj 134 317 list trim;
#X obj 134 342 s \$10;
#X obj 197 317 tosymbol;
#X symbolatom 197 362 46 0 0 0 - - - 0 0, f 46;
#X obj 134 242 list prepend \$9;
#X obj 134 267 list prepend %instruments%;
#X obj 134 217 list prepend \$17;
#X connect 7 0 89 0;
#X connect 11 0 84 0;
#X connect 13 0 36 0;
#X connect 14 0 13 0;
#X connect 15 0 27 0;
#X connect 16 0 21 1;
#X connect 17 0 21 0;
#X connect 17 1 16 0;
#X connect 18 0 45 1;
#X connect 19 0 20 0;
#X connect 20 0 17 0;
#X connect 21 0 15 0;
#X connect 21 0 91 0;
#X connect 24 0 34 0;
#X connect 25 0 26 0;
#X connect 25 0 27 1;
#X connect 27 0 61 0;
#X connect 28 0 29 0;
#X connect 30 0 31 0;
#X connect 31 0 28 0;
#X connect 32 0 30 0;
#X connect 33 0 57 0;
#X connect 34 0 35 0;
#X connect 35 0 33 0;
#X connect 36 0 56 0;
#X connect 37 0 38 0;
#X connect 38 0 36 1;
#X connect 40 0 41 0;
#X connect 41 0 38 0;
#X connect 45 0 19 0;
#X connect 46 0 67 0;
#X connect 47 0 45 0;
#X connect 47 0 46 0;
#X connect 52 0 53 0;
#X connect 52 0 63 0;
#X connect 53 0 60 0;
#X connect 55 0 24 0;
#X connect 55 0 72 0;
#X connect 56 0 7 0;
#X connect 57 0 7 1;
#X connect 58 0 34 1;
#X connect 58 0 73 0;
#X connect 59 0 65 0;
#X connect 62 0 59 0;
#X connect 63 0 64 0;
#X connect 65 0 66 0;
#X connect 66 0 52 0;
#X connect 71 0 25 0;
#X connect 72 0 14 0;
#X connect 72 1 80 0;
#X connect 72 2 84 1;
#X connect 72 3 90 1;
#X connect 73 0 34 1;
#X connect 75 0 24 0;
#X connect 76 0 77 1;
#X connect 76 0 80 1;
#X connect 77 0 82 0;
#X connect 77 0 89 1;
#X connect 78 0 80 0;
#X connect 79 0 78 0;
#X connect 79 0 76 0;
#X connect 80 0 77 0;
#X connect 80 0 83 0;
#X connect 81 0 76 0;
#X connect 81 0 78 0;
#X connect 84 0 12 0;
#X connect 84 1 12 1;
#X connect 85 0 11 0;
#X connect 88 0 72 1;
#X connect 89 0 90 0;
#X connect 90 0 85 0;
#X connect 91 0 100 0;
#X connect 93 0 94 0;
#X connect 93 0 96 0;
#X connect 94 0 95 0;
#X connect 96 0 97 0;
#X connect 98 0 99 0;
#X connect 99 0 93 0;
#X connect 100 0 98 0;
#X coords 0 -1 1 1 170 283 2 825 45;
