#N canvas 69 215 1411 568 10;
#X obj 830 307 cnv 15 8 8 empty empty Typing\ Notes 43 6 0 10 #ffffff
#00ffff 0;
#X obj 830 287 cnv 15 8 8 empty empty Confirm\ Changes 43 6 0 10 #ffffff
#00ffff 0;
#X obj 830 266 cnv 15 8 8 empty empty Octave 43 6 0 10 #ffffff #00ffff
0;
#X obj 830 246 cnv 15 8 8 empty empty Note\ Duration\ (ms) 43 6 0 10
#ffffff #00ffff 0;
#X obj 830 147 ggee/image ./ui-images/starry-background.png 0 0 158
89 empty empty empty 158 89 0 0 10 #000000 0 -8 544 145.5 0 1 1;
#X obj 830 51 ggee/image ./ui-images/starry-background.png 0 0 158
89 empty empty empty 158 89 0 0 10 #000000 0 -8 544 145.5 0 1 1;
#N canvas 0 0 450 300 (subpatch) 0;
#X array \$0-instr-wt 64 float 16 black #ffc584;
#X coords 0 1 63 -1 158 89 1;
#X restore 644 51 graph;
#X obj 298 183 *~;
#X text 551 116 envelope;
#X text 551 129 generator;
#X text 342 343 audio output;
#X obj 298 288 hip~ 5;
#X obj 298 341 dac~;
#X obj 298 92 phasor~;
#X floatatom 298 71 5 0 0 0 - - - 0 0, f 5;
#X floatatom 12 167 5 0 0 0 - - - 0 0, f 5;
#X msg 39 118 1;
#X obj 12 96 t f b;
#X obj 57 4 key;
#X floatatom 12 55 5 0 0 0 - - - 0 0, f 5;
#X obj 12 75 text search midi-shortcuts 0;
#X obj 12 141 text get midi-shortcuts 1;
#X text 86 4 Convert key press to midi note;
#N canvas 0 0 450 300 (subpatch) 0;
#X array \$0-instr-env 256 float 16 black #ffc584;
#X coords 0 1 255 0 158 89 1;
#X restore 644 147 graph;
#X obj 483 47 bng 15 250 50 0 empty empty empty 17 7 0 10 #fcfcfc #000000
#000000;
#X obj 93 190 * 12;
#X floatatom 93 215 5 0 0 0 - - - 0 0, f 5;
#X obj 12 191 +;
#X obj 13 334 snapshot~;
#X floatatom 13 357 15 0 0 0 - - - 0 0, f 15;
#X obj 13 283 metro 100;
#X obj 13 308 bng 15 250 50 0 empty empty empty 17 7 0 10 #fcfcfc #000000
#000000;
#X obj 13 264 tgl 15 0 empty empty empty 17 7 0 10 #fcfcfc #000000
#000000 0 1;
#X obj 483 136 line~;
#X obj 483 94 f;
#X msg 483 115 0 \, 256 \$1;
#X obj 298 133 *~ 64;
#X obj 355 92 r wt-size;
#X floatatom 355 117 5 0 0 0 - - - 0 0, f 5;
#X floatatom 830 246 5 0 0 0 - #4 #0-note-dur 0 0, f 5;
#X obj 417 92 loadbang;
#X msg 417 117 64;
#X text 342 289 HPF to get rid of any low artifacts;
#X floatatom 830 266 5 -5 5 0 - r-null #0-octave 0 0, f 5;
#X text 12 378 Shows number output every 100ms \; activate toggle
for debugging;
#X obj 12 33 gate 1 0;
#X obj 75 33 tgl 15 0 empty empty empty 17 7 0 10 #fcfcfc #000000 #000000
1 1;
#X obj 12 5 inlet;
#X obj 830 287 bng 15 250 50 0 \$0-instrupdate r-null empty 17 7 0
10 #fcfcfc #000000 #000000;
#N canvas 0 0 450 300 (subpatch) 0;
#X array \$0-instrclient-wt 64 float 16 black #ffc584;
#X coords 0 1 63 -1 158 89 1;
#X restore 830 51 graph;
#N canvas 0 0 450 300 (subpatch) 0;
#X array \$0-instrclient-env 256 float 16 black #ffc584;
#X coords 0 1 255 0 158 89 1;
#X restore 830 147 graph;
#N canvas 44 866 1010 450 instupdate 0;
#X obj 55 146 until;
#X obj 55 173 f;
#X obj 95 173 + 1;
#X msg 110 146 0;
#X text 79 114 table size;
#X obj 55 114 64;
#X obj 38 66 bng 15 250 50 0 empty empty empty 17 7 0 10 #fcfcfc #000000
#000000;
#X obj 149 61 loadbang;
#X msg 149 86 64;
#X obj 10 343 list prepend send;
#X obj 80 368 tosymbol;
#X symbolatom 80 393 45 0 0 1 - - - 8.58927e+08 0, f 45;
#X obj 38 85 t b b b b;
#X text 152 268 sends to specific server channel:;
#X text 152 281 instrument# wavetable/env;
#X obj 10 245 pack f f;
#X obj 10 368 list trim;
#X obj 55 221 - 1;
#X text 38 10 read out table to list;
#X obj 425 146 until;
#X obj 425 173 f;
#X obj 465 173 + 1;
#X msg 480 146 0;
#X text 449 114 table size;
#X obj 408 66 bng 15 250 50 0 empty empty empty 17 7 0 10 #fcfcfc #000000
#000000;
#X obj 519 61 loadbang;
#X obj 380 343 list prepend send;
#X obj 450 368 tosymbol;
#X symbolatom 450 393 45 0 0 1 - - - 8.58927e+08 0, f 45;
#X obj 408 85 t b b b b;
#X text 525 268 sends to specific server channel:;
#X text 525 281 instrument# wavetable/env;
#X obj 380 245 pack f f;
#X obj 380 368 list trim;
#X obj 425 221 - 1;
#X text 408 10 read out table to list;
#X text 439 246 Pair value with index;
#X text 69 246 Pair value with index;
#X text 212 194 Read from wavetable;
#X text 588 194 Read from envelope table;
#X obj 783 183 list prepend send;
#X obj 783 208 list trim;
#X obj 38 38 r \$0-instrupdate;
#X obj 408 38 r \$0-instrupdate;
#X obj 55 194 tabread \$0-instrclient-wt;
#X obj 425 194 tabread \$0-instrclient-env;
#X obj 237 59 tabwrite \$0-instr-wt;
#X obj 607 59 tabwrite \$0-instr-env;
#X obj 237 38 r \$2;
#X obj 607 38 r \$3;
#X obj 783 38 r \$0-note-dur;
#X obj 237 79 tabwrite \$0-instrclient-wt;
#X obj 607 79 tabwrite \$0-instrclient-env;
#X obj 10 268 list prepend \$5;
#X obj 380 268 list prepend \$6;
#X obj 783 114 list prepend \$7;
#X obj 380 393 s \$10;
#X obj 10 393 s \$10;
#X obj 783 233 s \$10;
#X obj 10 293 list prepend \$9;
#X obj 10 318 list prepend %instruments%;
#X obj 380 318 list prepend %instruments%;
#X obj 380 293 list prepend \$9;
#X obj 425 114 256;
#X obj 848 209 tosymbol;
#X symbolatom 848 234 45 0 0 1 - - - 8.58927e+08 0, f 45;
#X obj 783 159 list prepend %instruments%;
#X obj 783 136 list prepend \$9;
#X msg 783 63 set \$1;
#X floatatom 783 88 5 0 0 0 - - - 0 0, f 5;
#X obj 868 63 bng 15 250 50 0 empty empty empty 17 7 0 10 #fcfcfc #000000
#000000;
#X obj 868 38 r \$0-instrupdate;
#X msg 519 86 256;
#X connect 0 0 1 0;
#X connect 1 0 2 0;
#X connect 1 0 44 0;
#X connect 2 0 1 1;
#X connect 2 0 17 0;
#X connect 3 0 1 1;
#X connect 5 0 0 0;
#X connect 6 0 12 0;
#X connect 7 0 8 0;
#X connect 8 0 5 1;
#X connect 9 0 10 0;
#X connect 9 0 16 0;
#X connect 10 0 11 0;
#X connect 12 1 5 0;
#X connect 12 2 3 0;
#X connect 15 0 53 0;
#X connect 16 0 57 0;
#X connect 17 0 15 1;
#X connect 19 0 20 0;
#X connect 20 0 21 0;
#X connect 20 0 45 0;
#X connect 21 0 20 1;
#X connect 21 0 34 0;
#X connect 22 0 20 1;
#X connect 24 0 29 0;
#X connect 25 0 72 0;
#X connect 26 0 27 0;
#X connect 26 0 33 0;
#X connect 27 0 28 0;
#X connect 29 1 63 0;
#X connect 29 2 22 0;
#X connect 32 0 54 0;
#X connect 33 0 56 0;
#X connect 34 0 32 1;
#X connect 40 0 41 0;
#X connect 40 0 64 0;
#X connect 41 0 58 0;
#X connect 42 0 6 0;
#X connect 43 0 24 0;
#X connect 44 0 15 0;
#X connect 45 0 32 0;
#X connect 48 0 46 0;
#X connect 48 0 51 0;
#X connect 49 0 47 0;
#X connect 49 0 52 0;
#X connect 50 0 68 0;
#X connect 53 0 59 0;
#X connect 54 0 62 0;
#X connect 55 0 67 0;
#X connect 59 0 60 0;
#X connect 60 0 9 0;
#X connect 61 0 26 0;
#X connect 62 0 61 0;
#X connect 63 0 19 0;
#X connect 64 0 65 0;
#X connect 66 0 40 0;
#X connect 67 0 66 0;
#X connect 68 0 69 0;
#X connect 69 0 55 0;
#X connect 70 0 69 0;
#X connect 71 0 70 0;
#X connect 72 0 63 1;
#X restore 644 242 pd instupdate;
#X obj 644 386 list prepend send;
#X obj 644 411 list trim;
#X text 750 336 Send notes to server;
#X obj 298 30 r \$1;
#X obj 298 157 tabread4~ \$0-instr-wt;
#X obj 483 166 tabread4~ \$0-instr-env;
#X obj 498 72 r \$0-note-dur;
#X obj 644 311 list prepend \$8;
#X obj 644 436 s \$10;
#X obj 12 235 s \$0-notetoserver;
#X obj 644 286 r \$0-notetoserver;
#X obj 707 411 tosymbol;
#X symbolatom 707 436 46 0 0 0 - - - 0 0, f 46;
#X obj 644 336 list prepend \$9;
#X obj 644 361 list prepend %instruments%;
#X obj 75 53 s \$0-midion;
#X obj 830 307 tgl 15 0 s-null \$0-midion empty 17 7 0 10 #fcfcfc #000000
#000000 1 1;
#X obj 827 302 ggee/image ./ui-images/transparent.png 0 1 25 25 empty
empty empty 25 25 1 0 10 #000000 0 -8 12.5 12.5 0 0 1;
#X obj 273 6 cnv 15 8 8 empty empty Canvas 24 6 0 10 #ffffff #00ffff
0;
#X obj 93 167 r \$0-octave;
#N canvas 102 842 1050 431 tracker-fx 1;
#X obj 146 15 inlet;
#X obj 115 335 outlet;
#X obj 146 80 route 0 1 2 3 4 5 6 7 8 9 A B C D E F X Z, f 95;
#X text 185 66 Route FX Messages - Z is no FX, f 35;
#X obj 36 15 inlet;
#X obj 156 170 bng 15 250 50 0 empty empty empty 17 7 0 10 #fcfcfc
#000000 #000000;
#X obj 676 252 mtof;
#X obj 115 282 switch 18, f 94;
#X floatatom 115 307 5 0 0 0 - - - 0 0, f 5;
#N canvas 575 99 441 159 hex-to-int 0;
#X obj 17 14 inlet;
#X obj 17 69 route A B C D E F, f 33;
#X msg 17 94 10;
#X msg 47 94 11;
#X msg 77 94 12;
#X msg 107 94 13;
#X msg 137 94 14;
#X msg 167 94 15;
#X obj 17 129 outlet;
#X text 224 68 Convert A B C D E F to numbers \,  normal numbers just pass through
, f 34;
#X obj 17 39 list trim;
#X connect 0 0 10 0;
#X connect 1 0 2 0;
#X connect 1 1 3 0;
#X connect 1 2 4 0;
#X connect 1 3 5 0;
#X connect 1 4 6 0;
#X connect 1 5 7 0;
#X connect 1 6 8 0;
#X connect 2 0 8 0;
#X connect 3 0 8 0;
#X connect 4 0 8 0;
#X connect 5 0 8 0;
#X connect 6 0 8 0;
#X connect 7 0 8 0;
#X connect 10 0 1 0;
#X restore 36 107 pd hex-to-int;
#X obj 36 136 route X Z;
#X msg 36 165 16;
#X msg 66 165 17;
#X obj 36 195 + 1;
#X floatatom 676 226 5 0 0 0 - - - 0 0, f 5;
#X obj 36 40 s \$0-note;
#X floatatom 115 250 5 0 0 0 - - - 0 0, f 5;
#X obj 676 176 r \$0-note;
#X msg 676 201 set \$1;
#X obj 187 30 r \$12;
#X text 188 13 Tick!;
#X obj 36 80 list split 1;
#X obj 36 259 bng 15 250 50 0 empty empty empty 17 7 0 10 #fcfcfc #000000
#000000;
#X msg 96 165 1;
#X obj 36 282 s \$0-trnote;
#X obj 723 201 r \$0-trnote;
#X obj 36 215 t b f;
#N canvas 85 78 537 547 1xx 0;
#X obj 67 504 outlet;
#X obj 67 380 mtof;
#X obj 292 16 inlet;
#X obj 292 44 list split 1;
#N canvas 575 99 441 159 hex-to-int 0;
#X obj 17 14 inlet;
#X obj 17 69 route A B C D E F, f 33;
#X msg 17 94 10;
#X msg 47 94 11;
#X msg 77 94 12;
#X msg 107 94 13;
#X msg 137 94 14;
#X msg 167 94 15;
#X obj 17 129 outlet;
#X text 224 68 Convert A B C D E F to numbers \,  normal numbers just pass through
, f 34;
#X obj 17 39 list trim;
#X connect 0 0 10 0;
#X connect 1 0 2 0;
#X connect 1 1 3 0;
#X connect 1 2 4 0;
#X connect 1 3 5 0;
#X connect 1 4 6 0;
#X connect 1 5 7 0;
#X connect 1 6 8 0;
#X connect 2 0 8 0;
#X connect 3 0 8 0;
#X connect 4 0 8 0;
#X connect 5 0 8 0;
#X connect 6 0 8 0;
#X connect 7 0 8 0;
#X connect 10 0 1 0;
#X restore 292 66 pd hex-to-int;
#N canvas 575 99 441 159 hex-to-int 0;
#X obj 17 14 inlet;
#X obj 17 69 route A B C D E F, f 33;
#X msg 17 94 10;
#X msg 47 94 11;
#X msg 77 94 12;
#X msg 107 94 13;
#X msg 137 94 14;
#X msg 167 94 15;
#X obj 17 129 outlet;
#X text 224 68 Convert A B C D E F to numbers \,  normal numbers just pass through
, f 34;
#X obj 17 39 list trim;
#X connect 0 0 10 0;
#X connect 1 0 2 0;
#X connect 1 1 3 0;
#X connect 1 2 4 0;
#X connect 1 3 5 0;
#X connect 1 4 6 0;
#X connect 1 5 7 0;
#X connect 1 6 8 0;
#X connect 2 0 8 0;
#X connect 3 0 8 0;
#X connect 4 0 8 0;
#X connect 5 0 8 0;
#X connect 6 0 8 0;
#X connect 7 0 8 0;
#X connect 10 0 1 0;
#X restore 382 66 pd hex-to-int;
#X floatatom 67 410 16 0 0 0 - - - 0 0, f 16;
#X obj 67 16 r \$0-note;
#X floatatom 292 87 5 0 0 0 - - - 0 0, f 5;
#X floatatom 382 87 5 0 0 0 - - - 0 0, f 5;
#X obj 75 131 r \$12;
#X obj 292 111 * 16;
#X obj 292 136 +;
#X floatatom 292 161 5 0 0 0 - - - 0 0, f 5;
#X obj 405 248 /;
#X floatatom 292 383 7 0 0 0 - - - 0 0, f 7;
#X obj 402 195 + 1;
#X text 343 381 Ticks per semitone change;
#X msg 450 222 32;
#X obj 292 436 /;
#X msg 292 407 1;
#X floatatom 292 461 5 0 0 0 - - - 0 0, f 5;
#X text 343 461 Semitone increase per tick;
#X obj 292 215 == 0;
#X obj 292 354 switch;
#X obj 292 240 + 1;
#X floatatom 67 282 5 0 0 0 - - - 0 0, f 5;
#X floatatom 292 304 5 0 0 0 - - - 0 0, f 5;
#X floatatom 405 304 5 0 0 0 - - - 0 0, f 5;
#X msg 405 273 set \$1;
#X msg 292 273 set \$1;
#X floatatom 458 304 5 0 0 0 - - - 0 0, f 5;
#X msg 458 272 set \$1;
#X obj 345 273 t b b;
#X obj 67 316 +;
#X floatatom 67 341 5 0 0 0 - - - 0 0, f 5;
#X msg 17 365 set \$1;
#X text 75 114 Tick!;
#X obj 67 41 t f b;
#X msg 107 280 0;
#X floatatom 136 142 5 0 0 0 - - - 0 0, f 5;
#X obj 136 166 + 1;
#X floatatom 136 191 5 0 0 0 - - - 0 0, f 5;
#X msg 189 129 set \$1;
#X floatatom 136 240 5 0 0 0 - - - 0 0, f 5;
#X obj 136 299 gate;
#X obj 136 215 moses 2;
#X msg 136 117 set -1;
#X obj 75 156 t b b b;
#X obj 67 449 line;
#X obj 149 435 r \$13;
#X floatatom 149 470 5 0 0 0 - - - 0 0, f 5;
#X floatatom 67 474 5 0 0 0 - - - 0 0, f 5;
#X obj 136 343 bng 15 250 50 0 empty empty empty 17 7 0 10 #fcfcfc
#000000 #000000;
#X connect 1 0 6 0;
#X connect 2 0 3 0;
#X connect 3 0 4 0;
#X connect 3 1 5 0;
#X connect 4 0 8 0;
#X connect 5 0 9 0;
#X connect 6 0 49 0;
#X connect 7 0 38 0;
#X connect 8 0 11 0;
#X connect 9 0 12 1;
#X connect 10 0 48 0;
#X connect 11 0 12 0;
#X connect 12 0 13 0;
#X connect 13 0 32 0;
#X connect 13 0 16 0;
#X connect 13 0 23 0;
#X connect 13 0 33 0;
#X connect 14 0 29 0;
#X connect 15 0 19 1;
#X connect 15 0 20 0;
#X connect 16 0 14 1;
#X connect 16 0 18 0;
#X connect 18 0 14 0;
#X connect 19 0 21 0;
#X connect 20 0 19 0;
#X connect 21 0 45 1;
#X connect 23 0 25 0;
#X connect 24 0 15 0;
#X connect 25 0 30 0;
#X connect 26 0 34 0;
#X connect 27 0 24 0;
#X connect 28 0 24 1;
#X connect 29 0 28 0;
#X connect 30 0 27 0;
#X connect 31 0 24 2;
#X connect 32 0 31 0;
#X connect 33 0 28 0;
#X connect 33 0 31 0;
#X connect 33 1 27 0;
#X connect 34 0 35 0;
#X connect 35 0 36 0;
#X connect 35 0 1 0;
#X connect 36 0 26 0;
#X connect 38 0 26 0;
#X connect 38 1 39 0;
#X connect 38 1 47 0;
#X connect 39 0 34 1;
#X connect 40 0 41 0;
#X connect 41 0 42 0;
#X connect 42 0 43 0;
#X connect 42 0 46 0;
#X connect 43 0 40 0;
#X connect 44 0 45 0;
#X connect 45 0 34 1;
#X connect 45 0 53 0;
#X connect 46 0 44 0;
#X connect 47 0 40 0;
#X connect 48 0 26 0;
#X connect 48 1 21 0;
#X connect 48 2 40 0;
#X connect 49 0 52 0;
#X connect 50 0 51 0;
#X connect 51 0 49 1;
#X connect 52 0 0 0;
#X connect 53 0 51 0;
#X restore 195 145 pd 1xx;
#N canvas 67 427 450 406 0xy 0;
#X obj 119 10 inlet;
#X obj 44 375 outlet;
#X obj 17 101 r \$12;
#X text 51 102 Tick recieve, f 13;
#X obj 164 38 list split 1;
#X obj 164 136 +;
#X obj 254 136 +;
#N canvas 575 99 441 159 hex-to-int 0;
#X obj 17 14 inlet;
#X obj 17 69 route A B C D E F, f 33;
#X msg 17 94 10;
#X msg 47 94 11;
#X msg 77 94 12;
#X msg 107 94 13;
#X msg 137 94 14;
#X msg 167 94 15;
#X obj 17 129 outlet;
#X text 224 68 Convert A B C D E F to numbers \,  normal numbers just pass through
, f 34;
#X obj 17 39 list trim;
#X connect 0 0 10 0;
#X connect 1 0 2 0;
#X connect 1 1 3 0;
#X connect 1 2 4 0;
#X connect 1 3 5 0;
#X connect 1 4 6 0;
#X connect 1 5 7 0;
#X connect 1 6 8 0;
#X connect 2 0 8 0;
#X connect 3 0 8 0;
#X connect 4 0 8 0;
#X connect 5 0 8 0;
#X connect 6 0 8 0;
#X connect 7 0 8 0;
#X connect 10 0 1 0;
#X restore 164 60 pd hex-to-int;
#N canvas 575 99 441 159 hex-to-int 0;
#X obj 17 14 inlet;
#X obj 17 69 route A B C D E F, f 33;
#X msg 17 94 10;
#X msg 47 94 11;
#X msg 77 94 12;
#X msg 107 94 13;
#X msg 137 94 14;
#X msg 167 94 15;
#X obj 17 129 outlet;
#X text 224 68 Convert A B C D E F to numbers \,  normal numbers just pass through
, f 34;
#X obj 17 39 list trim;
#X connect 0 0 10 0;
#X connect 1 0 2 0;
#X connect 1 1 3 0;
#X connect 1 2 4 0;
#X connect 1 3 5 0;
#X connect 1 4 6 0;
#X connect 1 5 7 0;
#X connect 1 6 8 0;
#X connect 2 0 8 0;
#X connect 3 0 8 0;
#X connect 4 0 8 0;
#X connect 5 0 8 0;
#X connect 6 0 8 0;
#X connect 7 0 8 0;
#X connect 10 0 1 0;
#X restore 254 60 pd hex-to-int;
#X floatatom 164 191 5 0 0 0 - - - 0 0, f 5;
#X floatatom 254 191 5 0 0 0 - - - 0 0, f 5;
#X obj 44 323 switch 3;
#X floatatom 190 357 5 0 0 0 - - - 0 0, f 5;
#X floatatom 59 191 5 0 0 0 - - - 0 0, f 5;
#X obj 17 75 bng 15 250 50 0 empty empty empty 17 7 0 10 #fcfcfc #000000
#000000;
#X text 37 75 Debug Bang, f 13;
#X floatatom 44 252 5 0 0 0 - - - 0 0, f 5;
#X obj 44 227 count 3;
#X floatatom 304 302 5 0 0 0 - - - 0 0, f 5;
#X obj 304 277 count 3;
#X obj 331 219 bng 15 250 50 0 empty empty empty 17 7 0 10 #fcfcfc
#000000 #000000;
#X obj 190 340 bng 15 250 50 0 empty empty empty 17 7 0 10 #fcfcfc
#000000 #000000;
#X obj 17 126 t b b;
#X obj 44 276 + 1;
#X msg 359 218 reset;
#X msg 94 210 reset;
#X obj 59 10 r \$0-note;
#X obj 44 348 mtof;
#X floatatom 190 375 5 0 0 0 - - - 0 0, f 5;
#X floatatom 164 108 5 0 0 0 - - - 0 0, f 5;
#X floatatom 254 108 5 0 0 0 - - - 0 0, f 5;
#X obj 59 35 t b f;
#X connect 0 0 4 0;
#X connect 2 0 22 0;
#X connect 4 0 7 0;
#X connect 4 1 8 0;
#X connect 5 0 9 0;
#X connect 6 0 10 0;
#X connect 7 0 29 0;
#X connect 8 0 30 0;
#X connect 9 0 11 2;
#X connect 10 0 11 3;
#X connect 11 0 12 0;
#X connect 11 0 21 0;
#X connect 11 0 27 0;
#X connect 13 0 11 1;
#X connect 14 0 22 0;
#X connect 16 0 23 0;
#X connect 17 0 16 0;
#X connect 19 0 18 0;
#X connect 20 0 19 0;
#X connect 22 0 13 0;
#X connect 22 0 10 0;
#X connect 22 0 9 0;
#X connect 22 1 17 0;
#X connect 23 0 11 0;
#X connect 24 0 19 0;
#X connect 25 0 17 0;
#X connect 26 0 13 0;
#X connect 26 0 25 0;
#X connect 26 0 31 0;
#X connect 27 0 28 0;
#X connect 27 0 1 0;
#X connect 29 0 5 0;
#X connect 30 0 6 0;
#X connect 31 0 29 0;
#X connect 31 0 30 0;
#X connect 31 1 6 1;
#X connect 31 1 5 1;
#X restore 146 145 pd 0xy;
#X obj 205 170 bng 15 250 50 0 empty empty empty 17 7 0 10 #fcfcfc
#000000 #000000;
#X obj 255 170 bng 15 250 50 0 empty empty empty 17 7 0 10 #fcfcfc
#000000 #000000;
#N canvas 170 361 537 547 2xx 0;
#X obj 67 504 outlet;
#X obj 67 380 mtof;
#X obj 292 16 inlet;
#X obj 292 44 list split 1;
#N canvas 575 99 441 159 hex-to-int 0;
#X obj 17 14 inlet;
#X obj 17 69 route A B C D E F, f 33;
#X msg 17 94 10;
#X msg 47 94 11;
#X msg 77 94 12;
#X msg 107 94 13;
#X msg 137 94 14;
#X msg 167 94 15;
#X obj 17 129 outlet;
#X text 224 68 Convert A B C D E F to numbers \,  normal numbers just pass through
, f 34;
#X obj 17 39 list trim;
#X connect 0 0 10 0;
#X connect 1 0 2 0;
#X connect 1 1 3 0;
#X connect 1 2 4 0;
#X connect 1 3 5 0;
#X connect 1 4 6 0;
#X connect 1 5 7 0;
#X connect 1 6 8 0;
#X connect 2 0 8 0;
#X connect 3 0 8 0;
#X connect 4 0 8 0;
#X connect 5 0 8 0;
#X connect 6 0 8 0;
#X connect 7 0 8 0;
#X connect 10 0 1 0;
#X restore 292 66 pd hex-to-int;
#N canvas 575 99 441 159 hex-to-int 0;
#X obj 17 14 inlet;
#X obj 17 69 route A B C D E F, f 33;
#X msg 17 94 10;
#X msg 47 94 11;
#X msg 77 94 12;
#X msg 107 94 13;
#X msg 137 94 14;
#X msg 167 94 15;
#X obj 17 129 outlet;
#X text 224 68 Convert A B C D E F to numbers \,  normal numbers just pass through
, f 34;
#X obj 17 39 list trim;
#X connect 0 0 10 0;
#X connect 1 0 2 0;
#X connect 1 1 3 0;
#X connect 1 2 4 0;
#X connect 1 3 5 0;
#X connect 1 4 6 0;
#X connect 1 5 7 0;
#X connect 1 6 8 0;
#X connect 2 0 8 0;
#X connect 3 0 8 0;
#X connect 4 0 8 0;
#X connect 5 0 8 0;
#X connect 6 0 8 0;
#X connect 7 0 8 0;
#X connect 10 0 1 0;
#X restore 382 66 pd hex-to-int;
#X floatatom 67 410 16 0 0 0 - - - 0 0, f 16;
#X obj 67 16 r \$0-note;
#X floatatom 292 87 5 0 0 0 - - - 0 0, f 5;
#X floatatom 382 87 5 0 0 0 - - - 0 0, f 5;
#X obj 75 131 r \$12;
#X obj 292 111 * 16;
#X obj 292 136 +;
#X floatatom 292 161 5 0 0 0 - - - 0 0, f 5;
#X obj 405 248 /;
#X floatatom 292 383 7 0 0 0 - - - 0 0, f 7;
#X obj 402 195 + 1;
#X text 343 381 Ticks per semitone change;
#X msg 450 222 32;
#X obj 292 436 /;
#X msg 292 407 1;
#X floatatom 292 461 5 0 0 0 - - - 0 0, f 5;
#X text 343 461 Semitone increase per tick;
#X obj 292 215 == 0;
#X obj 292 354 switch;
#X obj 292 240 + 1;
#X floatatom 67 282 5 0 0 0 - - - 0 0, f 5;
#X floatatom 292 304 5 0 0 0 - - - 0 0, f 5;
#X floatatom 405 304 5 0 0 0 - - - 0 0, f 5;
#X msg 405 273 set \$1;
#X msg 292 273 set \$1;
#X floatatom 458 304 5 0 0 0 - - - 0 0, f 5;
#X msg 458 272 set \$1;
#X obj 345 273 t b b;
#X floatatom 67 341 5 0 0 0 - - - 0 0, f 5;
#X msg 17 365 set \$1;
#X text 75 114 Tick!;
#X obj 67 41 t f b;
#X msg 107 280 0;
#X floatatom 136 142 5 0 0 0 - - - 0 0, f 5;
#X obj 136 166 + 1;
#X floatatom 136 191 5 0 0 0 - - - 0 0, f 5;
#X msg 189 129 set \$1;
#X floatatom 136 240 5 0 0 0 - - - 0 0, f 5;
#X obj 136 299 gate;
#X obj 136 215 moses 2;
#X msg 136 117 set -1;
#X obj 75 156 t b b b;
#X obj 67 449 line;
#X obj 149 435 r \$13;
#X floatatom 149 470 5 0 0 0 - - - 0 0, f 5;
#X floatatom 67 474 5 0 0 0 - - - 0 0, f 5;
#X obj 67 316 -;
#X connect 1 0 6 0;
#X connect 2 0 3 0;
#X connect 3 0 4 0;
#X connect 3 1 5 0;
#X connect 4 0 8 0;
#X connect 5 0 9 0;
#X connect 6 0 48 0;
#X connect 7 0 37 0;
#X connect 8 0 11 0;
#X connect 9 0 12 1;
#X connect 10 0 47 0;
#X connect 11 0 12 0;
#X connect 12 0 13 0;
#X connect 13 0 32 0;
#X connect 13 0 16 0;
#X connect 13 0 23 0;
#X connect 13 0 33 0;
#X connect 14 0 29 0;
#X connect 15 0 19 1;
#X connect 15 0 20 0;
#X connect 16 0 14 1;
#X connect 16 0 18 0;
#X connect 18 0 14 0;
#X connect 19 0 21 0;
#X connect 20 0 19 0;
#X connect 21 0 44 1;
#X connect 23 0 25 0;
#X connect 24 0 15 0;
#X connect 25 0 30 0;
#X connect 26 0 52 0;
#X connect 27 0 24 0;
#X connect 28 0 24 1;
#X connect 29 0 28 0;
#X connect 30 0 27 0;
#X connect 31 0 24 2;
#X connect 32 0 31 0;
#X connect 33 0 28 0;
#X connect 33 0 31 0;
#X connect 33 1 27 0;
#X connect 34 0 35 0;
#X connect 34 0 1 0;
#X connect 35 0 26 0;
#X connect 37 0 26 0;
#X connect 37 1 38 0;
#X connect 37 1 46 0;
#X connect 38 0 52 1;
#X connect 39 0 40 0;
#X connect 40 0 41 0;
#X connect 41 0 42 0;
#X connect 41 0 45 0;
#X connect 42 0 39 0;
#X connect 43 0 44 0;
#X connect 44 0 50 0;
#X connect 44 0 52 1;
#X connect 45 0 43 0;
#X connect 46 0 39 0;
#X connect 47 0 26 0;
#X connect 47 1 21 0;
#X connect 47 2 39 0;
#X connect 48 0 51 0;
#X connect 49 0 50 0;
#X connect 50 0 48 1;
#X connect 51 0 0 0;
#X connect 52 0 34 0;
#X restore 245 145 pd 2xx;
#X text 245 188 1xx with - instead of +, f 9;
#X obj 172 335 s \$0-noteretrig;
#X text 272 335 Use for FX that re-trigger the envelope;
#N canvas 1632 921 450 423 4xy 0;
#X obj 114 18 inlet;
#X obj 27 311 outlet;
#X obj 114 61 list split 1;
#N canvas 575 99 441 159 hex-to-int 0;
#X obj 17 14 inlet;
#X obj 17 69 route A B C D E F, f 33;
#X msg 17 94 10;
#X msg 47 94 11;
#X msg 77 94 12;
#X msg 107 94 13;
#X msg 137 94 14;
#X msg 167 94 15;
#X obj 17 129 outlet;
#X text 224 68 Convert A B C D E F to numbers \,  normal numbers just pass through
, f 34;
#X obj 17 39 list trim;
#X connect 0 0 10 0;
#X connect 1 0 2 0;
#X connect 1 1 3 0;
#X connect 1 2 4 0;
#X connect 1 3 5 0;
#X connect 1 4 6 0;
#X connect 1 5 7 0;
#X connect 1 6 8 0;
#X connect 2 0 8 0;
#X connect 3 0 8 0;
#X connect 4 0 8 0;
#X connect 5 0 8 0;
#X connect 6 0 8 0;
#X connect 7 0 8 0;
#X connect 10 0 1 0;
#X restore 114 83 pd hex-to-int;
#N canvas 575 99 441 159 hex-to-int 0;
#X obj 17 14 inlet;
#X obj 17 69 route A B C D E F, f 33;
#X msg 17 94 10;
#X msg 47 94 11;
#X msg 77 94 12;
#X msg 107 94 13;
#X msg 137 94 14;
#X msg 167 94 15;
#X obj 17 129 outlet;
#X text 224 68 Convert A B C D E F to numbers \,  normal numbers just pass through
, f 34;
#X obj 17 39 list trim;
#X connect 0 0 10 0;
#X connect 1 0 2 0;
#X connect 1 1 3 0;
#X connect 1 2 4 0;
#X connect 1 3 5 0;
#X connect 1 4 6 0;
#X connect 1 5 7 0;
#X connect 1 6 8 0;
#X connect 2 0 8 0;
#X connect 3 0 8 0;
#X connect 4 0 8 0;
#X connect 5 0 8 0;
#X connect 6 0 8 0;
#X connect 7 0 8 0;
#X connect 10 0 1 0;
#X restore 204 83 pd hex-to-int;
#X floatatom 114 104 5 0 0 0 - - - 0 0, f 5;
#X floatatom 204 104 5 0 0 0 - - - 0 0, f 5;
#X obj 42 188 r \$0-note;
#X floatatom 204 153 5 0 0 0 - - - 0 0, f 5;
#X text 151 104 Speed;
#X text 244 104 Depth;
#X obj 114 144 osc~;
#X obj 114 169 *~;
#X floatatom 42 211 5 0 0 0 - - - 0 0, f 5;
#X obj 27 245 +;
#X obj 114 194 snapshot~;
#X obj 333 147 tgl 15 0 empty empty empty 17 7 0 10 #fcfcfc #000000
#000000 0 1;
#X msg 333 125 1;
#X floatatom 114 219 5 0 0 0 - - - 0 0, f 5;
#X floatatom 27 267 5 0 0 0 - - - 0 0, f 5;
#X obj 333 171 metro 50;
#X obj 204 128 / 7;
#X obj 27 291 mtof;
#X obj 289 100 inlet;
#X msg 289 125 0;
#X connect 0 0 2 0;
#X connect 0 0 17 0;
#X connect 2 0 3 0;
#X connect 2 1 4 0;
#X connect 3 0 5 0;
#X connect 4 0 6 0;
#X connect 5 0 11 0;
#X connect 6 0 21 0;
#X connect 7 0 13 0;
#X connect 8 0 12 1;
#X connect 11 0 12 0;
#X connect 12 0 15 0;
#X connect 13 0 14 1;
#X connect 14 0 19 0;
#X connect 15 0 18 0;
#X connect 16 0 20 0;
#X connect 17 0 16 0;
#X connect 18 0 14 0;
#X connect 19 0 22 0;
#X connect 20 0 15 0;
#X connect 21 0 8 0;
#X connect 22 0 1 0;
#X connect 23 0 24 0;
#X connect 24 0 16 0;
#X restore 297 145 pd 4xy;
#X obj 307 170 bng 15 250 50 0 empty empty empty 17 7 0 10 #fcfcfc
#000000 #000000;
#N canvas 1478 904 450 392 7xy 0;
#X obj 30 24 inlet;
#X obj 30 317 outlet;
#X obj 30 67 list split 1;
#N canvas 575 99 441 159 hex-to-int 0;
#X obj 17 14 inlet;
#X obj 17 69 route A B C D E F, f 33;
#X msg 17 94 10;
#X msg 47 94 11;
#X msg 77 94 12;
#X msg 107 94 13;
#X msg 137 94 14;
#X msg 167 94 15;
#X obj 17 129 outlet;
#X text 224 68 Convert A B C D E F to numbers \,  normal numbers just pass through
, f 34;
#X obj 17 39 list trim;
#X connect 0 0 10 0;
#X connect 1 0 2 0;
#X connect 1 1 3 0;
#X connect 1 2 4 0;
#X connect 1 3 5 0;
#X connect 1 4 6 0;
#X connect 1 5 7 0;
#X connect 1 6 8 0;
#X connect 2 0 8 0;
#X connect 3 0 8 0;
#X connect 4 0 8 0;
#X connect 5 0 8 0;
#X connect 6 0 8 0;
#X connect 7 0 8 0;
#X connect 10 0 1 0;
#X restore 30 89 pd hex-to-int;
#N canvas 575 99 441 159 hex-to-int 0;
#X obj 17 14 inlet;
#X obj 17 69 route A B C D E F, f 33;
#X msg 17 94 10;
#X msg 47 94 11;
#X msg 77 94 12;
#X msg 107 94 13;
#X msg 137 94 14;
#X msg 167 94 15;
#X obj 17 129 outlet;
#X text 224 68 Convert A B C D E F to numbers \,  normal numbers just pass through
, f 34;
#X obj 17 39 list trim;
#X connect 0 0 10 0;
#X connect 1 0 2 0;
#X connect 1 1 3 0;
#X connect 1 2 4 0;
#X connect 1 3 5 0;
#X connect 1 4 6 0;
#X connect 1 5 7 0;
#X connect 1 6 8 0;
#X connect 2 0 8 0;
#X connect 3 0 8 0;
#X connect 4 0 8 0;
#X connect 5 0 8 0;
#X connect 6 0 8 0;
#X connect 7 0 8 0;
#X connect 10 0 1 0;
#X restore 120 89 pd hex-to-int;
#X floatatom 30 110 5 0 0 0 - - - 0 0, f 5;
#X floatatom 120 110 5 0 0 0 - - - 0 0, f 5;
#X floatatom 120 159 5 0 0 0 - - - 0 0, f 5;
#X text 67 110 Speed;
#X text 160 110 Depth;
#X obj 30 150 osc~;
#X obj 30 175 *~;
#X obj 30 200 snapshot~;
#X obj 249 153 tgl 15 0 empty empty empty 17 7 0 10 #fcfcfc #000000
#000000 0 1;
#X msg 249 131 1;
#X floatatom 30 225 5 0 0 0 - - - 0 0, f 5;
#X obj 249 177 metro 50;
#X obj 205 106 inlet;
#X msg 205 131 0;
#X obj 120 134 / 15;
#X connect 0 0 2 0;
#X connect 0 0 14 0;
#X connect 2 0 3 0;
#X connect 2 1 4 0;
#X connect 3 0 5 0;
#X connect 4 0 6 0;
#X connect 5 0 10 0;
#X connect 6 0 19 0;
#X connect 7 0 11 1;
#X connect 10 0 11 0;
#X connect 11 0 12 0;
#X connect 12 0 15 0;
#X connect 13 0 16 0;
#X connect 14 0 13 0;
#X connect 15 0 1 0;
#X connect 16 0 12 0;
#X connect 17 0 18 0;
#X connect 18 0 13 0;
#X connect 18 0 1 0;
#X connect 19 0 7 0;
#X restore 351 145 pd 7xy;
#X obj 361 170 bng 15 250 50 0 empty empty empty 17 7 0 10 #fcfcfc
#000000 #000000;
#X obj 351 196 outlet;
#X obj 814 97 s \$0-notvib;
#X obj 734 97 s \$0-nottrem;
#X obj 384 115 r \$0-nottrem;
#X obj 304 115 r \$0-notvib;
#X obj 723 226 bng 15 250 50 0 empty empty empty 17 7 0 10 #fcfcfc
#000000 #000000;
#X obj 411 170 bng 15 250 50 0 empty empty empty 17 7 0 10 #fcfcfc
#000000 #000000;
#X obj 401 196 outlet;
#N canvas 700 859 450 392 8xx 0;
#X obj 20 14 inlet;
#X obj 20 357 outlet;
#X obj 20 57 list split 1;
#N canvas 575 99 441 159 hex-to-int 0;
#X obj 17 14 inlet;
#X obj 17 69 route A B C D E F, f 33;
#X msg 17 94 10;
#X msg 47 94 11;
#X msg 77 94 12;
#X msg 107 94 13;
#X msg 137 94 14;
#X msg 167 94 15;
#X obj 17 129 outlet;
#X text 224 68 Convert A B C D E F to numbers \,  normal numbers just pass through
, f 34;
#X obj 17 39 list trim;
#X connect 0 0 10 0;
#X connect 1 0 2 0;
#X connect 1 1 3 0;
#X connect 1 2 4 0;
#X connect 1 3 5 0;
#X connect 1 4 6 0;
#X connect 1 5 7 0;
#X connect 1 6 8 0;
#X connect 2 0 8 0;
#X connect 3 0 8 0;
#X connect 4 0 8 0;
#X connect 5 0 8 0;
#X connect 6 0 8 0;
#X connect 7 0 8 0;
#X connect 10 0 1 0;
#X restore 20 79 pd hex-to-int;
#N canvas 575 99 441 159 hex-to-int 0;
#X obj 17 14 inlet;
#X obj 17 69 route A B C D E F, f 33;
#X msg 17 94 10;
#X msg 47 94 11;
#X msg 77 94 12;
#X msg 107 94 13;
#X msg 137 94 14;
#X msg 167 94 15;
#X obj 17 129 outlet;
#X text 224 68 Convert A B C D E F to numbers \,  normal numbers just pass through
, f 34;
#X obj 17 39 list trim;
#X connect 0 0 10 0;
#X connect 1 0 2 0;
#X connect 1 1 3 0;
#X connect 1 2 4 0;
#X connect 1 3 5 0;
#X connect 1 4 6 0;
#X connect 1 5 7 0;
#X connect 1 6 8 0;
#X connect 2 0 8 0;
#X connect 3 0 8 0;
#X connect 4 0 8 0;
#X connect 5 0 8 0;
#X connect 6 0 8 0;
#X connect 7 0 8 0;
#X connect 10 0 1 0;
#X restore 110 79 pd hex-to-int;
#X floatatom 20 100 5 0 0 0 - - - 0 0, f 5;
#X floatatom 110 100 5 0 0 0 - - - 0 0, f 5;
#X obj 20 159 +;
#X obj 20 124 * 16;
#X floatatom 20 184 5 0 0 0 - - - 0 0, f 5;
#X floatatom 20 233 5 0 0 0 - - - 0 0, f 5;
#X obj 20 257 - 45;
#X floatatom 20 282 5 0 0 0 - - - 0 0, f 5;
#X obj 20 306 int;
#X floatatom 20 331 5 0 0 0 - - - 0 0, f 5;
#X msg 236 30 F F;
#X msg 276 30 0 0;
#X msg 316 30 2 5;
#X msg 356 30 9 A;
#X obj 20 208 / 2.83;
#X obj 210 79 inlet;
#X text 240 220 Reset on new note;
#X msg 180 220 0;
#X obj 180 265 gate;
#X msg 130 220 1;
#X msg 180 220 0;
#X obj 130 194 del 5;
#X msg 210 220 0;
#X obj 223 192 loadbang;
#X connect 0 0 2 0;
#X connect 0 0 26 0;
#X connect 0 0 25 0;
#X connect 0 0 22 0;
#X connect 2 0 3 0;
#X connect 2 1 4 0;
#X connect 3 0 5 0;
#X connect 4 0 6 0;
#X connect 5 0 8 0;
#X connect 6 0 7 1;
#X connect 7 0 9 0;
#X connect 8 0 7 0;
#X connect 9 0 19 0;
#X connect 10 0 11 0;
#X connect 11 0 12 0;
#X connect 12 0 13 0;
#X connect 13 0 14 0;
#X connect 14 0 1 0;
#X connect 15 0 2 0;
#X connect 16 0 2 0;
#X connect 17 0 2 0;
#X connect 18 0 2 0;
#X connect 19 0 10 0;
#X connect 20 0 27 0;
#X connect 22 0 23 0;
#X connect 23 0 12 0;
#X connect 24 0 23 0;
#X connect 26 0 24 0;
#X connect 27 0 23 1;
#X connect 28 0 24 0;
#X restore 401 145 pd 8xx;
#X obj 888 97 s \$0-notpan;
#X obj 524 170 bng 15 250 50 0 empty empty empty 17 7 0 10 #fcfcfc
#000000 #000000;
#X obj 514 196 outlet;
#N canvas 1158 842 462 428 Cxx 0;
#X obj 20 14 inlet;
#X obj 20 387 outlet;
#X obj 20 57 list split 1;
#N canvas 575 99 441 159 hex-to-int 0;
#X obj 17 14 inlet;
#X obj 17 69 route A B C D E F, f 33;
#X msg 17 94 10;
#X msg 47 94 11;
#X msg 77 94 12;
#X msg 107 94 13;
#X msg 137 94 14;
#X msg 167 94 15;
#X obj 17 129 outlet;
#X text 224 68 Convert A B C D E F to numbers \,  normal numbers just pass through
, f 34;
#X obj 17 39 list trim;
#X connect 0 0 10 0;
#X connect 1 0 2 0;
#X connect 1 1 3 0;
#X connect 1 2 4 0;
#X connect 1 3 5 0;
#X connect 1 4 6 0;
#X connect 1 5 7 0;
#X connect 1 6 8 0;
#X connect 2 0 8 0;
#X connect 3 0 8 0;
#X connect 4 0 8 0;
#X connect 5 0 8 0;
#X connect 6 0 8 0;
#X connect 7 0 8 0;
#X connect 10 0 1 0;
#X restore 20 79 pd hex-to-int;
#N canvas 575 99 441 159 hex-to-int 0;
#X obj 17 14 inlet;
#X obj 17 69 route A B C D E F, f 33;
#X msg 17 94 10;
#X msg 47 94 11;
#X msg 77 94 12;
#X msg 107 94 13;
#X msg 137 94 14;
#X msg 167 94 15;
#X obj 17 129 outlet;
#X text 224 68 Convert A B C D E F to numbers \,  normal numbers just pass through
, f 34;
#X obj 17 39 list trim;
#X connect 0 0 10 0;
#X connect 1 0 2 0;
#X connect 1 1 3 0;
#X connect 1 2 4 0;
#X connect 1 3 5 0;
#X connect 1 4 6 0;
#X connect 1 5 7 0;
#X connect 1 6 8 0;
#X connect 2 0 8 0;
#X connect 3 0 8 0;
#X connect 4 0 8 0;
#X connect 5 0 8 0;
#X connect 6 0 8 0;
#X connect 7 0 8 0;
#X connect 10 0 1 0;
#X restore 110 79 pd hex-to-int;
#X floatatom 20 100 5 0 0 0 - - - 0 0, f 5;
#X floatatom 110 100 5 0 0 0 - - - 0 0, f 5;
#X obj 20 159 +;
#X obj 20 124 * 16;
#X floatatom 20 184 5 0 0 0 - - - 0 0, f 5;
#X floatatom 20 353 5 0 0 0 - - - 0 0, f 5;
#X msg 236 30 F F;
#X msg 276 30 0 0;
#X msg 316 30 2 5;
#X msg 356 30 9 A;
#X obj 210 79 inlet;
#X obj 20 216 moses 64;
#X msg 89 237 64;
#X obj 20 258 / 64;
#X text 240 266 Reset on new note;
#X msg 210 266 1;
#X msg 180 266 0;
#X obj 180 311 gate;
#X msg 130 266 1;
#X msg 180 266 0;
#X obj 130 240 del 5;
#X obj 242 234 loadbang;
#X connect 0 0 2 0;
#X connect 0 0 21 0;
#X connect 0 0 25 0;
#X connect 2 0 3 0;
#X connect 2 1 4 0;
#X connect 3 0 5 0;
#X connect 4 0 6 0;
#X connect 5 0 8 0;
#X connect 6 0 7 1;
#X connect 7 0 9 0;
#X connect 8 0 7 0;
#X connect 9 0 16 0;
#X connect 10 0 1 0;
#X connect 11 0 2 0;
#X connect 12 0 2 0;
#X connect 13 0 2 0;
#X connect 14 0 2 0;
#X connect 15 0 20 0;
#X connect 16 0 18 0;
#X connect 16 1 17 0;
#X connect 17 0 18 0;
#X connect 18 0 10 0;
#X connect 20 0 22 1;
#X connect 21 0 22 0;
#X connect 22 0 10 0;
#X connect 23 0 22 0;
#X connect 25 0 23 0;
#X connect 26 0 23 0;
#X restore 514 145 pd Cxx;
#X obj 464 170 bng 15 250 50 0 empty empty empty 17 7 0 10 #fcfcfc
#000000 #000000;
#X obj 454 196 outlet;
#N canvas 1163 795 413 501 Axy 1;
#X obj 20 14 inlet;
#X obj 20 467 outlet;
#X obj 20 57 list split 1;
#N canvas 575 99 441 159 hex-to-int 0;
#X obj 17 14 inlet;
#X obj 17 69 route A B C D E F, f 33;
#X msg 17 94 10;
#X msg 47 94 11;
#X msg 77 94 12;
#X msg 107 94 13;
#X msg 137 94 14;
#X msg 167 94 15;
#X obj 17 129 outlet;
#X text 224 68 Convert A B C D E F to numbers \,  normal numbers just pass through
, f 34;
#X obj 17 39 list trim;
#X connect 0 0 10 0;
#X connect 1 0 2 0;
#X connect 1 1 3 0;
#X connect 1 2 4 0;
#X connect 1 3 5 0;
#X connect 1 4 6 0;
#X connect 1 5 7 0;
#X connect 1 6 8 0;
#X connect 2 0 8 0;
#X connect 3 0 8 0;
#X connect 4 0 8 0;
#X connect 5 0 8 0;
#X connect 6 0 8 0;
#X connect 7 0 8 0;
#X connect 10 0 1 0;
#X restore 20 79 pd hex-to-int;
#N canvas 575 99 441 159 hex-to-int 0;
#X obj 17 14 inlet;
#X obj 17 69 route A B C D E F, f 33;
#X msg 17 94 10;
#X msg 47 94 11;
#X msg 77 94 12;
#X msg 107 94 13;
#X msg 137 94 14;
#X msg 167 94 15;
#X obj 17 129 outlet;
#X text 224 68 Convert A B C D E F to numbers \,  normal numbers just pass through
, f 34;
#X obj 17 39 list trim;
#X connect 0 0 10 0;
#X connect 1 0 2 0;
#X connect 1 1 3 0;
#X connect 1 2 4 0;
#X connect 1 3 5 0;
#X connect 1 4 6 0;
#X connect 1 5 7 0;
#X connect 1 6 8 0;
#X connect 2 0 8 0;
#X connect 3 0 8 0;
#X connect 4 0 8 0;
#X connect 5 0 8 0;
#X connect 6 0 8 0;
#X connect 7 0 8 0;
#X connect 10 0 1 0;
#X restore 110 79 pd hex-to-int;
#X floatatom 20 100 5 0 0 0 - - - 0 0, f 5;
#X floatatom 20 304 5 0 0 0 - - - 0 0, f 5;
#X floatatom 20 393 5 0 0 0 - - - 0 0, f 5;
#X msg 236 30 F F;
#X msg 276 30 0 0;
#X msg 316 30 2 5;
#X msg 356 30 9 A;
#X obj 210 79 inlet;
#X obj 20 326 moses 64;
#X msg 89 348 64;
#X obj 20 368 / 64;
#X text 240 331 Reset on new note;
#X msg 180 331 0;
#X obj 180 376 gate;
#X msg 130 331 1;
#X msg 180 331 0;
#X obj 130 305 del 5;
#X obj 242 299 loadbang;
#X obj 20 214 +;
#X obj 50 139 inlet;
#X text 50 124 Default Vol;
#X obj 20 279 -;
#X msg 110 104 set \$1;
#X floatatom 110 256 5 0 0 0 - - - 0 0, f 5;
#X obj 20 239 t f b;
#X obj 20 417 line;
#X obj 69 387 r \$13;
#X floatatom 20 442 5 0 0 0 - - - 0 0, f 5;
#X floatatom 69 422 5 0 0 0 - - - 0 0, f 5;
#X obj 118 407 bng 15 250 50 0 empty empty empty 17 7 0 10 #fcfcfc
#000000 #000000;
#X floatatom 50 164 5 0 0 0 - - - 0 0, f 5;
#X obj 90 179 inlet;
#X text 90 164 Cxx Vol;
#X obj 220 104 bng 15 250 50 0 empty empty empty 17 7 0 10 #fcfcfc
#000000 #000000;
#X obj 180 401 bng 15 250 50 0 empty empty empty 17 7 0 10 #fcfcfc
#000000 #000000;
#X msg 210 331 1;
#X connect 0 0 2 0;
#X connect 0 0 21 0;
#X connect 0 0 20 0;
#X connect 0 0 17 0;
#X connect 2 0 3 0;
#X connect 2 1 4 0;
#X connect 3 0 5 0;
#X connect 4 0 27 0;
#X connect 5 0 23 0;
#X connect 6 0 13 0;
#X connect 7 0 30 0;
#X connect 7 0 34 0;
#X connect 8 0 2 0;
#X connect 9 0 2 0;
#X connect 10 0 2 0;
#X connect 11 0 2 0;
#X connect 12 0 40 0;
#X connect 12 0 38 0;
#X connect 13 0 15 0;
#X connect 13 1 14 0;
#X connect 14 0 15 0;
#X connect 15 0 7 0;
#X connect 17 0 18 0;
#X connect 18 0 7 0;
#X connect 18 0 39 0;
#X connect 19 0 18 0;
#X connect 21 0 19 0;
#X connect 22 0 19 0;
#X connect 23 0 29 0;
#X connect 24 0 35 0;
#X connect 26 0 6 0;
#X connect 27 0 28 0;
#X connect 28 0 26 1;
#X connect 29 0 26 0;
#X connect 29 1 28 0;
#X connect 30 0 32 0;
#X connect 31 0 33 0;
#X connect 32 0 1 0;
#X connect 33 0 30 1;
#X connect 34 0 33 0;
#X connect 35 0 23 1;
#X connect 36 0 23 1;
#X connect 39 0 35 0;
#X connect 40 0 18 1;
#X restore 454 145 pd Axy;
#X obj 467 115 r \$0-trnote;
#X floatatom 537 22 5 0 0 0 - - - 0 0, f 5;
#X text 637 35 [TEMP] Until Default Vol as added as full attribute
ofwavetablesynth.pd \, then replace with insert;
#X obj 416 16 loadbang;
#X text 637 22 Default Vol (In decimal - 0 - 64 instead of 0 - 40)
;
#X msg 483 23 32;
#X text 446 217 Cxx output connects to Axy so it manipulates most recent
vol, f 18;
#X text 559 207 NOTE: Currentlydoesn't work ifCxx and note activate
simultaneously, f 18;
#X connect 0 0 2 0;
#X connect 0 0 21 0;
#X connect 0 0 23 0;
#X connect 2 0 28 0;
#X connect 2 0 40 0;
#X connect 2 0 41 0;
#X connect 2 0 48 0;
#X connect 2 1 27 0;
#X connect 2 1 40 0;
#X connect 2 1 41 0;
#X connect 2 1 48 0;
#X connect 2 2 31 0;
#X connect 2 2 40 0;
#X connect 2 2 41 0;
#X connect 2 2 48 0;
#X connect 2 3 40 0;
#X connect 2 3 41 0;
#X connect 2 3 48 0;
#X connect 2 4 35 0;
#X connect 2 4 41 0;
#X connect 2 4 48 0;
#X connect 2 5 40 0;
#X connect 2 5 41 0;
#X connect 2 5 48 0;
#X connect 2 6 40 0;
#X connect 2 6 41 0;
#X connect 2 6 48 0;
#X connect 2 7 37 0;
#X connect 2 7 40 0;
#X connect 2 7 48 0;
#X connect 2 8 40 0;
#X connect 2 8 41 0;
#X connect 2 8 47 0;
#X connect 2 9 40 0;
#X connect 2 9 41 0;
#X connect 2 9 48 0;
#X connect 2 10 40 0;
#X connect 2 10 41 0;
#X connect 2 10 48 0;
#X connect 2 10 54 0;
#X connect 2 11 40 0;
#X connect 2 11 41 0;
#X connect 2 11 48 0;
#X connect 2 12 40 0;
#X connect 2 12 41 0;
#X connect 2 12 48 0;
#X connect 2 12 51 0;
#X connect 2 13 40 0;
#X connect 2 13 41 0;
#X connect 2 14 40 0;
#X connect 2 14 41 0;
#X connect 2 14 48 0;
#X connect 2 15 40 0;
#X connect 2 15 41 0;
#X connect 2 15 48 0;
#X connect 2 16 40 0;
#X connect 2 16 41 0;
#X connect 2 16 48 0;
#X connect 2 17 40 0;
#X connect 2 17 41 0;
#X connect 2 17 48 0;
#X connect 4 0 15 0;
#X connect 6 0 7 18;
#X connect 6 0 7 8;
#X connect 6 0 7 9;
#X connect 7 0 8 0;
#X connect 8 0 1 0;
#X connect 9 0 10 0;
#X connect 10 0 11 0;
#X connect 10 1 12 0;
#X connect 10 2 13 0;
#X connect 11 0 13 0;
#X connect 12 0 13 0;
#X connect 13 0 26 0;
#X connect 14 0 6 0;
#X connect 16 0 7 0;
#X connect 17 0 18 0;
#X connect 18 0 14 0;
#X connect 21 0 9 0;
#X connect 22 0 24 0;
#X connect 23 0 13 1;
#X connect 25 0 14 0;
#X connect 25 0 44 0;
#X connect 26 0 22 0;
#X connect 26 1 16 0;
#X connect 27 0 7 2;
#X connect 27 0 29 0;
#X connect 28 0 5 0;
#X connect 28 0 7 1;
#X connect 31 0 30 0;
#X connect 31 0 7 3;
#X connect 35 0 7 5;
#X connect 35 0 36 0;
#X connect 37 0 39 0;
#X connect 37 0 38 0;
#X connect 42 0 37 1;
#X connect 43 0 35 1;
#X connect 47 0 46 0;
#X connect 47 0 45 0;
#X connect 51 0 50 0;
#X connect 51 0 49 0;
#X connect 51 0 54 2;
#X connect 54 0 53 0;
#X connect 54 0 52 0;
#X connect 55 0 47 1;
#X connect 55 0 54 3;
#X connect 55 0 51 1;
#X connect 56 0 54 1;
#X connect 58 0 60 0;
#X connect 60 0 56 0;
#X restore 244 498 pd tracker-fx;
#X msg 443 435 Z 0 0;
#X obj 373 372 bng 15 250 50 0 empty empty empty 17 7 0 10 #fcfcfc
#000000 #000000;
#X obj 503 372 bng 15 250 50 0 empty empty empty 17 7 0 10 #fcfcfc
#000000 #000000;
#X obj 492 436 s \$12;
#X floatatom 508 47 5 0 0 0 - - - 0 0, f 5;
#X text 508 31 Debug Note Duration;
#X msg 313 435 0 3 7;
#X msg 363 435 0 C D;
#X obj 453 372 bng 15 250 50 0 empty empty empty 17 7 0 10 #fcfcfc
#000000 #000000;
#X msg 542 470 1 2 2;
#X msg 542 494 1 F F;
#X msg 542 520 1 0 0;
#X obj 483 12 r \$0-noteretrig;
#X obj 278 469 s \$1;
#X text 1005 51 \$1 - instr note send\$2 - write to wavetable receive name\$3 - write to envelope receive name\$4 - note duration recieve\$5 - wavetable server channel\$6 - envelope server channel\$7 - note duration server channel\$8 - note channel \$9 - %instr#%
\, instrument specific server channel\$10 - \$0-toserver\$11 - fx server channel\$12 - tick\$13
- tick ms;
#X obj 545 371 bng 15 250 50 0 empty empty empty 17 7 0 10 #fcfcfc
#000000 #000000;
#X msg 571 435 1 0 1;
#X msg 431 197 0.1;
#X obj 369 222 +;
#X msg 401 197 0;
#X obj 468 197 loadbang;
#X obj 298 211 *~;
#X obj 401 222 *;
#X obj 473 217 bng 15 250 50 0 empty empty empty 17 7 0 10 #fcfcfc
#000000 #000000;
#X floatatom 552 241 5 0 0 0 - - - 0 0, f 5;
#X floatatom 565 217 5 0 0 0 - - - 0 0, f 5;
#X msg 413 435 74;
#X msg 283 435 46;
#X obj 298 314 pan~;
#X obj 298 236 *~;
#X msg 530 435 C 2 0;
#X connect 7 0 94 0;
#X connect 11 0 101 0;
#X connect 13 0 36 0;
#X connect 14 0 13 0;
#X connect 15 0 27 0;
#X connect 16 0 21 1;
#X connect 17 0 21 0;
#X connect 17 1 16 0;
#X connect 18 0 45 1;
#X connect 19 0 20 0;
#X connect 20 0 17 0;
#X connect 21 0 15 0;
#X connect 24 0 34 0;
#X connect 25 0 26 0;
#X connect 25 0 27 1;
#X connect 27 0 61 0;
#X connect 28 0 29 0;
#X connect 30 0 31 0;
#X connect 31 0 28 0;
#X connect 32 0 30 0;
#X connect 33 0 57 0;
#X connect 34 0 35 0;
#X connect 35 0 33 0;
#X connect 36 0 56 0;
#X connect 37 0 38 0;
#X connect 38 0 36 1;
#X connect 40 0 41 0;
#X connect 41 0 38 0;
#X connect 45 0 19 0;
#X connect 46 0 67 0;
#X connect 47 0 45 0;
#X connect 47 0 46 0;
#X connect 52 0 53 0;
#X connect 52 0 63 0;
#X connect 53 0 60 0;
#X connect 55 0 24 0;
#X connect 55 0 72 0;
#X connect 56 0 7 0;
#X connect 57 0 7 1;
#X connect 58 0 34 1;
#X connect 59 0 65 0;
#X connect 62 0 59 0;
#X connect 63 0 64 0;
#X connect 65 0 66 0;
#X connect 66 0 52 0;
#X connect 71 0 25 0;
#X connect 72 0 14 0;
#X connect 72 1 95 0;
#X connect 72 2 101 1;
#X connect 72 4 102 1;
#X connect 73 0 72 1;
#X connect 74 0 100 0;
#X connect 74 0 76 0;
#X connect 74 0 73 0;
#X connect 75 0 99 0;
#X connect 75 0 76 0;
#X connect 75 0 103 0;
#X connect 77 0 34 1;
#X connect 79 0 72 1;
#X connect 80 0 72 1;
#X connect 82 0 72 1;
#X connect 83 0 72 1;
#X connect 84 0 72 1;
#X connect 85 0 24 0;
#X connect 88 0 103 0;
#X connect 88 0 76 0;
#X connect 88 0 100 0;
#X connect 89 0 72 1;
#X connect 90 0 91 1;
#X connect 90 0 95 1;
#X connect 91 0 94 1;
#X connect 91 0 97 0;
#X connect 92 0 95 0;
#X connect 93 0 92 0;
#X connect 93 0 90 0;
#X connect 94 0 102 0;
#X connect 95 0 91 0;
#X connect 95 0 98 0;
#X connect 96 0 90 0;
#X connect 96 0 92 0;
#X connect 99 0 86 0;
#X connect 100 0 86 0;
#X connect 101 0 12 0;
#X connect 101 1 12 1;
#X connect 102 0 11 0;
#X connect 103 0 72 1;
#X coords 0 -1 1 1 169 283 2 825 45;
